<svg width="536" height="226" viewBox="0 0 536 226" fill="none" xmlns="http://www.w3.org/2000/svg">
<g clip-path="url(#clip0_1655_3865)">
<path d="M190.05 30.91C193.94 33.87 200.81 40.16 200.81 40.16C200.75 40 199.34 37.41 199.34 37.41C209.03 45.18 218.85 63.35 219.85 65.23C201.48 26.97 161.7 0.5 115.63 0.5C115.46 0.5 115.29 0.5 115.12 0.5C108 0.53 101.03 1.2 94.26 2.44C89.56 3.65 83.59 5.27 78.75 6.91C69.22 10.12 58.5 15.3 41.95 28.37C25.39 41.44 14.44 60.31 9.29003 72.06C4.36003 83.3 1.91003 95.58 1.71003 96.61C0.890027 102.1 0.480027 107.71 0.500027 113.42C0.530027 119.32 1.01003 125.12 1.90003 130.78L2.34003 131.04C2.34003 131.04 5.11003 149.78 14.19 165.35C22.62 179.81 28.67 187.34 29.49 188.34C32.52 191.66 35.76 194.81 39.19 197.74C59.56 215.17 86.86 225.49 116.07 225.37C118.66 225.36 121.23 225.26 123.78 225.08C123.99 224.52 130.51 225.01 144.81 221.29C159.2 217.55 161.8 214.76 161.73 214.45C161.67 214.13 159.51 214.7 156.85 215.34C154.19 215.98 140.52 219.78 132.24 220.96C123.96 222.14 113.06 221.89 113.06 221.89C135.12 221.89 153.37 214.96 164.08 209.89C174.79 204.82 179.48 200.76 179.48 200.76C179.48 200.76 168.58 208.24 157.3 211.91C146.02 215.59 129.92 221.29 107.48 219.39C85.04 217.49 66.33 211.4 49.17 198.39C32.02 185.38 27.43 176.8 27.43 176.8C30.87 182.31 45.33 195.22 52.3 199.83C59.27 204.44 64.19 206.02 64.19 206.02C45.87 197.78 29.65 179.91 23.69 170.84C17.73 161.78 15.26 156.2 13.58 152.65C13.74 153.16 14.94 156.23 14.94 156.23C14.94 156.23 12.97 152.71 11.01 147.77C4.06003 130.27 4.67003 111.39 4.67003 111.39C5.56003 139.02 12.85 150.43 12.85 150.43C9.86003 144.08 8.16003 135.2 7.66003 132.32C7.63003 132.32 7.60003 132.32 7.58003 132.32C7.34003 132.32 7.13003 132.15 7.09003 131.91C7.03003 131.57 7.01003 131.42 7.01003 131.42C6.98003 131.15 7.17003 130.91 7.44003 130.87C7.46003 130.87 7.48003 130.87 7.51003 130.87C7.75003 130.87 7.97003 131.05 8.00003 131.29L8.07003 131.74C8.11003 132.01 7.94003 132.25 7.67003 132.31C8.03003 134.02 9.16003 138.38 12.57 147.76C17.3 160.77 22.96 167.79 22.96 167.79C13.33 154.02 10.24 136.73 10.24 136.73C13.53 149.41 18.9 160.86 31.24 176.07C43.58 191.28 61.58 201.51 61.58 201.51C51.69 197.37 37.33 183.85 37.33 183.85C48.57 195.09 64.12 207.47 85.92 212.79C107.72 218.11 123.7 215.71 123.7 215.71C118.25 216.22 112.29 215.33 105.7 213.81C108.36 213.94 111.15 213.05 111.15 213.05C87.57 211.15 73.84 204.47 67.75 198.56C74.68 200.76 82.62 202.11 82.62 202.11L82.37 201.26C49.9 188.18 37.56 169.14 34.74 164.05C30.08 158.33 23.91 145.67 23.64 145.13C23.62 145.08 23.6 145.03 23.59 144.97L23.38 143.32C23.09 142.63 22.79 141.79 22.5 140.89C21.48 138.13 20.57 135.32 19.81 132.45C19.17 129.47 17.75 119.18 17.34 116.89C17.19 116.06 17.02 115.01 16.86 113.97C16.78 112.55 16.72 111.13 16.71 109.7L17.35 109.43C17.35 109.43 17.64 100.35 19 92.06C20.35 83.78 21.16 83.55 21.47 80.69C21.54 80.02 21.56 79.49 21.54 79.05C22.04 77.58 22.57 76.12 23.14 74.68C25.03 69.87 27.96 65.58 30.6 61.17C39.01 47.09 50.38 34.87 64.8 26.32C65.1 25.8 65.54 25.23 66.79 24.6C68.56 23.71 69.57 22.87 70.84 23.01H70.85C72.12 22.37 73.4 21.75 74.71 21.16C76.01 20.37 77.6 19.4 79.59 18.39C83.39 16.47 87.1 15.81 89.22 15.83C98.37 13.22 108.05 11.79 118.08 11.75C162.08 11.56 199.68 37.97 214.05 75.09C213.71 73.13 212.4 68.69 207.62 59.59C200.4 45.84 183.37 30.12 183.37 30.12C200.61 42.12 214.6 67.68 215.19 68.36C215.78 69.04 216.16 69.33 216.12 68.36C216.08 67.39 215.04 63.9 209.4 54.27C203.76 44.64 190.05 30.88 190.05 30.88V30.91Z" fill="url(#paint0_linear_1655_3865)"></path>
<path d="M98.22 221.5C98.04 221.42 97.92 221.23 97.93 221.02C92.42 220.27 83.27 218.46 71.9 214.07C67.11 212.22 62.67 210.11 58.62 207.91C63.21 210.44 68.81 213.08 75.72 215.67C84.75 219.05 92.39 220.71 98.22 221.5V221.5Z" fill="#595A5A"></path>
<path d="M13.1 150.88C13.04 150.92 12.97 150.93 12.9 150.94C13.1 151.37 13.29 151.79 13.47 152.18C13.51 152.17 13.55 152.16 13.59 152.16C13.65 152.16 13.72 152.17 13.77 152.19C13.58 151.74 13.39 151.27 13.2 150.8C13.17 150.83 13.13 150.85 13.1 150.88V150.88Z" fill="#595A5A"></path>
<path d="M167.12 200.47C167.2 200.65 167.39 200.76 167.57 200.76C167.63 200.76 167.7 200.75 167.76 200.72C192.74 190.5 210.05 157.97 210.23 157.64C210.36 157.4 210.27 157.11 210.03 156.97C209.95 156.93 209.87 156.9 209.79 156.9C209.62 156.9 209.46 156.99 209.36 157.14C209.27 157.29 200.21 172.23 189.78 182.91C179.74 193.19 167.46 199.74 167.34 199.8C167.11 199.92 167.01 200.21 167.12 200.45V200.47ZM190.14 183.27C200.72 172.43 209.79 157.41 209.79 157.41C209.79 157.41 192.68 189.99 167.58 200.26C167.58 200.26 179.93 193.74 190.14 183.27Z" fill="#595A5A"></path>
<path d="M209.78 157.41C209.78 157.41 200.72 172.43 190.13 183.27C179.91 193.73 167.57 200.26 167.57 200.26C192.67 189.99 209.78 157.41 209.78 157.41Z" fill="#595A5A"></path>
<path d="M146.02 213.36C159.97 208.88 165.63 205.33 165.63 205.33C165.63 205.33 142.14 216.91 121.18 217.58C121.18 217.58 132.08 217.83 146.02 213.36V213.36Z" fill="#595A5A"></path>
<path d="M120.68 217.58C120.68 217.85 120.9 218.07 121.17 218.08H121.51C123.42 218.08 133.58 217.88 146.18 213.83C160.02 209.38 165.67 205.9 165.9 205.75C166.13 205.61 166.2 205.31 166.07 205.08C165.98 204.92 165.81 204.82 165.63 204.82C165.56 204.82 165.48 204.84 165.41 204.87C165.18 204.98 141.77 216.41 121.17 217.07C120.9 217.07 120.68 217.3 120.69 217.57L120.68 217.58ZM165.63 205.33C165.63 205.33 159.97 208.88 146.02 213.36C132.08 217.84 121.18 217.58 121.18 217.58C142.14 216.9 165.63 205.33 165.63 205.33Z" fill="#595A5A"></path>
<path d="M119.82 205.58C125.36 205.24 128.91 203.89 128.91 203.89C125.74 204.95 119.82 204.95 119.82 204.95V205.58Z" fill="#595A5A"></path>
<path d="M129.38 203.72C129.31 203.51 129.11 203.39 128.91 203.39C128.86 203.39 128.8 203.39 128.75 203.42C125.7 204.44 119.88 204.45 119.82 204.45C119.54 204.45 119.32 204.67 119.32 204.95V205.58C119.32 205.72 119.38 205.85 119.48 205.94C119.57 206.03 119.7 206.08 119.82 206.08C119.82 206.08 119.84 206.08 119.85 206.08C125.4 205.74 128.94 204.42 129.08 204.36C129.33 204.26 129.46 203.98 129.37 203.73L129.38 203.72ZM119.82 205.58V204.95C119.82 204.95 125.74 204.95 128.91 203.89C128.91 203.89 125.36 205.24 119.82 205.58Z" fill="#595A5A"></path>
<path d="M149.29 198.55C153.44 197.57 155.66 195.67 155.66 195.67C153.47 196.81 149.29 198.55 149.29 198.55Z" fill="#595A5A"></path>
<path d="M149.28 199.05C149.28 199.05 149.36 199.05 149.4 199.04C153.62 198.04 155.88 196.13 155.98 196.05C156.17 195.88 156.21 195.6 156.07 195.39C155.97 195.25 155.82 195.17 155.66 195.17C155.58 195.17 155.5 195.19 155.43 195.23C153.29 196.35 149.14 198.08 149.1 198.09C148.86 198.19 148.74 198.46 148.82 198.71C148.89 198.92 149.08 199.06 149.3 199.06L149.28 199.05ZM155.65 195.67C155.65 195.67 153.43 197.57 149.28 198.55C149.28 198.55 153.46 196.81 155.65 195.67Z" fill="#595A5A"></path>
<path d="M187.15 173.12L187.66 172.83C187.66 172.83 187.74 172.78 187.77 172.75C187.98 172.54 192.85 167.65 194.27 164.76C194.39 164.52 194.3 164.23 194.07 164.1C193.99 164.06 193.91 164.03 193.83 164.03C193.66 164.03 193.5 164.11 193.41 164.26C192.09 166.32 186.61 172.28 186.55 172.34C186.38 172.52 186.37 172.8 186.53 172.99C186.63 173.11 186.77 173.18 186.92 173.18C187 173.18 187.09 173.16 187.16 173.12H187.15ZM193.81 164.54C192.42 167.39 187.41 172.4 187.41 172.4L186.9 172.68C186.9 172.68 192.45 166.66 193.81 164.53V164.54Z" fill="#595A5A"></path>
<path d="M193.81 164.54C192.45 166.66 186.9 172.69 186.9 172.69L187.41 172.41C187.41 172.41 192.42 167.4 193.81 164.55V164.54Z" fill="#595A5A"></path>
<path d="M228.41 112.89C228.39 112.64 228.18 112.44 227.92 112.43H227.91C227.66 112.43 227.45 112.61 227.41 112.86L227.35 113.33C226.41 120.99 224.32 135.34 220.92 145.41C216.78 157.67 213.87 162.49 208.65 170.63C203.37 178.88 196.71 186.03 192.05 190.57C187.39 195.12 181.1 199.97 179.96 200.84C179.94 200.95 179.89 201.06 179.8 201.13C179.78 201.15 179.7 201.22 179.57 201.32C179.55 201.43 179.57 201.54 179.63 201.64C179.72 201.8 179.89 201.88 180.06 201.88C180.13 201.88 180.2 201.86 180.27 201.84C193.71 195.7 217.01 164.23 222.66 147.55C227.83 132.28 228.98 119.33 228.39 112.88L228.41 112.89ZM222.21 147.4C216.76 163.5 193.82 195.13 180.08 201.4C180.08 201.4 187.22 196.01 192.42 190.94C197.62 185.87 204.02 178.83 209.09 170.91C214.16 162.99 217.18 158.09 221.41 145.58C225.63 133.07 227.79 113.85 227.92 112.94C228.43 118.5 227.67 131.3 222.21 147.4V147.4Z" fill="#595A5A"></path>
<path d="M221.4 145.58C217.17 158.09 214.15 162.99 209.08 170.91C204.01 178.83 197.61 185.87 192.41 190.94C187.21 196.01 180.07 201.4 180.07 201.4C193.8 195.13 216.75 163.5 222.2 147.4C227.65 131.3 228.41 118.5 227.91 112.94C227.78 113.85 225.63 133.08 221.4 145.58V145.58Z" fill="#595A5A"></path>
<path d="M82.72 200.91C85.01 201.94 86.69 202.66 86.95 202.66C87.24 202.66 90.44 203.01 95.08 203.56C95.08 203.56 95.49 203.61 95.5 203.61C95.75 203.61 95.97 203.42 96 203.17C96.03 202.9 95.84 202.65 95.56 202.62L95.2 202.58C86.82 201.53 74.43 195.98 74.31 195.92C74.24 195.89 74.17 195.88 74.1 195.88C73.91 195.88 73.73 195.99 73.64 196.17C73.53 196.42 73.64 196.71 73.88 196.83C76.42 198.02 79.19 199.32 81.53 200.38C81.88 200.52 82.21 200.67 82.56 200.81C82.62 200.83 82.66 200.87 82.71 200.91H82.72ZM74.1 196.37C74.1 196.37 86.59 202 95.14 203.07C95.37 203.1 95.5 203.11 95.5 203.11C95.38 203.1 95.26 203.08 95.14 203.07C93.57 202.89 87.42 202.16 86.95 202.16C86.41 202.16 74.1 196.37 74.1 196.37Z" fill="#595A5A"></path>
<path d="M95.14 203.07C86.59 202 74.1 196.37 74.1 196.37C74.1 196.37 86.41 202.16 86.95 202.16C87.42 202.16 93.57 202.88 95.14 203.07V203.07Z" fill="#595A5A"></path>
<path d="M95.14 203.07C95.26 203.08 95.38 203.1 95.5 203.11C95.5 203.11 95.37 203.09 95.14 203.07Z" fill="#595A5A"></path>
<path d="M50.15 180.9C50.15 180.9 55.85 185.84 60.04 188.72C64.22 191.59 70.44 194.68 70.44 194.68C70.44 194.68 59.5 188.68 50.16 180.9H50.15Z" fill="#595A5A"></path>
<path d="M70.4301 195.18C70.6101 195.18 70.7801 195.08 70.8701 194.91C71.0001 194.67 70.9101 194.37 70.6701 194.24C70.5601 194.18 59.6601 188.17 50.4701 180.52C50.3801 180.44 50.2601 180.4 50.1501 180.4C50.0101 180.4 49.8701 180.46 49.7701 180.58C49.6801 180.68 49.6401 180.81 49.6501 180.94C54.8701 185.58 61.6801 190.55 70.4201 195.17L70.4301 195.18ZM50.1501 180.9C59.4901 188.68 70.4301 194.68 70.4301 194.68C70.4301 194.68 64.2201 191.6 60.0301 188.72C55.8501 185.85 50.1401 180.9 50.1401 180.9H50.1501Z" fill="#595A5A"></path>
<path d="M32.16 188.06C34.5 190.12 34.92 191.26 40.3 195.63C45.69 200 54.56 208.3 75.54 216.14C90.93 221.9 102.38 222.66 107.38 222.66C109.2 222.66 110.17 222.56 110.17 222.56C106.78 222.37 98.41 221.04 98.41 221.04C100.5 221.29 103.67 221.04 103.67 221.04C103.67 221.04 91.08 220.96 72.06 213.6C53.05 206.25 39.15 194.73 32.24 187.78C25.33 180.83 18.32 170.92 18.32 170.92C22.27 178.8 29.8 185.98 32.15 188.04L32.16 188.06ZM71.9 214.08C83.26 218.47 92.41 220.28 97.93 221.03C97.93 221.24 98.04 221.43 98.22 221.51C92.39 220.72 84.75 219.06 75.72 215.68C68.81 213.1 63.21 210.46 58.62 207.92C62.67 210.12 67.11 212.22 71.9 214.08V214.08Z" fill="#595A5A"></path>
<path d="M43.85 30.6498C52.99 21.9998 61.51 17.5498 61.51 17.5498C51.03 21.6898 40.98 31.3298 29.74 45.2698C18.5 59.2098 14.7 72.2298 14.7 72.2298C27.12 46.9998 34.72 39.2998 43.86 30.6498H43.85Z" fill="#595A5A"></path>
<path d="M17.93 155.7C17.93 155.7 7.22003 135.61 7.22003 110.51C7.22003 85.4098 14.38 74.3198 14.38 74.3198C14.38 74.3198 10.13 84.6498 8.99003 94.8498C9.43003 92.1898 10.19 90.6698 10.19 90.6698C10.19 90.6698 8.50003 94.5698 8.23003 108.35C7.96003 122.14 9.45003 134.34 17.93 155.7V155.7Z" fill="#595A5A"></path>
<path d="M220.31 65.02C201.34 25.52 160.26 0 115.63 0H115.12C108.1 0.03 101.05 0.69 94.14 1.95C89.81 3.06 83.6 4.74 78.59 6.43C70.25 9.24 59.33 14.01 41.64 27.98C22.4 43.18 11.66 65.41 8.83003 71.86C3.91003 83.08 1.48003 95.18 1.21003 96.54C0.390027 102.11 -0.0199735 107.79 2.65394e-05 113.43C0.0200265 119.24 0.500027 125.1 1.40003 130.86C1.42003 131.01 1.51003 131.14 1.64003 131.21L1.88003 131.35C2.24003 133.58 5.28003 151.07 13.76 165.6C22.27 180.19 28.43 187.84 29.13 188.68C32.21 192.05 35.49 195.23 38.88 198.13C59.79 216.02 87.03 225.88 115.57 225.88H116.09C118.59 225.87 121.2 225.77 123.84 225.59C123.97 225.59 124.08 225.52 124.17 225.44C124.42 225.36 125.24 225.28 126.11 225.2C129.08 224.91 135.27 224.31 144.97 221.79C158.06 218.39 162.48 215.48 162.26 214.36C162.23 214.21 162.1 213.87 161.5 213.87C160.9 213.87 159.59 214.18 157.8 214.61L156.77 214.86C156.24 214.99 155.27 215.24 154 215.57C151.03 216.34 146.13 217.62 141.26 218.72C149.05 216.72 156.79 213.91 164.32 210.35C173.84 205.84 178.57 202.18 179.61 201.34C179.63 201.21 179.69 201.09 179.8 201.01C179.8 201.01 179.89 200.94 180 200.86C180.02 200.73 180 200.59 179.91 200.47C179.81 200.34 179.66 200.27 179.51 200.27C179.41 200.27 179.31 200.3 179.23 200.36C179.12 200.44 168.26 207.84 157.18 211.45L155.65 211.95C146.21 215.04 133.27 219.28 116.38 219.28C113.48 219.28 110.51 219.15 107.56 218.9C88.08 217.25 72.04 212.38 57.88 203.72C61.59 205.69 63.94 206.46 64.08 206.5C64.13 206.52 64.18 206.52 64.23 206.52C64.43 206.52 64.62 206.4 64.7 206.2C64.8 205.95 64.68 205.67 64.44 205.56C46.56 197.52 30.24 179.83 24.15 170.57C23.49 169.57 22.87 168.61 22.3 167.69C22.51 167.97 22.62 168.11 22.63 168.12C22.73 168.24 22.87 168.3 23.02 168.3C23.12 168.3 23.23 168.27 23.32 168.2C23.54 168.04 23.58 167.73 23.43 167.51C20.48 163.29 18.14 158.71 16.32 154.4C19.88 161.55 24.58 168.58 30.92 176.39C32.91 178.85 35.06 181.18 37.26 183.37C37.18 183.39 37.1 183.44 37.03 183.5C36.84 183.7 36.84 184.01 37.03 184.2C46.77 193.94 62.43 207.56 85.86 213.28C97.62 216.15 107.67 216.75 114.03 216.75C120.39 216.75 123.79 216.21 123.83 216.2C124.1 216.16 124.29 215.91 124.25 215.65C124.22 215.4 124 215.21 123.75 215.21C123.73 215.21 123.72 215.21 123.7 215.21C122.69 215.3 121.64 215.35 120.55 215.35C117.25 215.35 113.66 214.94 109.17 214.04C110.4 213.82 111.28 213.54 111.34 213.52C111.57 213.45 111.71 213.22 111.68 212.99C111.65 212.75 111.46 212.57 111.22 212.55C86.72 210.57 74.84 203.74 69.83 199.69C76.11 201.49 82.5 202.58 82.57 202.6C82.6 202.6 82.63 202.6 82.65 202.6C82.79 202.6 82.93 202.54 83.02 202.43C83.13 202.3 83.18 202.12 83.12 201.95L82.87 201.11C82.84 201.02 82.79 200.95 82.73 200.89C82.35 200.72 81.96 200.54 81.55 200.36C77.54 198.71 73.83 196.96 70.43 195.16C70.36 195.16 70.29 195.14 70.22 195.11C70.16 195.08 63.93 191.98 59.76 189.12C55.6 186.26 49.89 181.32 49.83 181.27C49.73 181.18 49.67 181.06 49.66 180.93C41.55 173.73 37.28 167.35 35.52 164.36C35.45 164.4 35.38 164.43 35.3 164.43C35.16 164.43 35.01 164.37 34.91 164.25C34.86 164.19 34.81 164.12 34.75 164.06C37.58 169.15 49.91 188.19 82.38 201.27L82.63 202.12C82.63 202.12 74.69 200.77 67.76 198.57C73.85 204.48 87.58 211.16 111.16 213.06C111.16 213.06 108.37 213.95 105.71 213.82C112.3 215.34 118.26 216.23 123.71 215.72C123.71 215.72 107.74 218.13 85.93 212.8C64.13 207.48 48.58 195.1 37.34 183.86C37.34 183.86 51.71 197.38 61.59 201.52C61.59 201.52 43.59 191.29 31.25 176.08C18.91 160.87 13.54 149.42 10.25 136.74C10.25 136.74 13.33 154.02 22.97 167.8C22.97 167.8 17.31 160.79 12.58 147.77C9.17003 138.38 8.04003 134.02 7.68003 132.32C7.68003 132.32 7.68003 132.32 7.67003 132.32C8.17003 135.2 9.87003 144.09 12.86 150.43C12.86 150.43 5.57003 139.02 4.68003 111.39C4.68003 111.39 4.06003 130.27 11.02 147.77C12.99 152.71 14.95 156.23 14.95 156.23C14.95 156.23 13.75 153.16 13.59 152.65C15.27 156.2 17.74 161.78 23.7 170.84C29.66 179.9 45.88 197.78 64.2 206.02C64.2 206.02 59.28 204.43 52.31 199.83C45.34 195.23 30.88 182.31 27.44 176.8C27.44 176.8 32.03 185.38 49.18 198.39C66.34 211.4 85.05 217.49 107.49 219.39C129.93 221.29 146.02 215.59 157.31 211.91C168.59 208.23 179.49 200.76 179.49 200.76C179.49 200.76 174.8 204.82 164.09 209.89C153.38 214.96 135.13 221.89 113.07 221.89C113.07 221.89 123.97 222.14 132.25 220.96C140.53 219.78 154.2 215.97 156.86 215.34C159.52 214.71 161.68 214.14 161.74 214.45C161.8 214.77 159.2 217.55 144.82 221.29C130.52 225.01 124 224.52 123.79 225.08C121.24 225.26 118.67 225.36 116.08 225.37C86.87 225.49 59.57 215.17 39.2 197.74C35.77 194.8 32.53 191.66 29.5 188.34C28.67 187.33 22.63 179.8 14.2 165.35C5.12003 149.77 2.35003 131.04 2.35003 131.04L1.91003 130.78C1.02003 125.12 0.540027 119.32 0.510027 113.42C0.490027 107.71 0.900027 102.09 1.72003 96.61C1.92003 95.57 4.36003 83.29 9.30003 72.06C14.45 60.31 25.41 41.44 41.96 28.37C58.51 15.3 69.24 10.12 78.76 6.91C83.6 5.28 89.57 3.65 94.27 2.44C101.03 1.2 108 0.53 115.13 0.5C115.3 0.5 115.47 0.5 115.64 0.5C161.71 0.5 201.49 26.97 219.86 65.24C218.86 63.36 209.04 45.18 199.35 37.42C199.35 37.42 200.76 40.01 200.82 40.17C200.82 40.17 193.94 33.87 190.06 30.92C190.06 30.92 203.77 44.67 209.41 54.31C215.05 63.94 216.09 67.43 216.13 68.4C216.17 69.37 215.79 69.08 215.2 68.4C214.61 67.72 200.62 42.16 183.38 30.16C183.38 30.16 200.41 45.88 207.63 59.63C212.41 68.73 213.72 73.17 214.06 75.13C199.69 38 162.1 11.6 118.09 11.79C108.06 11.83 98.37 13.26 89.23 15.87C87.11 15.86 83.4 16.51 79.6 18.43C77.61 19.44 76.02 20.4 74.72 21.2C73.42 21.79 72.13 22.41 70.86 23.05H70.85C69.58 22.91 68.57 23.76 66.8 24.64C65.55 25.27 65.11 25.84 64.81 26.36C50.38 34.9 39.02 47.13 30.61 61.21C27.97 65.63 25.05 69.91 23.15 74.72C22.58 76.16 22.05 77.62 21.55 79.09C21.57 79.53 21.55 80.06 21.48 80.73C21.16 83.58 20.36 83.81 19.01 92.1C17.66 100.38 17.36 109.47 17.36 109.47L16.72 109.74C16.74 111.17 16.79 112.59 16.87 114.01C17.03 115.05 17.21 116.1 17.35 116.93C17.76 119.23 19.18 129.51 19.82 132.49C20.58 135.36 21.49 138.17 22.51 140.93C21.06 136.41 19.75 130.08 19.69 129.76C19.66 129.62 19.69 129.48 19.77 129.38C19.41 127.19 19 124.41 18.64 122C18.3 119.7 18 117.71 17.84 116.84C17.69 116.02 17.52 114.97 17.36 113.98C17.28 112.6 17.23 111.32 17.21 110.07L17.54 109.93C17.72 109.85 17.84 109.68 17.84 109.49C17.84 109.4 18.15 100.34 19.48 92.19C20.27 87.34 20.87 85.3 21.3 83.81C21.6 82.77 21.82 82.01 21.96 80.8C22.03 80.21 22.05 79.68 22.04 79.18C22.52 77.75 23.05 76.32 23.6 74.92C25.07 71.18 27.22 67.69 29.3 64.31C29.88 63.37 30.46 62.43 31.02 61.48C39.93 46.57 51.38 34.9 65.05 26.8C65.12 26.76 65.18 26.69 65.23 26.62C65.48 26.19 65.84 25.68 67.01 25.1C67.47 24.87 67.87 24.65 68.25 24.44C69.19 23.92 69.86 23.55 70.57 23.55C70.64 23.55 70.86 23.56 70.86 23.56C70.94 23.56 71.01 23.54 71.08 23.51C72.35 22.87 73.64 22.25 74.97 21.64C76.38 20.78 77.91 19.86 79.81 18.89C83.47 17.04 87.03 16.38 89.21 16.38C89.21 16.38 89.3 16.38 89.35 16.36C98.65 13.71 108.31 12.34 118.08 12.3H118.54C160.79 12.3 198.99 37.63 213.58 75.32C213.66 75.52 213.85 75.64 214.05 75.64C214.09 75.64 214.14 75.64 214.18 75.62C214.43 75.55 214.58 75.31 214.54 75.05C214.15 72.8 212.71 68.26 208.06 59.4C204.14 51.94 197.3 43.85 191.86 38.02C198 44.11 205.55 53.37 213.98 67.41C214.54 68.34 214.71 68.62 214.8 68.73C215.26 69.26 215.56 69.52 215.92 69.52C216.09 69.52 216.26 69.45 216.38 69.32C216.61 69.08 216.62 68.71 216.61 68.37C216.57 67.48 215.83 64.31 209.82 54.05C206.6 48.56 200.73 41.68 196.28 36.79C198.58 38.82 200.43 40.5 200.47 40.54C200.57 40.63 200.69 40.67 200.81 40.67C200.91 40.67 201.01 40.64 201.09 40.58C201.28 40.45 201.36 40.2 201.27 39.98C201.25 39.94 201.18 39.8 201.08 39.61C209.96 47.99 218.4 63.6 219.4 65.48C219.49 65.65 219.66 65.75 219.84 65.75C219.92 65.75 219.99 65.73 220.06 65.7C220.3 65.58 220.4 65.28 220.29 65.04L220.31 65.02ZM13.59 152.16C13.59 152.16 13.51 152.16 13.47 152.18C13.29 151.79 13.1 151.38 12.9 150.94C12.97 150.94 13.04 150.92 13.1 150.88C13.14 150.86 13.17 150.83 13.2 150.8C13.39 151.27 13.58 151.74 13.77 152.19C13.71 152.17 13.65 152.16 13.59 152.16V152.16Z" fill="#595A5A"></path>
<path d="M179.97 200.85C179.86 200.93 179.78 201 179.77 201C179.66 201.08 179.6 201.2 179.58 201.33C179.7 201.23 179.79 201.16 179.81 201.14C179.9 201.06 179.95 200.96 179.97 200.85V200.85Z" fill="#595A5A"></path>
<path d="M82.57 200.81C82.22 200.67 81.89 200.52 81.54 200.38C81.95 200.57 82.34 200.74 82.72 200.91C82.68 200.87 82.63 200.83 82.57 200.81Z" fill="#595A5A"></path>
<path d="M59.75 189.13C63.91 191.99 70.14 195.09 70.21 195.12C70.28 195.15 70.35 195.17 70.42 195.17C61.68 190.55 54.87 185.57 49.65 180.94C49.65 181.07 49.72 181.19 49.82 181.28C49.88 181.33 55.59 186.27 59.75 189.13V189.13Z" fill="#595A5A"></path>
<path d="M7.67002 132.33C7.67002 132.33 7.67002 132.33 7.68002 132.33C7.64002 132.14 7.61002 131.97 7.58002 131.84C7.60002 131.98 7.63002 132.14 7.66002 132.33H7.67002Z" fill="#595A5A"></path>
<path d="M7.59002 131.84C7.54002 131.55 7.52002 131.39 7.52002 131.39C7.52002 131.39 7.54002 131.53 7.59002 131.84Z" fill="#595A5A"></path>
<path d="M63.79 16.01C65.31 15.38 71.74 12.21 71.74 12.21C67.56 13.38 63.79 16.01 63.79 16.01V16.01Z" fill="#595A5A"></path>
<path d="M63.79 16.5102C63.85 16.5102 63.92 16.5002 63.98 16.4702C65.5 15.8402 71.7 12.7802 71.96 12.6502C72.19 12.5302 72.3 12.2602 72.21 12.0202C72.13 11.8202 71.95 11.7002 71.74 11.7002C71.7 11.7002 71.65 11.7002 71.6 11.7202C67.38 12.9002 63.65 15.4902 63.5 15.6002C63.29 15.7502 63.22 16.0302 63.35 16.2502C63.44 16.4102 63.61 16.5102 63.79 16.5102V16.5102ZM71.74 12.2102C71.74 12.2102 65.31 15.3802 63.79 16.0102C63.79 16.0102 67.56 13.3802 71.74 12.2102Z" fill="#595A5A"></path>
<path d="M25.66 146.64C22.72 139.82 20.19 129.66 20.19 129.66C20.19 129.66 21.53 136.23 23.01 140.81C25.59 147.75 29 154.36 33.2 160.58C31 156.97 27.61 151.16 25.66 146.64V146.64Z" fill="#595A5A"></path>
<path d="M35.3 163.94C35.3 163.94 35.21 163.8 35.05 163.55C35.09 163.63 35.1501 163.72 35.2001 163.81C35.2301 163.85 35.27 163.89 35.3 163.93V163.94Z" fill="#595A5A"></path>
<path d="M23.01 140.81C21.53 136.23 20.19 129.66 20.19 129.66C20.19 129.66 22.72 139.83 25.66 146.64C27.61 151.16 31 156.97 33.2 160.58C33.63 161.21 34.04 161.85 34.49 162.48C34.52 162.52 34.54 162.56 34.56 162.61C34.62 162.73 34.78 163.06 35.06 163.56C35.22 163.81 35.31 163.95 35.31 163.95C35.28 163.91 35.24 163.87 35.21 163.83C35.3 164 35.41 164.18 35.53 164.38C35.56 164.37 35.58 164.38 35.61 164.35C35.82 164.19 35.88 163.9 35.73 163.68C35.66 163.58 29.13 153.39 26.13 146.45C23.24 139.75 20.71 129.64 20.68 129.54C20.62 129.31 20.42 129.16 20.2 129.16C20.16 129.16 20.13 129.16 20.09 129.17C19.96 129.2 19.86 129.27 19.79 129.37C20 130.63 20.18 131.7 20.33 132.37C21.09 135.23 22 138.04 23.02 140.8L23.01 140.81Z" fill="#595A5A"></path>
<path d="M24.23 145.18C26.89 151.39 30.19 157.28 34.08 162.76C34.08 162.76 34.3 163.23 34.76 164.06C34.81 164.12 34.87 164.19 34.92 164.25C35.02 164.37 35.16 164.43 35.31 164.43C35.39 164.43 35.46 164.39 35.53 164.36C35.41 164.16 35.31 163.98 35.21 163.81C30.9 158.56 25.14 147 24.25 145.18H24.23Z" fill="#595A5A"></path>
<path d="M22.52 140.92C23.02 142.26 23.54 143.58 24.1 144.89L23.88 143.21C23.59 142.53 23.3 141.7 23.01 140.8C21.98 138.04 21.08 135.22 20.32 132.37C20.18 131.69 19.99 130.63 19.78 129.37C19.7 129.48 19.67 129.62 19.7 129.75C19.77 130.07 21.07 136.4 22.52 140.92V140.92Z" fill="#595A5A"></path>
<path d="M34.08 162.76C30.19 157.28 26.89 151.39 24.23 145.18C24.15 145.02 24.11 144.93 24.11 144.93V144.89C23.55 143.58 23.02 142.25 22.53 140.92C22.82 141.82 23.11 142.65 23.41 143.35L23.62 145C23.62 145.05 23.64 145.11 23.67 145.16C23.93 145.7 30.11 158.36 34.77 164.08C34.31 163.25 34.09 162.78 34.09 162.78L34.08 162.76Z" fill="#595A5A"></path>
<path d="M24.23 145.18C24.19 145.08 24.14 144.99 24.1 144.89V144.93C24.1 144.93 24.15 145.02 24.23 145.18Z" fill="#595A5A"></path>
<path d="M34.55 162.6C34.55 162.6 34.51 162.51 34.48 162.47C34.04 161.84 33.62 161.2 33.19 160.57C34.04 161.96 34.7 163.02 35.04 163.55C34.76 163.05 34.6 162.71 34.54 162.6H34.55Z" fill="#595A5A"></path>
<path d="M35.2 163.82C35.15 163.73 35.1 163.64 35.05 163.56C34.71 163.03 34.05 161.97 33.2 160.58C29.01 154.36 25.59 147.75 23.01 140.81C23.3 141.71 23.59 142.54 23.88 143.22L24.1 144.9C24.14 145 24.19 145.09 24.23 145.19C25.13 147.02 30.89 158.57 35.19 163.82H35.2Z" fill="#595A5A"></path>
<path d="M108.16 100.08H93.98V129.66C93.98 131.92 92.85 133.05 90.67 133.05C88.49 133.05 87.36 132.96 86.84 132.7C85.62 132.35 85.01 131.31 85.01 129.66V100.08H81.88C79.53 100.08 78.4 98.86 78.4 96.43C78.4 94 79.53 92.69 81.88 92.69H85.01V84.6C85.01 82.43 86.14 81.29 88.32 81.29C90.5 81.29 91.71 81.38 92.23 81.55C93.36 81.98 93.97 82.94 93.97 84.59V92.68H108.15C110.41 92.68 111.54 94.07 111.54 96.77C111.54 99.03 110.41 100.08 108.15 100.08" fill="black"></path>
<path d="M126.34 88.4302C125.21 89.2102 123.9 89.5602 122.34 89.5602C120.69 89.5602 119.38 89.2102 118.34 88.4302C117.12 87.5602 116.51 86.4302 116.51 85.0402C116.51 83.5602 117.12 82.4302 118.25 81.5602C119.38 80.7802 120.69 80.4302 122.34 80.4302C123.91 80.4302 125.21 80.7802 126.34 81.5602C127.56 82.4302 128.17 83.5602 128.17 85.0402C128.17 86.4302 127.56 87.5602 126.34 88.4302M123.56 133.06C121.47 133.06 120.25 132.97 119.73 132.68C118.6 132.3 117.99 131.16 117.99 129.37V95.8502C117.99 93.4802 119.12 92.2502 121.3 92.2502C123.48 92.2502 124.61 92.3502 125.13 92.5302C126.35 93.0002 126.87 94.1402 126.87 95.8402V129.36C126.87 131.82 125.83 133.05 123.56 133.05" fill="black"></path>
<path d="M183.68 130.44C179.5 132.18 174.98 133.05 170.02 133.05H156.27C142.26 133.05 135.13 129.22 134.87 121.57C134.7 117.22 134.78 111.83 134.96 105.3C135.31 96.8604 142.36 92.6804 156.19 92.6804H182.99V84.6703C182.99 82.5003 184.03 81.3604 186.3 81.3604C188.3 81.3604 189.61 81.4504 190.13 81.6204C191.35 81.9704 191.96 83.0104 191.96 84.6604V120.51C191.96 124.86 189.18 128.17 183.7 130.43M183 100.15H156.03C147.94 100.15 143.94 101.89 143.94 105.46V119.9C143.94 122.51 145.51 124.25 148.46 125.03C149.85 125.38 152.38 125.46 156.2 125.46H169.08C178.3 125.46 183 123.81 183 120.33V100.15Z" fill="black"></path>
<path d="M251.71 117.04H207.08C206.82 122.69 211.34 125.57 220.83 125.57H223.27C224.31 125.57 225.01 125.48 225.45 125.48C227.62 125.48 228.76 126.87 228.76 129.66C228.76 131.92 227.63 133.05 225.45 133.05C219.62 133.05 215.71 132.96 213.79 132.7C208.83 132.26 205.18 131.13 202.83 129.22C199.52 126.61 197.87 123.65 197.87 120.17V105.21C197.87 100.51 200.48 97.03 205.61 94.77C209.35 93.12 213.96 92.25 219.36 92.25H236.07C240.59 92.25 244.42 93.03 247.73 94.6C252.08 96.6 254.17 99.56 254.17 103.56V113.39C254.17 115.83 253.39 117.04 251.73 117.04M245.47 104.25C245.47 101.21 239.38 99.73 227.2 99.73C225.72 99.73 224.16 99.73 222.5 99.82C220.93 99.82 220.24 99.91 220.41 99.91C211.36 99.91 206.84 101.48 206.84 104.61V109.31H245.47V104.26V104.25Z" fill="black"></path>
<path d="M321.31 129.4C320.35 131.31 318.53 132.27 315.91 132.27C313.29 132.27 311.56 131.31 310.6 129.49L297.37 104.7L283.88 129.58C282.92 131.41 281.1 132.36 278.4 132.36C275.7 132.36 273.88 131.4 272.83 129.4L256.56 97.1202C256.21 96.3402 256.04 95.6402 256.04 95.0302C256.04 93.1202 257.43 92.1602 260.22 92.1602C262.66 92.1602 264.31 92.7702 265.01 94.1602L278.76 120.7L292.16 95.9902C293.29 93.9902 294.94 92.9402 297.38 92.9402C299.82 92.9402 301.38 93.9902 302.43 95.9002L315.91 120.7L329.57 94.1602C330.27 92.8502 331.83 92.1602 334.36 92.1602C337.14 92.1602 338.54 93.1202 338.54 95.0302C338.54 95.6402 338.37 96.3402 337.93 97.1202L321.31 129.4V129.4Z" fill="black"></path>
<path d="M385.95 133.05H364.02C359.58 133.05 355.58 132.18 351.84 130.35C347.23 128.18 344.88 125.13 344.88 121.22V116.09C344.88 111.83 347.06 108.61 351.49 106.52C354.88 104.87 358.97 104 363.67 104H395.34C394.9 101.21 390.9 99.7401 383.25 99.7401C382.38 99.7401 381.42 99.7401 380.2 99.8301C378.98 99.8301 378.29 99.9201 378.03 99.9201C375.85 99.9201 374.72 98.7901 374.72 96.5301V95.6601C374.72 93.4801 375.85 92.3501 378.03 92.3501C385.6 92.3501 390.99 92.7801 394.47 93.7401C401 95.5701 404.3 99.3101 404.3 104.88V120.8C404.3 128.98 398.12 133.07 385.94 133.07M363.49 111.58C361.66 111.58 359.75 111.93 357.75 112.62C355.14 113.49 353.83 114.62 353.83 116.01V121.14C353.83 122.62 355.13 123.75 357.83 124.62C359.83 125.23 361.83 125.49 363.75 125.49H386.02C389.94 125.49 392.63 124.97 393.85 123.92C394.89 123.05 395.42 121.31 395.42 118.7C395.42 118.09 395.42 117.05 395.33 115.48V111.56H363.49V111.58Z" fill="black"></path>
<path d="M436.76 100.08H422.58V129.66C422.58 131.92 421.45 133.05 419.27 133.05C417.09 133.05 415.96 132.96 415.44 132.7C414.22 132.35 413.61 131.31 413.61 129.66V100.08H410.48C408.13 100.08 407 98.86 407 96.43C407 94 408.13 92.69 410.48 92.69H413.61V84.6C413.61 82.43 414.74 81.29 416.92 81.29C419.1 81.29 420.31 81.38 420.83 81.55C421.96 81.98 422.57 82.94 422.57 84.59V92.68H436.75C439.01 92.68 440.14 94.07 440.14 96.77C440.14 99.03 439.01 100.08 436.75 100.08" fill="black"></path>
<path d="M499.92 117.04H455.29C455.03 122.69 459.55 125.57 469.04 125.57H471.48C472.52 125.57 473.22 125.48 473.65 125.48C475.83 125.48 476.96 126.87 476.96 129.66C476.96 131.92 475.83 133.05 473.65 133.05C467.82 133.05 463.91 132.96 461.99 132.7C457.03 132.26 453.38 131.13 451.03 129.22C447.72 126.61 446.07 123.65 446.07 120.17V105.21C446.07 100.51 448.68 97.03 453.81 94.77C457.55 93.12 462.16 92.25 467.56 92.25H484.27C488.79 92.25 492.62 93.03 495.93 94.6C500.28 96.6 502.37 99.56 502.37 103.56V113.39C502.37 115.83 501.59 117.04 499.94 117.04M493.68 104.25C493.68 101.21 487.59 99.73 475.41 99.73C473.93 99.73 472.37 99.73 470.71 99.82C469.14 99.82 468.45 99.91 468.62 99.91C459.57 99.91 455.05 101.48 455.05 104.61V109.31H493.68V104.26V104.25Z" fill="black"></path>
<path d="M531.76 99.9001C531.5 99.9001 530.89 99.8101 530.02 99.8101H527.93C521.06 99.8101 517.58 101.46 517.58 104.94V129.65C517.58 131.39 516.97 132.35 515.75 132.78C515.23 132.95 513.92 133.04 511.84 133.04C509.58 133.04 508.45 131.91 508.45 129.65L508.62 104.94C508.62 96.5001 516.28 92.3301 531.76 92.3301C533.93 92.3301 535.07 93.7201 535.07 96.5101C535.07 98.7701 533.94 99.9001 531.76 99.9001" fill="black"></path>
<path d="M242.04 167.99C239.69 167.99 237.76 167.43 236.16 166.26C233.86 164.56 232.55 161.92 232.55 159.01C232.55 156.89 233.22 155.02 234.53 153.45C237.06 150.41 240.64 150.08 242.06 150.08C243.24 150.08 246.24 150.32 248.64 152.5C249.41 153.2 249.87 153.88 250.39 154.7L250.53 154.92C250.6 155.04 250.63 155.18 250.59 155.31C250.55 155.44 250.47 155.56 250.35 155.63L248.58 156.6C248.5 156.64 248.42 156.66 248.34 156.66C248.17 156.66 248 156.57 247.91 156.42L247.74 156.13C247.58 155.85 247.2 155.21 246.69 154.7C245.16 153.13 242.96 152.96 242.09 152.96C241.22 152.96 238.99 153.14 237.35 154.82C235.86 156.35 235.69 158.33 235.69 159.11C235.69 160.05 235.91 161.86 237.4 163.33C238.95 164.88 241.02 165.12 242.11 165.12C244.19 165.12 245.96 164.36 247.23 162.93C247.53 162.59 247.7 162.39 248.16 161.63L248.28 161.44C248.37 161.29 248.54 161.2 248.71 161.2C248.78 161.2 248.86 161.22 248.92 161.25L250.71 162.1C250.84 162.16 250.93 162.27 250.97 162.4C251.01 162.54 250.99 162.68 250.92 162.8L250.74 163.1C250.34 163.79 249.66 164.94 248.14 166.07C247.49 166.54 245.54 167.98 242.02 167.98" fill="#595A5A"></path>
<path d="M279.42 168.02C277.56 168.02 272.98 167.57 270.67 163.43C269.93 162.11 269.56 160.64 269.56 159.06C269.56 157.83 269.8 156.65 270.26 155.57C271.67 152.18 275.2 150.08 279.46 150.08C281.29 150.08 285.63 150.49 288.04 154.32C289.23 156.21 289.41 158.09 289.41 159.03C289.41 159.97 289.22 162.42 287.46 164.55C284.95 167.56 281.35 168.01 279.42 168.01M279.07 152.92C278.35 152.94 276.53 153.12 275.06 154.2C274.34 154.73 272.68 156.25 272.68 159.12C272.68 159.5 272.72 160.49 273.13 161.5C274.49 164.92 278.35 165.19 279.5 165.19C281.24 165.19 282.78 164.73 283.96 163.84C285.82 162.44 286.21 160.4 286.21 158.94V158.84C286.21 158.5 286.21 158.08 286.06 157.45C285.85 156.52 285.21 154.83 283.37 153.84C282.72 153.49 281.33 152.91 279.43 152.91C279.31 152.91 279.19 152.91 279.07 152.91" fill="#595A5A"></path>
<path d="M325.57 167.6C325.29 167.6 325.07 167.38 325.07 167.1V156.49L320.1 167.31C320.02 167.49 319.84 167.6 319.65 167.6H317.79C317.6 167.6 317.42 167.49 317.34 167.31L312.32 156.6V167.09C312.32 167.37 312.1 167.59 311.82 167.59H309.91C309.63 167.59 309.41 167.37 309.41 167.09V151.06C309.41 150.78 309.63 150.56 309.91 150.56H312.3C312.49 150.56 312.67 150.67 312.75 150.85C312.75 150.85 318.75 163.65 318.77 163.69L324.66 150.85C324.74 150.67 324.92 150.56 325.11 150.56H327.46C327.74 150.56 327.96 150.78 327.96 151.06V167.09C327.96 167.37 327.74 167.59 327.46 167.59H325.57V167.6Z" fill="#595A5A"></path>
<path d="M349.33 167.6C349.05 167.6 348.83 167.38 348.83 167.1V151.07C348.83 150.79 349.05 150.57 349.33 150.57H359.9C361.39 150.57 362.83 150.65 364.16 151.64C364.58 151.98 364.92 152.36 365.06 152.57C365.33 152.92 366 153.97 366 155.56C366 156.49 365.75 158.23 364.12 159.48C362.74 160.56 361.03 160.65 359.55 160.65H351.87V167.1C351.87 167.38 351.65 167.6 351.37 167.6H349.33V167.6ZM359.02 157.87C360.23 157.87 361.49 157.87 362.29 157.11C362.7 156.73 362.89 156.22 362.89 155.56C362.89 155.51 362.89 154.33 362.09 153.78C361.57 153.42 360.9 153.34 360.06 153.34H351.88V157.87H359.03H359.02Z" fill="#595A5A"></path>
<path d="M398.33 167.6C398.14 167.6 397.97 167.49 397.88 167.32L396.02 163.57H386.94L385.1 167.32C385.02 167.49 384.84 167.6 384.65 167.6H382.53C382.36 167.6 382.2 167.51 382.11 167.36C382.02 167.21 382.01 167.03 382.09 166.88L389.99 150.85C390.07 150.68 390.25 150.57 390.44 150.57H392.42C392.61 150.57 392.78 150.68 392.87 150.84L400.96 166.87C401.04 167.02 401.03 167.21 400.94 167.36C400.85 167.51 400.69 167.6 400.51 167.6H398.34H398.33ZM394.65 160.84L391.42 154.39L388.26 160.84H394.65V160.84Z" fill="#595A5A"></path>
<path d="M435.43 167.6C435.3 167.6 435.17 167.55 435.07 167.45L422.97 155.13V167.1C422.97 167.38 422.75 167.6 422.47 167.6H420.58C420.3 167.6 420.08 167.38 420.08 167.1V151.07C420.08 150.79 420.3 150.57 420.58 150.57H422.32C422.46 150.57 422.58 150.62 422.68 150.72L434.78 163.1V151.07C434.78 150.79 435 150.57 435.28 150.57H437.17C437.45 150.57 437.67 150.79 437.67 151.07V167.1C437.67 167.38 437.45 167.6 437.17 167.6H435.43Z" fill="#595A5A"></path>
<path d="M461.03 150.56H459.06C458.784 150.56 458.56 150.784 458.56 151.06V167.09C458.56 167.366 458.784 167.59 459.06 167.59H461.03C461.306 167.59 461.53 167.366 461.53 167.09V151.06C461.53 150.784 461.306 150.56 461.03 150.56Z" fill="#595A5A"></path>
<path d="M482.91 167.6C482.63 167.6 482.41 167.38 482.41 167.1V151.07C482.41 150.79 482.63 150.57 482.91 150.57H498.28C498.56 150.57 498.78 150.79 498.78 151.07V152.85C498.78 153.13 498.56 153.35 498.28 153.35H485.43V157.31H497.27C497.55 157.31 497.77 157.53 497.77 157.81V159.63C497.77 159.91 497.55 160.13 497.27 160.13H485.43V164.81H498.92C499.2 164.81 499.42 165.03 499.42 165.31V167.11C499.42 167.39 499.2 167.61 498.92 167.61H482.91V167.6Z" fill="#595A5A"></path>
<path d="M526.7 167.99C526.27 167.99 525.83 167.97 525.38 167.95C521.78 167.72 519.91 166.46 518.95 165.45C518.33 164.81 517.98 164.15 517.6 163.46L517.39 163.06C517.32 162.93 517.31 162.78 517.36 162.65C517.41 162.52 517.52 162.41 517.65 162.36L519.78 161.55C519.84 161.53 519.9 161.52 519.96 161.52C520.16 161.52 520.35 161.64 520.43 161.84L520.52 162.07C520.69 162.51 521.05 163.42 522.09 164.12C522.79 164.58 524.15 165.14 526.6 165.14C528.27 165.14 529.64 164.83 530.66 164.23C531.52 163.71 531.94 163.08 531.94 162.32C531.94 161.88 531.79 161.52 531.48 161.27C530.74 160.66 528.47 160.37 527.39 160.22L527.09 160.18C526.66 160.12 526.24 160.06 525.82 160.01C525.26 159.94 524.76 159.87 524.27 159.8L523.98 159.76C522.97 159.61 521.83 159.43 520.91 158.96C520.23 158.62 518.65 157.6 518.65 155.41C518.65 153.75 519.62 152.22 521.26 151.3C522.56 150.58 524.54 150.15 526.56 150.15C529.23 150.15 531.55 150.89 533.26 152.3C533.84 152.79 534.21 153.21 534.43 153.49L534.62 153.73C534.71 153.85 534.75 154 534.72 154.14C534.69 154.28 534.6 154.41 534.46 154.48L532.6 155.47C532.53 155.51 532.45 155.53 532.36 155.53C532.21 155.53 532.06 155.46 531.96 155.33L531.83 155.16C531.71 155 531.55 154.79 531.4 154.63C530.07 153.28 527.97 152.99 526.44 152.99C524.91 152.99 523.67 153.27 522.79 153.79C522.4 154.02 522.09 154.32 521.92 154.61C521.9 154.64 521.73 154.95 521.73 155.34C521.73 155.9 522.13 156.14 522.5 156.33C523.07 156.6 523.77 156.7 525.17 156.89L526.73 157.11C529.33 157.47 531.04 157.71 532.28 158.25C534.03 159 535.04 160.46 535.04 162.24C535.04 162.79 534.93 163.87 534.18 164.97C533.4 166.11 531.39 168.01 526.7 168.01" fill="#595A5A"></path>
<path d="M64.61 82.43H59.92V81.29H70.54V82.43H65.85V93.25H64.61V82.43V82.43Z" fill="#231F20"></path>
<path d="M59.67 101.39H60.91V106.45H69.56V101.39H70.8V113.35H69.56V107.59H60.91V113.35H59.67V101.39V101.39Z" fill="#231F20"></path>
<path d="M60.8 121.49H70.32V122.63H62.0401V126.68H70.0101V127.82H62.0401V132.31H70.45V133.45H60.8V121.49V121.49Z" fill="#231F20"></path>
</g>
<defs>
<linearGradient id="paint0_linear_1655_3865" x1="0.500027" y1="112.94" x2="219.86" y2="112.94" gradientUnits="userSpaceOnUse">
<stop stop-color="#717275"></stop>
<stop offset="0.16" stop-color="#717275"></stop>
<stop offset="1" stop-color="#E5E4E5"></stop>
</linearGradient>
<clipPath id="clip0_1655_3865">
<rect width="535.07" height="225.88" fill="white"></rect>
</clipPath>
</defs>
</svg>