<?xml version="1.0" encoding="UTF-8"?>
<svg id="Layer_1" xmlns="http://www.w3.org/2000/svg" width="536" height="226" xmlns:xlink="http://www.w3.org/1999/xlink" version="1.1" viewBox="0 0 536 226">
  <!-- Generator: Adobe Illustrator 30.4.0, SVG Export Plug-In . SVG Version: 2.1.4 Build 226)  -->
  <defs>
    <style>
      .st0 {
        fill: none;
      }

      .st1 {
        fill: url(#linear-gradient2);
      }

      .st2 {
        fill: url(#linear-gradient1);
      }

      .st3 {
        fill: url(#linear-gradient9);
      }

      .st4 {
        fill: url(#linear-gradient3);
      }

      .st5 {
        fill: url(#linear-gradient6);
      }

      .st6 {
        fill: url(#linear-gradient8);
      }

      .st7 {
        fill: url(#linear-gradient7);
      }

      .st8 {
        fill: url(#linear-gradient5);
      }

      .st9 {
        fill: url(#linear-gradient4);
      }

      .st10 {
        fill: url(#linear-gradient12);
      }

      .st11 {
        fill: url(#linear-gradient11);
      }

      .st12 {
        fill: url(#linear-gradient10);
      }

      .st13 {
        fill: #231f20;
      }

      .st14 {
        fill: url(#linear-gradient);
      }

      .st15 {
        clip-path: url(#clippath-11);
      }

      .st16 {
        clip-path: url(#clippath-10);
      }

      .st17 {
        clip-path: url(#clippath-13);
      }

      .st18 {
        clip-path: url(#clippath-14);
      }

      .st19 {
        clip-path: url(#clippath-12);
      }

      .st20 {
        clip-path: url(#clippath-1);
      }

      .st21 {
        clip-path: url(#clippath-3);
      }

      .st22 {
        clip-path: url(#clippath-4);
      }

      .st23 {
        clip-path: url(#clippath-2);
      }

      .st24 {
        clip-path: url(#clippath-7);
      }

      .st25 {
        clip-path: url(#clippath-6);
      }

      .st26 {
        clip-path: url(#clippath-9);
      }

      .st27 {
        clip-path: url(#clippath-8);
      }

      .st28 {
        clip-path: url(#clippath-5);
      }

      .st29 {
        fill: #f9ae1c;
      }

      .st30 {
        clip-path: url(#clippath);
      }
    </style>
    <clipPath id="clippath">
      <rect class="st0" width="535.1" height="225.9"/>
    </clipPath>
    <clipPath id="clippath-1">
      <path class="st0" d="M189.8,183.3c-10.2,10.5-22.6,17-22.6,17,25.1-10.3,42.2-42.8,42.2-42.8,0,0-9.1,15-19.6,25.9"/>
    </clipPath>
    <linearGradient id="linear-gradient" x1="-38" y1="285" x2="-37" y2="285" gradientTransform="translate(-52397.4057 6979.6422) rotate(90) scale(184.5035 -184.5035)" gradientUnits="userSpaceOnUse">
      <stop offset="0" stop-color="#f16723"/>
      <stop offset=".2" stop-color="#f16723"/>
      <stop offset="1" stop-color="#fbae1a"/>
    </linearGradient>
    <clipPath id="clippath-2">
      <path class="st0" d="M120.8,217.6s10.9.3,24.8-4.2c13.9-4.5,19.6-8,19.6-8,0,0-23.5,11.6-44.5,12.3"/>
    </clipPath>
    <linearGradient id="linear-gradient1" x1="-38" y1="285" x2="-37" y2="285" gradientTransform="translate(-52442.5605 7043.3948) rotate(90) scale(184.5035 -184.5035)" xlink:href="#linear-gradient"/>
    <clipPath id="clippath-3">
      <path class="st0" d="M119.5,205v.6c5.5-.3,9.1-1.7,9.1-1.7-3.2,1.1-9.1,1.1-9.1,1.1"/>
    </clipPath>
    <linearGradient id="linear-gradient2" x1="-38" y1="285" x2="-37" y2="285" gradientTransform="translate(-52461.7178 7056.7526) rotate(90) scale(184.5035 -184.5035)" xlink:href="#linear-gradient"/>
    <clipPath id="clippath-4">
      <path class="st0" d="M148.9,198.6c4.2-1,6.4-2.9,6.4-2.9-2.2,1.1-6.4,2.9-6.4,2.9"/>
    </clipPath>
    <linearGradient id="linear-gradient3" x1="-38" y1="285" x2="-37" y2="285" gradientTransform="translate(-52433.6131 7025.4567) rotate(90) scale(184.5035 -184.5035)" xlink:href="#linear-gradient"/>
    <clipPath id="clippath-5">
      <path class="st0" d="M186.5,172.7l.5-.3s5-5,6.4-7.9c-1.4,2.1-6.9,8.1-6.9,8.1"/>
    </clipPath>
    <linearGradient id="linear-gradient4" x1="-38" y1="285" x2="-37" y2="285" gradientTransform="translate(-52395.7227 6971.4415) rotate(90) scale(184.5035 -184.5035)" xlink:href="#linear-gradient"/>
    <clipPath id="clippath-6">
      <path class="st0" d="M221,145.6c-4.2,12.5-7.2,17.4-12.3,25.3-5.1,7.9-11.5,15-16.7,20-5.2,5.1-12.3,10.5-12.3,10.5,13.7-6.3,36.7-37.9,42.1-54,5.5-16.1,6.2-28.9,5.7-34.5-.1.9-2.3,20.1-6.5,32.6"/>
    </clipPath>
    <linearGradient id="linear-gradient5" x1="-38" y1="285" x2="-37" y2="285" gradientTransform="translate(-52381.9233 6950.9526) rotate(90) scale(184.5035 -184.5035)" xlink:href="#linear-gradient"/>
    <clipPath id="clippath-7">
      <path class="st0" d="M95.2,203.2s-.1,0-.4,0c.1,0,.2,0,.4,0M86.6,202.2c.5,0,6.6.7,8.2.9-8.6-1.1-21-6.7-21-6.7,0,0,12.3,5.8,12.8,5.8"/>
    </clipPath>
    <linearGradient id="linear-gradient6" x1="-38" y1="285" x2="-37" y2="285" gradientTransform="translate(-52501.7563 7090.5946) rotate(90) scale(184.5035 -184.5035)" xlink:href="#linear-gradient"/>
    <clipPath id="clippath-8">
      <path class="st0" d="M59.7,188.8c4.2,2.9,10.4,6,10.4,6,0,0-10.9-6-20.3-13.8,0,0,5.7,4.9,9.9,7.8"/>
    </clipPath>
    <linearGradient id="linear-gradient7" x1="-38" y1="285" x2="-37" y2="285" gradientTransform="translate(-52525.7941 7105.7828) rotate(90) scale(184.5035 -184.5035)" xlink:href="#linear-gradient"/>
    <clipPath id="clippath-9">
      <path class="st0" d="M7.2,131.9c0-.3,0-.5,0-.5,0,0,0,.1,0,.5"/>
    </clipPath>
    <linearGradient id="linear-gradient8" x1="-38" y1="285" x2="-37" y2="285" gradientTransform="translate(-52578.4929 7118.9206) rotate(89.9997) scale(184.5035 -184.5035)" xlink:href="#linear-gradient"/>
    <clipPath id="clippath-10">
      <path class="st0" d="M63.4,16.1c1.5-.6,8-3.8,8-3.8-4.2,1.2-8,3.8-8,3.8"/>
    </clipPath>
    <linearGradient id="linear-gradient9" x1="-38" y1="285" x2="-37" y2="285" gradientTransform="translate(-52518.3311 6985.6301) rotate(90.0001) scale(184.5035 -184.5035)" xlink:href="#linear-gradient"/>
    <clipPath id="clippath-11">
      <path class="st0" d="M75.2,216.2c-21-7.8-29.9-16.1-35.2-20.5-5.4-4.4-5.8-5.5-8.1-7.6-2.3-2.1-9.9-9.2-13.8-17.1,0,0,7,9.9,13.9,16.9,6.9,7,20.8,18.5,39.8,25.8,19,7.4,31.6,7.4,31.6,7.4,0,0-3.2.3-5.3,0,0,0,8.4,1.3,11.8,1.5,0,0-1,.1-2.8.1-5,0-16.5-.8-31.8-6.5M6.9,110.6c0-25.1,7.2-36.2,7.2-36.2,0,0-4.2,10.3-5.4,20.5.4-2.7,1.2-4.2,1.2-4.2,0,0-1.7,3.9-2,17.7-.3,13.8,1.2,26,9.7,47.3,0,0-10.7-20.1-10.7-45.2M29.4,45.3c11.2-13.9,21.3-23.6,31.8-27.7,0,0-8.5,4.4-17.7,13.1-9.1,8.6-16.7,16.4-29.2,41.6,0,0,3.8-13,15-27M71.4,12.3s-6.4,3.2-8,3.8c0,0,3.8-2.6,8-3.8M114.8.6c-7.1,0-14.1.7-20.9,1.9-4.7,1.2-10.7,2.8-15.5,4.5-9.5,3.2-20.2,8.4-36.8,21.5-16.6,13.1-27.5,31.9-32.7,43.7-4.9,11.2-7.4,23.5-7.6,24.6-.8,5.5-1.2,11.1-1.2,16.8,0,5.9.5,11.7,1.4,17.4l.4.3s2.8,18.7,11.9,34.3c8.4,14.5,14.5,22,15.3,23,3,3.3,6.3,6.5,9.7,9.4,20.4,17.4,47.7,27.7,76.9,27.6,2.6,0,5.2-.1,7.7-.3.2-.6,6.7,0,21-3.8,14.4-3.7,17-6.5,16.9-6.8,0-.3-2.2.3-4.9.9-2.7.6-16.3,4.4-24.6,5.6-8.3,1.2-19.2.9-19.2.9,22.1,0,40.3-6.9,51-12,10.7-5.1,15.4-9.1,15.4-9.1,0,0-10.9,7.5-22.2,11.2-11.3,3.7-27.4,9.4-49.8,7.5-22.4-1.9-41.2-8-58.3-21-17.2-13-21.7-21.6-21.7-21.6,3.4,5.5,17.9,18.4,24.9,23,7,4.6,11.9,6.2,11.9,6.2-18.3-8.2-34.5-26.1-40.5-35.2-6-9.1-8.4-14.6-10.1-18.2.2.5,1.4,3.6,1.4,3.6,0,0-2-3.5-3.9-8.5-7-17.5-6.3-36.4-6.3-36.4.9,27.6,8.2,39,8.2,39-3.2-6.8-4.9-16.4-5.3-18.6,0-.3,0-.5,0-.5,0,0,0,.2,0,.5.2,1.3,1.2,5.5,5,15.9,4.7,13,10.4,20,10.4,20-9.6-13.8-12.7-31.1-12.7-31.1,3.3,12.7,8.7,24.1,21,39.3,12.3,15.2,30.3,25.4,30.3,25.4-9.9-4.1-24.3-17.7-24.3-17.7,11.2,11.2,26.8,23.6,48.6,28.9,21.8,5.3,37.8,2.9,37.8,2.9-5.4.5-11.4-.4-18-1.9,2.7.1,5.5-.8,5.5-.8-23.6-1.9-37.3-8.6-43.4-14.5,6.9,2.2,14.9,3.5,14.9,3.5l-.3-.8c-37.8-15.2-48.3-38.5-48.3-38.5h0c-6.5-9.1-11.3-19.3-14.2-30.3-.6-3-2.1-13.3-2.5-15.6-.1-.8-.3-1.9-.5-2.9,0-1.4-.1-2.8-.2-4.3l.6-.3s.3-9.1,1.6-17.4c1.4-8.3,2.2-8.5,2.5-11.4,0-.7,0-1.2,0-1.6.5-1.5,1-2.9,1.6-4.4,1.9-4.8,4.8-9.1,7.5-13.5,8.4-14.1,19.8-26.3,34.2-34.8.3-.5.7-1.1,2-1.7,1.8-.9,2.8-1.7,4-1.6,0,0,0,0,0,0h0c1.3-.6,2.6-1.3,3.9-1.8,1.3-.8,2.9-1.8,4.9-2.8,3.8-1.9,7.5-2.6,9.6-2.6,9.1-2.6,18.8-4,28.9-4.1,44-.2,81.6,26.2,96,63.3-.3-2-1.7-6.4-6.4-15.5-7.2-13.8-24.3-29.5-24.3-29.5,17.2,12,31.2,37.6,31.8,38.2.6.7,1,1,.9,0,0-1-1.1-4.5-6.7-14.1-5.6-9.6-19.4-23.4-19.4-23.4,3.9,3,10.8,9.3,10.8,9.3,0-.2-1.5-2.7-1.5-2.7,9.7,7.8,19.5,25.9,20.5,27.8C201.1,27,161.3.6,115.3.6s-.3,0-.5,0"/>
    </clipPath>
    <linearGradient id="linear-gradient10" x1="-38" y1="285" x2="-37" y2="285" gradientTransform="translate(-52474.0622 7010.3603) rotate(90) scale(184.5035 -184.5035)" xlink:href="#linear-gradient"/>
    <clipPath id="clippath-12">
      <path class="st0" d="M23.5,143.3l.2,1.7s6.5,13.4,11.2,19c0,0-6.6-10.2-9.6-17.3-2.9-6.8-5.5-17-5.5-17,0,0,1.9,9.4,3.7,13.6"/>
    </clipPath>
    <linearGradient id="linear-gradient11" x1="-38" y1="285" x2="-37" y2="285" gradientTransform="translate(-52558.3378 7109.6041) rotate(90) scale(184.5035 -184.5035)" xlink:href="#linear-gradient"/>
    <clipPath id="clippath-13">
      <path class="st0" d="M23.1,75l.3.6s.9-2.5,1.6-4.4c-.2.3-1.9,3.8-1.9,3.8"/>
    </clipPath>
    <linearGradient id="linear-gradient12" x1="-38" y1="285" x2="-37" y2="285" gradientTransform="translate(-52561.6606 7064.9084) rotate(90) scale(184.5035 -184.5035)" xlink:href="#linear-gradient"/>
    <clipPath id="clippath-14">
      <rect class="st0" x="-34.3" y="-58" width="612" height="342"/>
    </clipPath>
  </defs>
  <g class="st30">
    <g>
      <path class="st13" d="M64.6,82.4h-4.7v-1.1h10.6v1.1h-4.7v10.8h-1.2v-10.8h0Z"/>
      <path class="st13" d="M59.7,101.4h1.2v5.1h8.6v-5.1h1.2v12h-1.2v-5.8h-8.6v5.8h-1.2v-12h0Z"/>
      <path class="st13" d="M60.8,121.5h9.5v1.1h-8.3v4.1h8v1.1h-8v4.5h8.4v1.1h-9.6v-12h0Z"/>
    </g>
  </g>
  <g>
    <g class="st20">
      <rect class="st14" x="160.9" y="151.6" width="54.9" height="54.5" transform="translate(-45.1 292.9) rotate(-69.6)"/>
    </g>
    <g class="st23">
      <rect class="st2" x="129.4" y="188.6" width="27.2" height="46" transform="translate(-105.2 271.8) rotate(-69.6)"/>
    </g>
    <g class="st21">
      <rect class="st1" x="121.6" y="200.2" width="4.8" height="9.1" transform="translate(-111.2 249.5) rotate(-69.6)"/>
    </g>
    <g class="st22">
      <rect class="st4" x="149.7" y="193.7" width="4.9" height="7" transform="translate(-85.7 270.9) rotate(-69.6)"/>
    </g>
    <g class="st28">
      <rect class="st9" x="185" y="164" width="10" height="9.3" transform="translate(-34.4 287.9) rotate(-69.6)"/>
    </g>
    <g class="st25">
      <rect class="st8" x="154" y="119.1" width="99.8" height="76.2" transform="translate(-14.6 293.4) rotate(-69.6)"/>
    </g>
    <g class="st24">
      <rect class="st5" x="77.6" y="188.6" width="13.8" height="22.4" transform="translate(-132.3 209.2) rotate(-69.6)"/>
    </g>
    <g class="st27">
      <rect class="st7" x="49.9" y="175.9" width="20" height="23.8" transform="translate(-137 178.5) rotate(-69.6)"/>
    </g>
    <g class="st26">
      <rect class="st6" x="7" y="131.6" width=".4" height=".2" transform="translate(-118.7 92.5) rotate(-69.6)"/>
    </g>
    <g class="st16">
      <rect class="st3" x="64.2" y="9.8" width="6.3" height="8.8" transform="translate(30.6 72.4) rotate(-69.6)"/>
    </g>
    <g class="st15">
      <rect class="st12" x="-33.9" y="-29" width="287.4" height="284.1" transform="translate(-34.5 176.5) rotate(-69.6)"/>
    </g>
    <g class="st19">
      <rect class="st11" x="8.7" y="133.8" width="37.4" height="26.1" transform="translate(-119.8 121.3) rotate(-69.6)"/>
    </g>
    <g class="st17">
      <rect class="st10" x="21.6" y="71.7" width="4.8" height="3.3" transform="translate(-53.1 70.3) rotate(-69.6)"/>
    </g>
    <g class="st18">
      <path class="st29" d="M249.8,164.9l-5-5.9h-7.2v5.9h-2.1v-14.8h10.1c1.3,0,1.7,0,2.4.2,2,.5,3.1,2.1,3.1,4.1s-.2,2.9-2.4,3.8c-.4.1-.8.3-1.6.4l5.5,6.3h-2.8ZM248.5,153.1c-.6-1.1-1.6-1.2-2.8-1.2h-8.1v5.4h7.3c1.2,0,2.6,0,3.4-1.1.2-.3.5-.8.5-1.6s0-.8-.4-1.4"/>
      <polygon class="st29" points="263.9 164.9 263.9 150.1 277.6 150.1 277.6 151.9 266 151.9 266 156.3 277.3 156.3 277.3 158.1 266 158.1 266 163.1 278.1 163.1 278.1 164.9 263.9 164.9"/>
      <path class="st29" d="M303.4,164.9l-1.8-3.7h-9.1l-1.8,3.7h-2.4l7.7-14.8h2.2l7.6,14.8h-2.4ZM297,152.2l-3.7,7.3h7.3l-3.6-7.3Z"/>
      <polygon class="st29" points="317.2 164.9 317.2 150.1 319.3 150.1 319.3 163.1 329.1 163.1 329.1 164.9 317.2 164.9"/>
      <polygon class="st29" points="344.6 151.9 344.6 164.9 342.5 164.9 342.5 151.9 336.5 151.9 336.5 150.1 350.7 150.1 350.7 151.9 344.6 151.9"/>
      <polygon class="st29" points="370.2 159.2 370.2 164.9 368.1 164.9 368.1 159.1 360.7 150.1 363.4 150.1 369.1 157.4 375 150.1 377.7 150.1 370.2 159.2"/>
      <path class="st29" d="M419.8,164.9v-2c-.3.3-.6.6-1,.9-.8.6-2.8,1.5-5.5,1.5-4,0-6.1-2.1-7-3.3-.5-.7-1.4-2.2-1.4-4.5s.1-2.5,1.2-4.1c.3-.4.6-.8,1-1.2,1-.9,3.2-2.4,6.7-2.4s2.9,0,5,1.2c1.1.5,1.7,1.1,2,1.5.3.4.5.5.9,1.3l-2.1.6c-.1-.2-.4-.6-.8-1-.7-.6-2.3-1.7-4.8-1.7s-1.6,0-2.8.5c-2.4.8-3.9,2.8-3.9,5.4s.5,2.8,1.3,3.9c1.7,2.1,4.6,2.2,5.4,2.2,2.1,0,4.4-.9,5.5-2.7.4-.7.5-1.2.6-1.9h-6.5v-1.8h8.3v7.8h-1.8Z"/>
      <path class="st29" d="M448.7,164.9l-5-5.9h-7.2v5.9h-2.1v-14.8h10.1c1.3,0,1.7,0,2.4.2,2,.5,3.1,2.1,3.1,4.1s-.2,2.9-2.4,3.8c-.4.1-.8.3-1.6.4l5.5,6.3h-2.8ZM447.5,153.1c-.6-1.1-1.6-1.2-2.8-1.2h-8.1v5.4h7.3c1.2,0,2.6,0,3.4-1.1.2-.3.5-.8.5-1.6s0-.8-.4-1.4"/>
      <path class="st29" d="M478.2,162.8c-1,1.1-3.3,2.6-7,2.6s-1.2,0-2.3-.2c-1-.1-4-.7-5.7-3.5-1-1.6-1.1-3.3-1.1-4,0-1.7.4-3.4,1.5-4.7.2-.3.5-.6,1.1-1.1,1-.8,3-2.1,6.4-2.1s2.7,0,4.6.9c1.2.6,2.4,1.5,3.2,2.6,1.2,1.8,1.3,3.7,1.3,4.4s-.1,3.2-1.9,5M477.4,154.9c-1.6-3.4-5.8-3.4-6.7-3.4-.6,0-3.3.2-5,1.9-.3.3-.9.9-1.2,2-.2.7-.3,1.4-.3,2.2s0,2.1,1.1,3.5c.2.3.5.7,1.2,1.1.9.6,2.3,1.3,4.8,1.3s1.4,0,2.5-.3c2.1-.5,3.6-1.9,4.1-4,0-.3.2-.9.2-1.7,0-1.3-.3-2.1-.5-2.6"/>
      <path class="st29" d="M507.3,161.8c-1.2,2.8-4.5,3.5-7.1,3.5s-3.4,0-5.5-1.4c-.9-.6-1.3-1.3-1.5-1.6-.6-1.1-.6-2.2-.6-3.4v-8.7h2.1v8.8c0,.2,0,.8,0,1.4.2,1.4.9,1.8,1.4,2.2.7.5,2,1,4,1s2.8,0,4.2-1.1c.5-.4.8-.9.9-1.1.3-.7.3-1.4.3-2.2v-9.1h2.1v8.9c0,1,0,1.8-.4,2.8"/>
      <path class="st29" d="M534.4,158c-1.3,1-2.7,1-4.2,1h-7.1v5.9h-2.1v-14.8h9.1c.4,0,.8,0,1.1,0,.6,0,2.8.1,4.1,2,.5.7.8,1.6.8,2.5s-.1,2.2-1.6,3.3M533.1,152.9c-.8-1-2.3-1-3.5-1h-6.6v5.4h6.8c1.2,0,2.4,0,3.2-1,.2-.3.5-.8.5-1.7s0-1-.5-1.6"/>
    </g>
  </g>
  <path d="M108.2,100.1h-14.2v29.6c0,2.3-1.1,3.4-3.3,3.4s-3.3,0-3.8-.4c-1.2-.3-1.8-1.4-1.8-3v-29.6h-3.1c-2.3,0-3.5-1.2-3.5-3.7s1.1-3.7,3.5-3.7h3.1v-8.1c0-2.2,1.1-3.3,3.3-3.3s3.4,0,3.9.3c1.1.4,1.7,1.4,1.7,3v8.1h14.2c2.3,0,3.4,1.4,3.4,4.1s-1.1,3.3-3.4,3.3"/>
  <path d="M126.3,88.4c-1.1.8-2.4,1.1-4,1.1s-3-.4-4-1.1c-1.2-.9-1.8-2-1.8-3.4s.6-2.6,1.7-3.5c1.1-.8,2.4-1.1,4.1-1.1s2.9.3,4,1.1c1.2.9,1.8,2,1.8,3.5s-.6,2.5-1.8,3.4M123.6,133.1c-2.1,0-3.3,0-3.8-.4-1.1-.4-1.7-1.5-1.7-3.3v-33.5c0-2.4,1.1-3.6,3.3-3.6s3.3,0,3.8.3c1.2.5,1.7,1.6,1.7,3.3v33.5c0,2.5-1,3.7-3.3,3.7"/>
  <path d="M183.7,130.4c-4.2,1.7-8.7,2.6-13.7,2.6h-13.8c-14,0-21.1-3.8-21.4-11.5-.2-4.3,0-9.7,0-16.3.3-8.4,7.4-12.6,21.2-12.6h26.8v-8c0-2.2,1-3.3,3.3-3.3s3.3,0,3.8.3c1.2.3,1.8,1.4,1.8,3v35.8c0,4.3-2.8,7.7-8.3,9.9M183,100.2h-27c-8.1,0-12.1,1.7-12.1,5.3v14.4c0,2.6,1.6,4.3,4.5,5.1,1.4.3,3.9.4,7.7.4h12.9c9.2,0,13.9-1.7,13.9-5.1v-20.2Z"/>
  <path d="M251.7,117h-44.6c-.3,5.7,4.3,8.5,13.8,8.5h2.4c1,0,1.7,0,2.2,0,2.2,0,3.3,1.4,3.3,4.2s-1.1,3.4-3.3,3.4c-5.8,0-9.7,0-11.7-.4-5-.4-8.6-1.6-11-3.5-3.3-2.6-5-5.6-5-9.1v-15c0-4.7,2.6-8.2,7.7-10.4,3.7-1.6,8.4-2.5,13.8-2.5h16.7c4.5,0,8.3.8,11.7,2.3,4.4,2,6.4,5,6.4,9v9.8c0,2.4-.8,3.7-2.4,3.7M245.5,104.2c0-3-6.1-4.5-18.3-4.5s-3,0-4.7,0c-1.6,0-2.3,0-2.1,0-9.1,0-13.6,1.6-13.6,4.7v4.7h38.6v-5h0Z"/>
  <path d="M321.3,129.4c-1,1.9-2.8,2.9-5.4,2.9s-4.4-1-5.3-2.8l-13.2-24.8-13.5,24.9c-1,1.8-2.8,2.8-5.5,2.8s-4.5-1-5.6-3l-16.3-32.3c-.4-.8-.5-1.5-.5-2.1,0-1.9,1.4-2.9,4.2-2.9s4.1.6,4.8,2l13.8,26.5,13.4-24.7c1.1-2,2.8-3,5.2-3s4,1,5,3l13.5,24.8,13.7-26.5c.7-1.3,2.3-2,4.8-2s4.2,1,4.2,2.9-.2,1.3-.6,2.1l-16.6,32.3h0Z"/>
  <path d="M386,133.1h-21.9c-4.4,0-8.4-.9-12.2-2.7-4.6-2.2-7-5.2-7-9.1v-5.1c0-4.3,2.2-7.5,6.6-9.6,3.4-1.6,7.5-2.5,12.2-2.5h31.7c-.4-2.8-4.4-4.3-12.1-4.3s-1.8,0-3,0c-1.2,0-1.9,0-2.2,0-2.2,0-3.3-1.1-3.3-3.4v-.9c0-2.2,1.1-3.3,3.3-3.3,7.6,0,13,.4,16.4,1.4,6.5,1.8,9.8,5.6,9.8,11.1v15.9c0,8.2-6.2,12.3-18.4,12.3M363.5,111.6c-1.8,0-3.7.3-5.7,1-2.6.9-3.9,2-3.9,3.4v5.1c0,1.5,1.3,2.6,4,3.5,2,.6,4,.9,5.9.9h22.3c3.9,0,6.6-.5,7.8-1.6,1-.9,1.6-2.6,1.6-5.2s0-1.6,0-3.2v-3.9h-31.8Z"/>
  <path d="M436.8,100.1h-14.2v29.6c0,2.3-1.1,3.4-3.3,3.4s-3.3,0-3.8-.4c-1.2-.3-1.8-1.4-1.8-3v-29.6h-3.1c-2.4,0-3.5-1.2-3.5-3.7s1.1-3.7,3.5-3.7h3.1v-8.1c0-2.2,1.1-3.3,3.3-3.3s3.4,0,3.9.3c1.1.4,1.7,1.4,1.7,3v8.1h14.2c2.3,0,3.4,1.4,3.4,4.1s-1.1,3.3-3.4,3.3"/>
  <path d="M499.9,117h-44.6c-.3,5.7,4.3,8.5,13.8,8.5h2.4c1,0,1.7,0,2.2,0,2.2,0,3.3,1.4,3.3,4.2s-1.1,3.4-3.3,3.4c-5.8,0-9.7,0-11.7-.4-5-.4-8.6-1.6-11-3.5-3.3-2.6-5-5.6-5-9.1v-15c0-4.7,2.6-8.2,7.7-10.4,3.7-1.6,8.4-2.5,13.8-2.5h16.7c4.5,0,8.4.8,11.7,2.3,4.4,2,6.4,5,6.4,9v9.8c0,2.4-.8,3.7-2.4,3.7M493.7,104.2c0-3-6.1-4.5-18.3-4.5s-3,0-4.7,0c-1.6,0-2.3,0-2.1,0-9,0-13.6,1.6-13.6,4.7v4.7h38.6v-5h0Z"/>
  <path d="M531.8,99.9c-.3,0-.9,0-1.7,0h-2.1c-6.9,0-10.3,1.6-10.3,5.1v24.7c0,1.7-.6,2.7-1.8,3.1-.5.2-1.8.3-3.9.3s-3.4-1.1-3.4-3.4l.2-24.7c0-8.4,7.7-12.6,23.1-12.6s3.3,1.4,3.3,4.2-1.1,3.4-3.3,3.4"/>
</svg>