<?xml version="1.0" encoding="UTF-8"?>
<svg id="Layer_1" xmlns="http://www.w3.org/2000/svg" width="536" height="226" xmlns:xlink="http://www.w3.org/1999/xlink" version="1.1" viewBox="0 0 536 226">
  <!-- Generator: Adobe Illustrator 30.4.0, SVG Export Plug-In . SVG Version: 2.1.4 Build 226)  -->
  <defs>
    <style>
      .st0 {
        fill: none;
      }

      .st1 {
        fill: url(#linear-gradient2);
      }

      .st2 {
        fill: url(#linear-gradient1);
      }

      .st3 {
        fill: url(#linear-gradient9);
      }

      .st4 {
        fill: url(#linear-gradient3);
      }

      .st5 {
        fill: url(#linear-gradient6);
      }

      .st6 {
        fill: url(#linear-gradient8);
      }

      .st7 {
        fill: url(#linear-gradient7);
      }

      .st8 {
        fill: url(#linear-gradient5);
      }

      .st9 {
        fill: url(#linear-gradient4);
      }

      .st10 {
        fill: url(#linear-gradient11);
      }

      .st11 {
        fill: url(#linear-gradient10);
      }

      .st12 {
        fill: #231f20;
      }

      .st13 {
        fill: url(#linear-gradient);
      }

      .st14 {
        fill: #009849;
      }

      .st15 {
        clip-path: url(#clippath-11);
      }

      .st16 {
        clip-path: url(#clippath-10);
      }

      .st17 {
        clip-path: url(#clippath-13);
      }

      .st18 {
        clip-path: url(#clippath-12);
      }

      .st19 {
        clip-path: url(#clippath-3);
      }

      .st20 {
        clip-path: url(#clippath-4);
      }

      .st21 {
        clip-path: url(#clippath-2);
      }

      .st22 {
        clip-path: url(#clippath-7);
      }

      .st23 {
        clip-path: url(#clippath-6);
      }

      .st24 {
        clip-path: url(#clippath-9);
      }

      .st25 {
        clip-path: url(#clippath-8);
      }

      .st26 {
        clip-path: url(#clippath-5);
      }

      .st27 {
        clip-path: url(#clippath);
      }
    </style>
    <clipPath id="clippath">
      <rect class="st0" width="535.1" height="225.9"/>
    </clipPath>
    <clipPath id="clippath-2">
      <path class="st0" d="M190.7,183.3c-10.2,10.5-22.6,17-22.6,17,25.1-10.3,42.2-42.8,42.2-42.8,0,0-9.1,15-19.6,25.9"/>
    </clipPath>
    <linearGradient id="linear-gradient" x1="-38" y1="285" x2="-37" y2="285" gradientTransform="translate(8094.1965 60100.9594) scale(210.2667 -210.2667)" gradientUnits="userSpaceOnUse">
      <stop offset="0" stop-color="#009849"/>
      <stop offset=".2" stop-color="#009849"/>
      <stop offset="1" stop-color="#a9d6a4"/>
    </linearGradient>
    <clipPath id="clippath-3">
      <path class="st0" d="M121.8,217.6s10.9.3,24.8-4.2c13.9-4.5,19.6-8,19.6-8,0,0-23.5,11.6-44.5,12.3"/>
    </clipPath>
    <linearGradient id="linear-gradient1" x1="-38" y1="285" x2="-37" y2="285" gradientTransform="translate(8096.5515 60133.6535) scale(210.2667 -210.2667)" xlink:href="#linear-gradient"/>
    <clipPath id="clippath-4">
      <path class="st0" d="M120.4,205v.6c5.5-.3,9.1-1.7,9.1-1.7-3.2,1.1-9.1,1.1-9.1,1.1"/>
    </clipPath>
    <linearGradient id="linear-gradient2" x1="-38" y1="285" x2="-37" y2="285" gradientTransform="translate(8078.4872 60126.7366) scale(210.2667 -210.2667)" xlink:href="#linear-gradient"/>
    <clipPath id="clippath-5">
      <path class="st0" d="M149.9,198.6c4.2-1,6.4-2.9,6.4-2.9-2.2,1.1-6.4,2.9-6.4,2.9"/>
    </clipPath>
    <linearGradient id="linear-gradient3" x1="-38" y1="285" x2="-37" y2="285" gradientTransform="translate(8088.7301 60119.2305) scale(210.2667 -210.2667)" xlink:href="#linear-gradient"/>
    <clipPath id="clippath-6">
      <path class="st0" d="M187.5,172.7l.5-.3s5-5,6.4-7.9c-1.4,2.1-6.9,8.1-6.9,8.1"/>
    </clipPath>
    <linearGradient id="linear-gradient4" x1="-38" y1="285" x2="-37" y2="285" gradientTransform="translate(8085.753 60090.7447) scale(210.2667 -210.2667)" xlink:href="#linear-gradient"/>
    <clipPath id="clippath-7">
      <path class="st0" d="M222,145.6c-4.2,12.5-7.2,17.4-12.3,25.3-5.1,7.9-11.5,15-16.7,20-5.2,5.1-12.3,10.5-12.3,10.5,13.7-6.3,36.7-37.9,42.1-54,5.5-16.1,6.2-28.9,5.7-34.5-.1.9-2.3,20.1-6.5,32.6"/>
    </clipPath>
    <linearGradient id="linear-gradient5" x1="-38" y1="285" x2="-37" y2="285" gradientTransform="translate(8083.7858 60083.0796) scale(210.2667 -210.2667)" xlink:href="#linear-gradient"/>
    <clipPath id="clippath-8">
      <path class="st0" d="M96.1,203.2s-.1,0-.4,0c.1,0,.2,0,.4,0M87.6,202.2c.5,0,6.6.7,8.2.9-8.6-1.1-21-6.7-21-6.7,0,0,12.3,5.8,12.8,5.8"/>
    </clipPath>
    <linearGradient id="linear-gradient6" x1="-38" y1="285" x2="-37" y2="285" gradientTransform="translate(8049.4564 60121.865) scale(210.2667 -210.2667)" xlink:href="#linear-gradient"/>
    <clipPath id="clippath-9">
      <path class="st0" d="M60.6,188.8c4.2,2.9,10.4,6,10.4,6,0,0-10.9-6-20.3-13.8,0,0,5.7,4.9,9.9,7.8"/>
    </clipPath>
    <linearGradient id="linear-gradient7" x1="-38" y1="285" x2="-37" y2="285" gradientTransform="translate(8023.3163 60109.9152) scale(210.2667 -210.2667)" xlink:href="#linear-gradient"/>
    <clipPath id="clippath-10">
      <path class="st0" d="M64.4,16.1c1.5-.6,8-3.8,8-3.8-4.2,1.2-8,3.8-8,3.8"/>
    </clipPath>
    <linearGradient id="linear-gradient8" x1="-38" y1="285" x2="-37" y2="285" gradientTransform="translate(7867.4132 59936.2467) scale(210.2667 -210.2667)" xlink:href="#linear-gradient"/>
    <clipPath id="clippath-11">
      <path class="st0" d="M76.1,216.2c-21-7.8-29.9-16.1-35.2-20.5-5.4-4.4-5.8-5.5-8.1-7.6-2.3-2.1-9.9-9.2-13.8-17.1,0,0,7,9.9,13.9,16.9,6.9,7,20.8,18.5,39.8,25.8,19,7.4,31.6,7.4,31.6,7.4,0,0-3.2.3-5.3,0,0,0,8.4,1.3,11.8,1.5,0,0-1,.1-2.8.1-5,0-16.5-.8-31.8-6.5M7.8,110.6c0-25.1,7.2-36.2,7.2-36.2,0,0-4.2,10.3-5.4,20.5.4-2.7,1.2-4.2,1.2-4.2,0,0-1.7,3.9-2,17.7-.3,13.8,1.2,26,9.7,47.3,0,0-10.7-20.1-10.7-45.2M30.3,45.3c11.2-13.9,21.3-23.6,31.8-27.7,0,0-8.5,4.4-17.7,13.1-9.1,8.6-16.7,16.4-29.2,41.6,0,0,3.8-13,15-27M72.3,12.3s-6.4,3.2-8,3.8c0,0,3.8-2.6,8-3.8M115.7.6c-7.1,0-14.1.7-20.9,1.9-4.7,1.2-10.7,2.8-15.5,4.5-9.5,3.2-20.2,8.4-36.8,21.5-16.6,13.1-27.5,31.9-32.7,43.7-4.9,11.2-7.4,23.5-7.6,24.6-.8,5.5-1.2,11.1-1.2,16.8,0,5.9.5,11.7,1.4,17.4l.4.3s2.8,18.7,11.9,34.3c8.4,14.5,14.5,22,15.3,23,3,3.3,6.3,6.5,9.7,9.4,20.4,17.4,47.7,27.7,76.9,27.6,2.6,0,5.2-.1,7.7-.3.2-.6,6.7,0,21-3.8,14.4-3.7,17-6.5,16.9-6.8,0-.3-2.2.3-4.9.9-2.7.6-16.3,4.4-24.6,5.6-8.3,1.2-19.2.9-19.2.9,22.1,0,40.3-6.9,51-12,10.7-5.1,15.4-9.1,15.4-9.1,0,0-10.9,7.5-22.2,11.2-11.3,3.7-27.4,9.4-49.8,7.5-22.4-1.9-41.2-8-58.3-21-17.2-13-21.7-21.6-21.7-21.6,3.4,5.5,17.9,18.4,24.9,23,7,4.6,11.9,6.2,11.9,6.2-18.3-8.2-34.5-26.1-40.5-35.2-6-9.1-8.4-14.6-10.1-18.2.2.5,1.4,3.6,1.4,3.6,0,0-2-3.5-3.9-8.5-7-17.5-6.3-36.4-6.3-36.4.9,27.6,8.2,39,8.2,39-3.2-6.8-4.9-16.4-5.3-18.6,0-.3,0-.5,0-.5,0,0,0,.2,0,.5.2,1.3,1.2,5.5,5,15.9,4.7,13,10.4,20,10.4,20-9.6-13.8-12.7-31.1-12.7-31.1,3.3,12.7,8.7,24.1,21,39.3,12.3,15.2,30.3,25.4,30.3,25.4-9.9-4.1-24.3-17.7-24.3-17.7,11.2,11.2,26.8,23.6,48.6,28.9,21.8,5.3,37.8,2.9,37.8,2.9-5.4.5-11.4-.4-18-1.9,2.7.1,5.5-.8,5.5-.8-23.6-1.9-37.3-8.6-43.4-14.5,6.9,2.2,14.9,3.5,14.9,3.5l-.3-.8c-37.8-15.2-48.3-38.5-48.3-38.5h0c-6.5-9.1-11.3-19.3-14.2-30.3-.6-3-2.1-13.3-2.5-15.6-.1-.8-.3-1.9-.5-2.9,0-1.4-.1-2.8-.2-4.3l.6-.3s.3-9.1,1.6-17.4c1.4-8.3,2.2-8.5,2.5-11.4,0-.7,0-1.2,0-1.6.5-1.5,1-2.9,1.6-4.4,1.9-4.8,4.8-9.1,7.5-13.5,8.4-14.1,19.8-26.3,34.2-34.8.3-.5.7-1.1,2-1.7,1.8-.9,2.8-1.7,4-1.6,0,0,0,0,0,0h0c1.3-.6,2.6-1.3,3.9-1.8,1.3-.8,2.9-1.8,4.9-2.8,3.8-1.9,7.5-2.6,9.6-2.6,9.1-2.6,18.8-4,28.9-4.1,44-.2,81.6,26.2,96,63.3-.3-2-1.7-6.4-6.4-15.5-7.2-13.8-24.3-29.5-24.3-29.5,17.2,12,31.2,37.6,31.8,38.2.6.7,1,1,.9,0,0-1-1.1-4.5-6.7-14.1-5.6-9.6-19.4-23.4-19.4-23.4,3.9,3,10.8,9.3,10.8,9.3,0-.2-1.5-2.7-1.5-2.7,9.7,7.8,19.5,25.9,20.5,27.8C202.1,27,162.3.6,116.2.6s-.3,0-.5,0"/>
    </clipPath>
    <linearGradient id="linear-gradient9" x1="-38" y1="285" x2="-37" y2="285" gradientTransform="translate(7984.9851 60029.5207) scale(210.2667 -210.2667)" xlink:href="#linear-gradient"/>
    <clipPath id="clippath-12">
      <path class="st0" d="M24.5,143.3l.2,1.7s6.5,13.4,11.2,19c0,0-6.6-10.2-9.6-17.3-2.9-6.8-5.5-17-5.5-17,0,0,1.9,9.4,3.7,13.6"/>
    </clipPath>
    <linearGradient id="linear-gradient10" x1="-38" y1="285" x2="-37" y2="285" gradientTransform="translate(7965.3783 60068.9206) scale(210.2667 -210.2667)" xlink:href="#linear-gradient"/>
    <clipPath id="clippath-13">
      <path class="st0" d="M24,75l.3.6s.9-2.5,1.6-4.4c-.2.3-1.9,3.8-1.9,3.8"/>
    </clipPath>
    <linearGradient id="linear-gradient11" x1="-38" y1="285" x2="-37" y2="285" gradientTransform="translate(7895.4529 59995.4391) scale(210.2667 -210.2667)" xlink:href="#linear-gradient"/>
  </defs>
  <g class="st27">
    <g>
      <path class="st12" d="M64.6,82.4h-4.7v-1.1h10.6v1.1h-4.7v10.8h-1.2v-10.8h0Z"/>
      <path class="st12" d="M59.7,101.4h1.2v5.1h8.6v-5.1h1.2v12h-1.2v-5.8h-8.6v5.8h-1.2v-12h0Z"/>
      <path class="st12" d="M60.8,121.5h9.5v1.1h-8.3v4.1h8v1.1h-8v4.5h8.4v1.1h-9.6v-12h0Z"/>
    </g>
  </g>
  <path d="M108.2,100.1h-14.2v29.6c0,2.3-1.1,3.4-3.3,3.4s-3.3,0-3.8-.4c-1.2-.3-1.8-1.4-1.8-3v-29.6h-3.1c-2.3,0-3.5-1.2-3.5-3.7s1.1-3.7,3.5-3.7h3.1v-8.1c0-2.2,1.1-3.3,3.3-3.3s3.4,0,3.9.3c1.1.4,1.7,1.4,1.7,3v8.1h14.2c2.3,0,3.4,1.4,3.4,4.1s-1.1,3.3-3.4,3.3"/>
  <path d="M126.3,88.4c-1.1.8-2.4,1.1-4,1.1s-3-.4-4-1.1c-1.2-.9-1.8-2-1.8-3.4s.6-2.6,1.7-3.5c1.1-.8,2.4-1.1,4.1-1.1s2.9.3,4,1.1c1.2.9,1.8,2,1.8,3.5s-.6,2.5-1.8,3.4M123.6,133.1c-2.1,0-3.3,0-3.8-.4-1.1-.4-1.7-1.5-1.7-3.3v-33.5c0-2.4,1.1-3.6,3.3-3.6s3.3,0,3.8.3c1.2.5,1.7,1.6,1.7,3.3v33.5c0,2.5-1,3.7-3.3,3.7"/>
  <path d="M183.7,130.4c-4.2,1.7-8.7,2.6-13.7,2.6h-13.8c-14,0-21.1-3.8-21.4-11.5-.2-4.3,0-9.7,0-16.3.3-8.4,7.4-12.6,21.2-12.6h26.8v-8c0-2.2,1-3.3,3.3-3.3s3.3,0,3.8.3c1.2.3,1.8,1.4,1.8,3v35.8c0,4.3-2.8,7.7-8.3,9.9M183,100.2h-27c-8.1,0-12.1,1.7-12.1,5.3v14.4c0,2.6,1.6,4.3,4.5,5.1,1.4.3,3.9.4,7.7.4h12.9c9.2,0,13.9-1.7,13.9-5.1v-20.2Z"/>
  <path d="M321.3,129.4c-1,1.9-2.8,2.9-5.4,2.9s-4.4-1-5.3-2.8l-13.2-24.8-13.5,24.9c-1,1.8-2.8,2.8-5.5,2.8s-4.5-1-5.6-3l-16.3-32.3c-.4-.8-.5-1.5-.5-2.1,0-1.9,1.4-2.9,4.2-2.9s4.1.6,4.8,2l13.8,26.5,13.4-24.7c1.1-2,2.8-3,5.2-3s4,1,5,3l13.5,24.8,13.7-26.5c.7-1.3,2.3-2,4.8-2s4.2,1,4.2,2.9-.2,1.3-.6,2.1l-16.6,32.3h0Z"/>
  <path d="M386,133.1h-21.9c-4.4,0-8.4-.9-12.2-2.7-4.6-2.2-7-5.2-7-9.1v-5.1c0-4.3,2.2-7.5,6.6-9.6,3.4-1.6,7.5-2.5,12.2-2.5h31.7c-.4-2.8-4.4-4.3-12.1-4.3s-1.8,0-3,0c-1.2,0-1.9,0-2.2,0-2.2,0-3.3-1.1-3.3-3.4v-.9c0-2.2,1.1-3.3,3.3-3.3,7.6,0,13,.4,16.4,1.4,6.5,1.8,9.8,5.6,9.8,11.1v15.9c0,8.2-6.2,12.3-18.4,12.3M363.5,111.6c-1.8,0-3.7.3-5.7,1-2.6.9-3.9,2-3.9,3.4v5.1c0,1.5,1.3,2.6,4,3.5,2,.6,4,.9,5.9.9h22.3c3.9,0,6.6-.5,7.8-1.6,1-.9,1.6-2.6,1.6-5.2s0-1.6,0-3.2v-3.9h-31.8Z"/>
  <path d="M436.8,100.1h-14.2v29.6c0,2.3-1.1,3.4-3.3,3.4s-3.3,0-3.8-.4c-1.2-.3-1.8-1.4-1.8-3v-29.6h-3.1c-2.4,0-3.5-1.2-3.5-3.7s1.1-3.7,3.5-3.7h3.1v-8.1c0-2.2,1.1-3.3,3.3-3.3s3.4,0,3.9.3c1.1.4,1.7,1.4,1.7,3v8.1h14.2c2.3,0,3.4,1.4,3.4,4.1s-1.1,3.3-3.4,3.3"/>
  <path d="M499.9,117h-44.6c-.3,5.7,4.3,8.5,13.8,8.5h2.4c1,0,1.7,0,2.2,0,2.2,0,3.3,1.4,3.3,4.2s-1.1,3.4-3.3,3.4c-5.8,0-9.7,0-11.7-.4-5-.4-8.6-1.6-11-3.5-3.3-2.6-5-5.6-5-9.1v-15c0-4.7,2.6-8.2,7.7-10.4,3.7-1.6,8.4-2.5,13.8-2.5h16.7c4.5,0,8.4.8,11.7,2.3,4.4,2,6.4,5,6.4,9v9.8c0,2.4-.8,3.7-2.4,3.7M493.7,104.2c0-3-6.1-4.5-18.3-4.5s-3,0-4.7,0c-1.6,0-2.3,0-2.1,0-9,0-13.6,1.6-13.6,4.7v4.7h38.6v-5h0Z"/>
  <path d="M531.8,99.9c-.3,0-.9,0-1.7,0h-2.1c-6.9,0-10.3,1.6-10.3,5.1v24.7c0,1.7-.6,2.7-1.8,3.1-.5.2-1.8.3-3.9.3s-3.4-1.1-3.4-3.4l.2-24.7c0-8.4,7.7-12.6,23.1-12.6s3.3,1.4,3.3,4.2-1.1,3.4-3.3,3.4"/>
  <g class="st21">
    <rect class="st13" x="161.4" y="151.2" width="55.8" height="55.4" transform="translate(-48.5 285.1) rotate(-67.5)"/>
  </g>
  <g class="st19">
    <rect class="st2" x="129.7" y="188.7" width="28.6" height="45.8" transform="translate(-106.7 263.5) rotate(-67.5)"/>
  </g>
  <g class="st20">
    <rect class="st1" x="122.5" y="200.3" width="5" height="9" transform="translate(-112.1 241.7) rotate(-67.5)"/>
  </g>
  <g class="st26">
    <rect class="st4" x="150.5" y="193.7" width="5.1" height="7" transform="translate(-87.7 262.9) rotate(-67.5)"/>
  </g>
  <g class="st23">
    <rect class="st9" x="185.9" y="163.9" width="10.2" height="9.5" transform="translate(-38 280.4) rotate(-67.5)"/>
  </g>
  <g class="st22">
    <rect class="st8" x="154.7" y="117.9" width="100.2" height="78.6" transform="translate(-18.9 286.1) rotate(-67.5)"/>
  </g>
  <g class="st25">
    <rect class="st5" x="78.2" y="188.6" width="14.4" height="22.4" transform="translate(-131.9 202.1) rotate(-67.5)"/>
  </g>
  <g class="st24">
    <rect class="st7" x="50.6" y="175.8" width="20.5" height="24" transform="translate(-135.9 172.1) rotate(-67.5)"/>
  </g>
  <g class="st16">
    <rect class="st6" x="65.1" y="9.8" width="6.6" height="8.8" transform="translate(29.1 71.9) rotate(-67.5)"/>
  </g>
  <g class="st15">
    <rect class="st3" x="-35.2" y="-31.4" width="291.9" height="288.9" transform="translate(-36.1 172) rotate(-67.5)"/>
  </g>
  <g class="st18">
    <rect class="st11" x="9.6" y="133.3" width="37.5" height="27.1" transform="translate(-118.2 116.7) rotate(-67.5)"/>
  </g>
  <g class="st17">
    <rect class="st10" x="22.6" y="71.6" width="4.8" height="3.4" transform="translate(-52.4 68.3) rotate(-67.5)"/>
  </g>
  <path class="st14" d="M99.9,158.6c-1.3,1-2.8,1.1-4.3,1.1h-7.3v6.2h-2.2v-15.5h9.4c.4,0,.8,0,1.2,0,.7,0,2.9.2,4.2,2,.5.8.8,1.7.8,2.7s-.1,2.4-1.6,3.5M98.6,153.2c-.9-1.1-2.3-1.1-3.6-1.1h-6.8v5.6h7.1c1.2,0,2.5,0,3.3-1.1.2-.3.6-.8.6-1.8s0-1-.5-1.7"/>
  <path class="st14" d="M124,165.8l-5.2-6.2h-7.4v6.2h-2.2v-15.5h10.4c1.3,0,1.8,0,2.4.2,2.1.6,3.2,2.2,3.2,4.3s-.2,3-2.5,4c-.4.2-.8.3-1.7.4l5.7,6.6h-2.8ZM122.7,153.4c-.6-1.2-1.7-1.3-2.9-1.3h-8.4v5.6h7.6c1.2,0,2.7,0,3.5-1.1.2-.3.6-.8.6-1.7s0-.9-.4-1.5"/>
  <path class="st14" d="M150.1,163.6c-1.1,1.1-3.4,2.7-7.2,2.7s-1.3,0-2.3-.2c-1-.2-4.1-.7-5.9-3.6-1-1.7-1.1-3.5-1.1-4.2,0-1.8.5-3.6,1.5-5,.2-.3.5-.6,1.1-1.1,1-.9,3.1-2.2,6.6-2.2s2.8,0,4.7,1c1.3.6,2.5,1.6,3.3,2.7,1.3,1.8,1.3,3.9,1.3,4.6s-.1,3.3-2,5.3M149.3,155.4c-1.6-3.6-6-3.6-6.9-3.5-.6,0-3.4.2-5.2,2s-.9,1-1.3,2.1c-.2.7-.3,1.5-.3,2.3s0,2.2,1.1,3.7c.2.3.5.7,1.2,1.2.9.6,2.4,1.3,4.9,1.3s1.4,0,2.6-.3c2.1-.6,3.7-2,4.2-4.2,0-.3.2-.9.2-1.7,0-1.3-.3-2.2-.6-2.7"/>
  <path class="st14" d="M174.5,158.6c-1.3,1-2.8,1.1-4.3,1.1h-7.3v6.2h-2.2v-15.5h9.4c.4,0,.8,0,1.2,0,.7,0,2.9.2,4.2,2,.5.8.8,1.7.8,2.7s-.1,2.4-1.6,3.5M173.2,153.2c-.9-1.1-2.3-1.1-3.6-1.1h-6.8v5.6h7.1c1.2,0,2.5,0,3.3-1.1.2-.3.6-.8.6-1.8s0-1-.5-1.7"/>
  <polygon class="st14" points="183.9 165.8 183.9 150.3 197.9 150.3 197.9 152.2 186 152.2 186 156.8 197.6 156.8 197.6 158.7 186 158.7 186 163.9 198.5 163.9 198.5 165.8 183.9 165.8"/>
  <path class="st14" d="M221.4,165.8l-5.2-6.2h-7.4v6.2h-2.2v-15.5h10.4c1.3,0,1.8,0,2.4.2,2.1.6,3.2,2.2,3.2,4.3s-.2,3-2.5,4c-.4.2-.8.3-1.7.4l5.7,6.6h-2.8ZM220,153.4c-.6-1.2-1.7-1.3-2.9-1.3h-8.4v5.6h7.6c1.2,0,2.7,0,3.5-1.1.2-.3.6-.8.6-1.7s0-.9-.4-1.5"/>
  <polygon class="st14" points="238.5 152.1 238.5 165.8 236.4 165.8 236.4 152.1 230.1 152.1 230.1 150.3 244.8 150.3 244.8 152.1 238.5 152.1"/>
  <polygon class="st14" points="260.6 159.8 260.6 165.8 258.4 165.8 258.4 159.8 250.8 150.3 253.6 150.3 259.5 157.9 265.6 150.3 268.3 150.3 260.6 159.8"/>
  <polygon class="st14" points="305 165.8 305.1 152.5 298.8 165.8 296.8 165.8 290.6 152.5 290.7 165.8 288.6 165.8 288.6 150.3 291.6 150.3 297.9 163.5 304.1 150.3 307 150.3 307 165.8 305 165.8"/>
  <path class="st14" d="M329.6,165.8l-1.9-3.8h-9.4l-1.9,3.8h-2.4l7.9-15.5h2.3l7.8,15.5h-2.5ZM323.1,152.5l-3.8,7.7h7.6l-3.7-7.7Z"/>
  <rect class="st14" x="339.6" y="150.3" width="2.2" height="15.5"/>
  <polygon class="st14" points="365.1 165.8 353.1 153 353.2 165.8 351.1 165.8 351.1 150.3 353.3 150.3 365.2 163.1 365.1 150.3 367.2 150.3 367.2 165.8 365.1 165.8"/>
  <polygon class="st14" points="383.4 152.1 383.4 165.8 381.3 165.8 381.3 152.1 375 152.1 375 150.3 389.7 150.3 389.7 152.1 383.4 152.1"/>
  <polygon class="st14" points="397.5 165.8 397.5 150.3 411.6 150.3 411.6 152.2 399.7 152.2 399.7 156.8 411.3 156.8 411.3 158.7 399.7 158.7 399.7 163.9 412.2 163.9 412.2 165.8 397.5 165.8"/>
  <polygon class="st14" points="434.3 165.8 422.3 153 422.4 165.8 420.3 165.8 420.3 150.3 422.5 150.3 434.4 163.1 434.3 150.3 436.4 150.3 436.4 165.8 434.3 165.8"/>
  <path class="st14" d="M459.5,165.8l-1.9-3.8h-9.4l-1.9,3.8h-2.4l7.9-15.5h2.3l7.8,15.5h-2.5ZM453,152.5l-3.8,7.7h7.6l-3.7-7.7Z"/>
  <polygon class="st14" points="483.4 165.8 471.5 153 471.5 165.8 469.4 165.8 469.4 150.3 471.7 150.3 483.5 163.1 483.5 150.3 485.6 150.3 485.6 165.8 483.4 165.8"/>
  <path class="st14" d="M511.2,163.3c-2.5,3-6.9,3-7.8,3-3,0-4.8-.9-5.9-1.6-.4-.3-.7-.5-1-.8-.2-.2-.7-.7-1.1-1.4-.5-.8-1.2-2.2-1.2-4.5s0-2.8,1.3-4.6c.2-.3.5-.7,1.1-1.2.5-.5,1.2-.9,1.8-1.2,2-1,4.4-1.1,5-1.1s3.6,0,5.8,1.4c.3.2.9.6,1.6,1.3.7.7,1.1,1.4,1.3,1.8l-2.3.5c-.1-.2-.3-.5-.4-.7-.3-.5-.9-1-1.4-1.3-.7-.5-2.3-1.1-4.4-1.1s-3,0-4.7,1.3c-.2.1-.5.4-.9.8-.6.6-1.4,1.9-1.4,4.1s0,2.4,1.2,3.9c1.4,1.8,3.6,2.2,4.3,2.3.7.1,1.5.1,1.8.1.7,0,3.7,0,5.5-2,.4-.4.6-.7.8-1.2l2.3.5c-.5.9-.8,1.3-1.1,1.7"/>
  <polygon class="st14" points="520.4 165.8 520.4 150.3 534.5 150.3 534.5 152.2 522.6 152.2 522.6 156.8 534.2 156.8 534.2 158.7 522.6 158.7 522.6 163.9 535.1 163.9 535.1 165.8 520.4 165.8"/>
  <path d="M251.7,117h-44.6c-.3,5.7,4.3,8.5,13.8,8.5h2.4c1,0,1.7,0,2.2,0,2.2,0,3.3,1.4,3.3,4.2s-1.1,3.4-3.3,3.4c-5.8,0-9.7,0-11.7-.4-5-.4-8.6-1.6-11-3.5-3.3-2.6-5-5.6-5-9.1v-15c0-4.7,2.6-8.2,7.7-10.4,3.7-1.6,8.4-2.5,13.8-2.5h16.7c4.5,0,8.3.8,11.7,2.3,4.4,2,6.4,5,6.4,9v9.8c0,2.4-.8,3.7-2.4,3.7M245.5,104.2c0-3-6.1-4.5-18.3-4.5s-3,0-4.7,0c-1.6,0-2.3,0-2.1,0-9.1,0-13.6,1.6-13.6,4.7v4.7h38.6v-5h0Z"/>
</svg>