<?xml version="1.0" encoding="UTF-8"?>
<svg id="Layer_1" xmlns="http://www.w3.org/2000/svg" width="536" height="226" xmlns:xlink="http://www.w3.org/1999/xlink" version="1.1" viewBox="0 0 536 226">
  <!-- Generator: Adobe Illustrator 30.4.0, SVG Export Plug-In . SVG Version: 2.1.4 Build 226)  -->
  <defs>
    <style>
      .st0 {
        fill: none;
      }

      .st1 {
        fill: #419cb1;
      }

      .st2 {
        fill: #84c4da;
      }

      .st3 {
        fill: #52a4ba;
      }

      .st4 {
        fill: #3598ad;
      }

      .st5 {
        fill: #56a6bb;
      }

      .st6 {
        fill: #57a7bc;
      }

      .st7 {
        fill: #0b869a;
      }

      .st8 {
        fill: #218fa3;
      }

      .st9 {
        fill: #7abbce;
      }

      .st10 {
        fill: #5cadbc;
      }

      .st11 {
        fill: #3a9bae;
      }

      .st12 {
        fill: #2d95aa;
      }

      .st13 {
        fill: #028296;
      }

      .st14 {
        fill: #92d1e8;
      }

      .st15 {
        fill: #088599;
      }

      .st16 {
        fill: #018195;
      }

      .st17 {
        fill: #231f20;
      }

      .st18 {
        fill: #7fbfd3;
      }

      .st19 {
        fill: #3698ad;
      }

      .st20 {
        fill: #2692a6;
      }

      .st21 {
        fill: #66b0c6;
      }

      .st22 {
        fill: url(#linear-gradient);
      }

      .st23 {
        fill: #60acc2;
      }

      .st24 {
        fill: #6fb6cc;
      }

      .st25 {
        fill: #74bad0;
      }

      .st26 {
        fill: #68b3bf;
      }

      .st27 {
        fill: #2290a4;
      }

      .st28 {
        fill: #2994a8;
      }

      .st29 {
        fill: #419fb0;
      }

      .st30 {
        fill: #469fb4;
      }

      .st31 {
        fill: #038397;
      }

      .st32 {
        fill: #3da1b6;
      }

      .st33 {
        fill: #3e9bb0;
      }

      .st34 {
        fill: #97d5ec;
      }

      .st35 {
        fill: #13899d;
      }

      .st36 {
        fill: #9edaf2;
      }

      .st37 {
        fill: #409cb1;
      }

      .st38 {
        fill: #008194;
      }

      .st39 {
        fill: #168b9f;
      }

      .st40 {
        fill: #2c95aa;
      }

      .st41 {
        fill: #058498;
      }

      .st42 {
        fill: #54a5bb;
      }

      .st43 {
        fill: #7dc1d7;
      }

      .st44 {
        fill: #72b8cd;
      }

      .st45 {
        fill: #4aa4b3;
      }

      .st46 {
        fill: #a0dbf2;
      }

      .st47 {
        fill: #9fd9ef;
      }

      .st48 {
        fill: #2792a6;
      }

      .st49 {
        fill: #3198a9;
      }

      .st50 {
        fill: #7ebec9;
      }

      .st51 {
        fill: #9bd7ee;
      }

      .st52 {
        fill: #2e96a8;
      }

      .st53 {
        fill: #69b0c5;
      }

      .st54 {
        fill: #2d95a9;
      }

      .st55 {
        fill: #499fb5;
      }

      .st56 {
        fill: #81bfcb;
      }

      .st57 {
        fill: #2e95aa;
      }

      .st58 {
        fill: #010909;
      }

      .st59 {
        fill: #1a8ca0;
      }

      .st60 {
        fill: #479fb5;
      }

      .st61 {
        fill: #6eb3c7;
      }

      .st62 {
        fill: #8ac5d8;
      }

      .st63 {
        fill: #47a2b5;
      }

      .st64 {
        fill: #88cae0;
      }

      .st65 {
        fill: #5ca9bf;
      }

      .st66 {
        fill: #3e9eb3;
      }

      .st67 {
        fill: #80c3da;
      }

      .st68 {
        fill: #439fb2;
      }

      .st69 {
        fill: #008094;
      }

      .st70 {
        fill: #50a3b7;
      }

      .st71 {
        fill: #8fc6d0;
      }

      .st72 {
        fill: #3b9baf;
      }

      .st73 {
        fill: #4da5b5;
      }

      .st74 {
        fill: #78bdd3;
      }

      .st75 {
        fill: #1e8fa1;
      }

      .st76 {
        fill: #69b2c7;
      }

      .st77 {
        fill: #68b3c0;
      }

      .st78 {
        fill: #6fb6cb;
      }

      .st79 {
        fill: #4aa0b5;
      }

      .st80 {
        fill: #4da5b6;
      }

      .st81 {
        fill: #9dd9f1;
      }

      .st82 {
        fill: #389cab;
      }

      .st83 {
        fill: #a1daf1;
      }

      .st84 {
        fill: #5dabbf;
      }

      .st85 {
        fill: #3e9ab0;
      }

      .st86 {
        fill: #489fb5;
      }

      .st87 {
        fill: #048498;
      }

      .st88 {
        clip-path: url(#clippath);
      }

      .st89 {
        fill: #85c6dc;
      }

      .st90 {
        fill: #57a7bd;
      }

      .st91 {
        fill: #168a9f;
      }

      .st92 {
        fill: #8fcee5;
      }

      .st93 {
        fill: #8cc9dd;
      }
    </style>
    <clipPath id="clippath">
      <rect class="st0" width="535.1" height="225.9"/>
    </clipPath>
    <linearGradient id="linear-gradient" x1="782" y1="452.9" x2="144.9" y2="1092.8" gradientTransform="translate(-4.9 -87.7) scale(.2)" gradientUnits="userSpaceOnUse">
      <stop offset="0" stop-color="#9edaf2"/>
      <stop offset=".3" stop-color="#99d6ed"/>
      <stop offset="1" stop-color="#008094"/>
    </linearGradient>
  </defs>
  <g class="st88">
    <g>
      <path class="st17" d="M64.6,82.4h-4.7v-1.1h10.6v1.1h-4.7v10.8h-1.2v-10.8h0Z"/>
      <path class="st17" d="M59.7,101.4h1.2v5.1h8.6v-5.1h1.2v12h-1.2v-5.8h-8.6v5.8h-1.2v-12h0Z"/>
      <path class="st17" d="M60.8,121.5h9.5v1.1h-8.3v4.1h8v1.1h-8v4.5h8.4v1.1h-9.6v-12h0Z"/>
    </g>
  </g>
  <path d="M108.2,100.1h-14.2v29.6c0,2.3-1.1,3.4-3.3,3.4s-3.3,0-3.8-.4c-1.2-.3-1.8-1.4-1.8-3v-29.6h-3.1c-2.3,0-3.5-1.2-3.5-3.7s1.1-3.7,3.5-3.7h3.1v-8.1c0-2.2,1.1-3.3,3.3-3.3s3.4,0,3.9.3c1.1.4,1.7,1.4,1.7,3v8.1h14.2c2.3,0,3.4,1.4,3.4,4.1s-1.1,3.3-3.4,3.3"/>
  <path d="M126.3,88.4c-1.1.8-2.4,1.1-4,1.1s-3-.4-4-1.1c-1.2-.9-1.8-2-1.8-3.4s.6-2.6,1.7-3.5c1.1-.8,2.4-1.1,4.1-1.1s2.9.3,4,1.1c1.2.9,1.8,2,1.8,3.5s-.6,2.5-1.8,3.4M123.6,133.1c-2.1,0-3.3,0-3.8-.4-1.1-.4-1.7-1.5-1.7-3.3v-33.5c0-2.4,1.1-3.6,3.3-3.6s3.3,0,3.8.3c1.2.5,1.7,1.6,1.7,3.3v33.5c0,2.5-1,3.7-3.3,3.7"/>
  <path d="M183.7,130.4c-4.2,1.7-8.7,2.6-13.7,2.6h-13.8c-14,0-21.1-3.8-21.4-11.5-.2-4.3,0-9.7,0-16.3.3-8.4,7.4-12.6,21.2-12.6h26.8v-8c0-2.2,1-3.3,3.3-3.3s3.3,0,3.8.3c1.2.3,1.8,1.4,1.8,3v35.8c0,4.3-2.8,7.7-8.3,9.9M183,100.2h-27c-8.1,0-12.1,1.7-12.1,5.3v14.4c0,2.6,1.6,4.3,4.5,5.1,1.4.3,3.9.4,7.7.4h12.9c9.2,0,13.9-1.7,13.9-5.1v-20.2Z"/>
  <path d="M251.7,117h-44.6c-.3,5.7,4.3,8.5,13.8,8.5h2.4c1,0,1.7,0,2.2,0,2.2,0,3.3,1.4,3.3,4.2s-1.1,3.4-3.3,3.4c-5.8,0-9.7,0-11.7-.4-5-.4-8.6-1.6-11-3.5-3.3-2.6-5-5.6-5-9.1v-15c0-4.7,2.6-8.2,7.7-10.4,3.7-1.6,8.4-2.5,13.8-2.5h16.7c4.5,0,8.3.8,11.7,2.3,4.4,2,6.4,5,6.4,9v9.8c0,2.4-.8,3.7-2.4,3.7M245.5,104.2c0-3-6.1-4.5-18.3-4.5s-3,0-4.7,0c-1.6,0-2.3,0-2.1,0-9.1,0-13.6,1.6-13.6,4.7v4.7h38.6v-5h0Z"/>
  <path d="M321.3,129.4c-1,1.9-2.8,2.9-5.4,2.9s-4.4-1-5.3-2.8l-13.2-24.8-13.5,24.9c-1,1.8-2.8,2.8-5.5,2.8s-4.5-1-5.6-3l-16.3-32.3c-.4-.8-.5-1.5-.5-2.1,0-1.9,1.4-2.9,4.2-2.9s4.1.6,4.8,2l13.8,26.5,13.4-24.7c1.1-2,2.8-3,5.2-3s4,1,5,3l13.5,24.8,13.7-26.5c.7-1.3,2.3-2,4.8-2s4.2,1,4.2,2.9-.2,1.3-.6,2.1l-16.6,32.3h0Z"/>
  <path d="M386,133.1h-21.9c-4.4,0-8.4-.9-12.2-2.7-4.6-2.2-7-5.2-7-9.1v-5.1c0-4.3,2.2-7.5,6.6-9.6,3.4-1.6,7.5-2.5,12.2-2.5h31.7c-.4-2.8-4.4-4.3-12.1-4.3s-1.8,0-3,0c-1.2,0-1.9,0-2.2,0-2.2,0-3.3-1.1-3.3-3.4v-.9c0-2.2,1.1-3.3,3.3-3.3,7.6,0,13,.4,16.4,1.4,6.5,1.8,9.8,5.6,9.8,11.1v15.9c0,8.2-6.2,12.3-18.4,12.3M363.5,111.6c-1.8,0-3.7.3-5.7,1-2.6.9-3.9,2-3.9,3.4v5.1c0,1.5,1.3,2.6,4,3.5,2,.6,4,.9,5.9.9h22.3c3.9,0,6.6-.5,7.8-1.6,1-.9,1.6-2.6,1.6-5.2s0-1.6,0-3.2v-3.9h-31.8Z"/>
  <path d="M436.8,100.1h-14.2v29.6c0,2.3-1.1,3.4-3.3,3.4s-3.3,0-3.8-.4c-1.2-.3-1.8-1.4-1.8-3v-29.6h-3.1c-2.4,0-3.5-1.2-3.5-3.7s1.1-3.7,3.5-3.7h3.1v-8.1c0-2.2,1.1-3.3,3.3-3.3s3.4,0,3.9.3c1.1.4,1.7,1.4,1.7,3v8.1h14.2c2.3,0,3.4,1.4,3.4,4.1s-1.1,3.3-3.4,3.3"/>
  <path d="M499.9,117h-44.6c-.3,5.7,4.3,8.5,13.8,8.5h2.4c1,0,1.7,0,2.2,0,2.2,0,3.3,1.4,3.3,4.2s-1.1,3.4-3.3,3.4c-5.8,0-9.7,0-11.7-.4-5-.4-8.6-1.6-11-3.5-3.3-2.6-5-5.6-5-9.1v-15c0-4.7,2.6-8.2,7.7-10.4,3.7-1.6,8.4-2.5,13.8-2.5h16.7c4.5,0,8.4.8,11.7,2.3,4.4,2,6.4,5,6.4,9v9.8c0,2.4-.8,3.7-2.4,3.7M493.7,104.2c0-3-6.1-4.5-18.3-4.5s-3,0-4.7,0c-1.6,0-2.3,0-2.1,0-9,0-13.6,1.6-13.6,4.7v4.7h38.6v-5h0Z"/>
  <path d="M531.8,99.9c-.3,0-.9,0-1.7,0h-2.1c-6.9,0-10.3,1.6-10.3,5.1v24.7c0,1.7-.6,2.7-1.8,3.1-.5.2-1.8.3-3.9.3s-3.4-1.1-3.4-3.4l.2-24.7c0-8.4,7.7-12.6,23.1-12.6s3.3,1.4,3.3,4.2-1.1,3.4-3.3,3.4"/>
  <g>
    <polygon points="539.2 149.8 539.2 151.7 532 151.7 532.1 165.1 530.1 165.1 530.1 151.7 523 151.7 523 149.8 539.2 149.8"/>
    <path class="st58" d="M311.1,165.1v-12.7c0,0-5.6,12.7-5.6,12.7-.5.1-1.1.1-1.7,0l-5.7-12.7v12.7c0,0-2,0-2,0v-15.3s3.1,0,3.1,0l5.5,12.3,5.4-12.3h3.1s0,15.3,0,15.3h-1.9Z"/>
    <path class="st58" d="M463,165.1v-12.8c0,0-5.7,12.6-5.7,12.6-.4.3-1.4.3-1.8,0l-5.6-12.6v12.8c0,0-2,0-2,0v-15.3s3.1,0,3.1,0l5.4,12.4,5.5-12.4h3.1s0,15.3,0,15.3h-1.9Z"/>
    <path class="st58" d="M217,159.5c-.2,0-.4.2-.5.4l-.7-1.4h-5.2s0,6.7,0,6.7h-2.2s0-5.5,0-5.5c-.2.1-.3.3-.3.5-.6-.7.3-1.3.3-1.7v-8.6c0,0,10.1,0,10.1,0,.6,0,1,.3,1.6,0s1,.1,1,.6c1.4.5,2.3,1.8,2.2,3.4.2,2.9-1.7,4.2-4.5,4.6l4.9,6.6h-2.6c0,.1-4.1-5.6-4.1-5.6ZM218.5,156.5c2,.1,3.4-1.9,3.1-3.8l-2.2-.9h-8.8c0-.1,0,4.7,0,4.7h6.4c0,0,.9-.5.9-.5.2,0,.5,0,.6.5Z"/>
    <path class="st58" d="M125.5,165c-.9.3-1.7.1-2.6.2l-4.9-6.7h-5.6s0,6.7,0,6.7h-2.2s0-15.3,0-15.3h10.2c1.5.1,2.9.7,3.9,1.7,1,1.5,1.1,3.7,0,5.1s-2.1,1.5-3.7,1.8l4.8,6.5ZM122.3,152.3c-.6-.3-1.5-.6-2.1-.6h-7.7s0,4.8,0,4.8h8.6c1,0,1.8-1,2.1-1.7s0-1.9-.9-2.4Z"/>
    <path class="st58" d="M413.5,159.4h-6.2c0,0,0-2,0-2h8.1s0,7.7,0,7.7h-1.9s0-1.7,0-1.7c-1.6,1.7-3.7,2.1-5.9,2.1-2.8,0-5.4-.7-7.1-3.1-2-2.8-2-7,0-9.8s4-3,6.7-3,5,.5,6.9,2.3l1.3,1.9c-.5.6-1.2.9-1.9.9l-.7-1.3c-2.5-2.4-6.3-2.9-9.2-.9s-2.4,3.3-2.4,5.3c0,3.5,2.6,5.7,6,5.9,2.9.2,6-1,6.5-4.2Z"/>
    <path d="M511.9,149.9c.7-.2,1.2-.1,1.9,0v15.3c-.6,0-1.5.3-2-.1l-11.6-12.9v13s-2.2,0-2.2,0v-15.3c.9,0,2-.3,2.8.1.8.5,1.5,1.4,2.2,2.1l2,2.2,2.5,2.8,2.1,2.3c.8.9,1.4,1.9,2.5,2.6v-11.9Z"/>
    <path class="st58" d="M191.2,168.1c-.3.3-.3.3-.3-.1l2.2-2.8h-7.5s0-15.4,0-15.4h13.6s0,1.9,0,1.9h-11.5s0,4.6,0,4.6h9.6s0,1.9,0,1.9h-9.6s0,5,0,5h11.7s0,1.9,0,1.9h-5.9c-.7,1.1-1.5,2.2-2.4,2.9Z"/>
    <polygon class="st58" points="436.8 158.2 427.2 158.2 427.2 163.2 438.9 163.2 438.9 165.1 425.1 165.1 425.1 149.8 438.7 149.8 438.7 151.7 427.2 151.7 427.2 156.3 436.8 156.2 436.8 158.2"/>
    <polygon class="st58" points="486.9 158.2 477.4 158.2 477.4 163.2 489.1 163.2 489.1 165.1 475.2 165.1 475.2 149.8 488.8 149.8 488.8 151.7 477.4 151.7 477.4 156.3 486.9 156.2 486.9 158.2"/>
    <path class="st58" d="M150.6,162.5c-3.2,3.8-11.7,4.1-14.9-.7s-1.5-8.1,1.6-10.5,10.5-2.5,13.3.9,2.5,7.3,0,10.3ZM149.6,160c.8-1.8.7-3.9-.2-5.6s-2.3-2.5-4.1-2.9c-2.8-.7-6.1.1-7.7,2.5s-.9,2.3-1,3.5c0,3.3,2,5.5,5.1,6.1s6.5-.4,7.9-3.5Z"/>
    <path class="st58" d="M362.4,149.9c.6-.2,1.2-.1,1.9,0v15.3s-2,0-2,0l-11.9-13.3v13.2s-2,0-2,0v-15.3c3.4-.4,3.3.6,5,2.4l2.5,2.8,2.1,2.4,2.2,2.4,2,2.2v-12.1Z"/>
    <path class="st58" d="M172.8,158.5l-9,.2v6.4s-2.2,0-2.2,0v-15.3s10.1,0,10.1,0l2.1.5c1.9.5,2.7,2,2.8,3.8s-1.2,4.1-3.8,4.4ZM174.1,152.8c-1-.9-2.4-1.1-3.6-1.1h-6.7s0,5,0,5h8.4c1,0,1.8-.7,2.1-1.4s.5-1.8-.2-2.5Z"/>
    <path class="st58" d="M386.9,161.3h-9.5s-1.9,3.8-1.9,3.8h-2.4s3.5-6.9,3.5-6.9l4.3-8.4h2.5c0,0,4.2,8.2,4.2,8.2l3.6,7.1h-2.4s-1.9-3.8-1.9-3.8ZM385.9,159.3l-3.7-7.5-3.8,7.5h7.5Z"/>
    <path class="st58" d="M335.6,161.3h-9.6s-1.9,3.8-1.9,3.8h-2.2s4.2-8.3,4.2-8.3l3.5-6.9c.8-.2,1.7-.2,2.6,0l4.9,9.6,2.7,5.4c-.8.3-1.5.2-2.3.1l-1.9-3.8ZM334.6,159.3l-3.7-7.5-3.8,7.5h7.5Z"/>
    <path class="st58" d="M100.1,157.4c-.9.7-1.9,1.2-3,1.2h-8.6c0,0,0,6.5,0,6.5h-1.9s0-15.3,0-15.3h9.4c.9,0,1.9.3,2.8.6,1.8.6,2.7,2.2,2.6,4s-.1,2.3-1.2,3.1ZM97.2,156.6c1.5,0,2.2-1.5,2.2-2.7s-1.2-2.2-2.6-2.2h-8.3c0-.1,0,5,0,5h8.7Z"/>
    <path class="st58" d="M273.1,149.9l-8,9.3v6s-1.9,0-1.9,0v-6.1s-7.9-9-7.9-9c.9-.4,1.7-.2,2.6-.2l6.2,7.3,6.2-7.3h2.8Z"/>
    <path class="st58" d="M240.6,165c-.7.2-1.2.1-1.9,0v-13.4s-7.4,0-7.4,0v-1.9s16.5,0,16.5,0v1.9s-7.2,0-7.2,0v13.3Z"/>
    <path class="st24" d="M211.1,168.9c-.5.5-.7.4-.6-.3l4-6.9c.3,0,.8,0,.9.2.2.2-.2.4-.3.6l-4,6.5Z"/>
    <path class="st60" d="M189,170.5c.1-.5.6-.7.9-1,0,0,.1.1.1.1,0,.4-.5.7-.7.9-.1.2-.3,0-.2,0Z"/>
    <path class="st9" d="M191,167.9h.3c-.2.3-.2,1.1-.9.9l.6-.9Z"/>
  </g>
  <g>
    <path class="st22" d="M126.4,11.7c-4.6-.1-9.3-.1-13.9,0-.5.5-1.2.2-1.9.2-6.1.6-12,1.4-18,2.8-2.6.9-5.1,1.6-7.8,1.8-4.8,1.9-9.2,4.2-13.8,6.6s-3.4,1.2-4.9,2.3-2.1,1.7-3.3,2.5c-4.7,3-9.1,6.4-13.3,10.2l-6.5,6.5c-5.9,5.9-12.4,16.8-16.6,24.4s-.7,1-.7,1.6l-.5,1.2c0,1.2-1,2.3-1.3,3.8l-.5-.7-.7,1.5-2.1,9.4c-1.6,5.9-2.7,11.8-2.9,17.9l-.2,5.4c0,.7-.5,1.3-.4,2.2l.9,7.3c.9,7.1,2.1,13.9,4.4,20.7s.7,3.6,1.7,5c.6.1,1.1.9.6,1.4,1.1,1.2,1.8,2.6,2.3,4.3.3.2.5.5.6,1,.7,1.3,1.4,2.6,2.2,3.8l.3.8c0,.4.2.8.6,1.3-.2,1.2,1.2,2,1.8,2.7,2.1,2.4,2.4,4.5,3.4,5.8,3.4,4.8,7.3,9.1,11.3,13.3s2,2.1,3.2,3.1c9.4,8.1,19.9,14.5,31.5,19.1.4.2.7.7.6,1.1-1.7,0-3.1-.4-4.5-.7l-9.9-2.2c2.6,2.3,5.4,4,8.4,5.4,11.3,5.3,23.3,7.2,35.8,8.7-1.5.6-3.1,0-4.6.3l-1.3.3c1.8.4,4.2.9,5.8.9.4.1.7.2.9.4l2.4.3,3.6.2h3.8c-.3.4-.7.3-1,.3l-1.4.3h-4.2c0,.1-5.6.2-5.6.2l-2.9-.2-3.9-.2c-12.3-1.1-24.2-4.4-35.4-9.7l-4.7-2.3c-8.2-4.4-15.8-9.8-22.3-16.3,1.4.5,2,1.6,3.1,2.4l3.8,2.8.2-.2-5.9-5-1.9-1.7-5.2-5.1c-.9-.8-1.5-2.1-2.6-2.5l-2.1-2.5h-.4c-8.7-10.5-15-22.9-19-35.8.2,2.3.9,4.1,1.5,5.9.1.8,0,1-.4.8-1.2-3.1-2.3-6.2-3.3-9.4s-.2-.3-.4-.3c-.2.5-.4.3-.7-.5h-.4c0,0-.4-2.6-.4-2.6-.5-.5-.8-1.1-.9-1.9-1.8-1.2-3.7-3.1-4.9-4.9l-.6-4.3c-.2-1.3-.3-2.4-.2-3.6l-.3-1.2v-2.4c0-.7-.2-1.4-.2-2.2v-4.1c0-.8.2-1.6.2-2.4,0-.9,0-1.7.2-2.7,1.2-8.5,2.9-16.8,5.7-25,5.5-15.6,14.1-29.7,25.4-41.7s3-3.1,4.7-4.7l2.9-2.7c5.3-4.4,10.6-8.6,16.4-12.3C73,7.4,90.1,1.9,110.4.8h12.7c.8,0,1.6.1,2.4.2,12.5.8,28.7,5.2,39.9,10.9l4.5,2.3c9.5,4.8,17.9,11.1,25.6,18.5l4.3,4.3,2.9,3.1c6.5,7.8,12.7,15.9,17,25.2-4.4-7.4-8.7-14.8-14.4-21.4-.7-.8-1.4-1.3-1.9-2.2l-3.4-3.2.6,1.8-7.8-6.6-.3.3,5.4,5.5c4.7,5.3,9,10.7,12.6,16.8l3.1,5.8c1.2,2.2,2.1,4.5,2.6,6.9-.2.2-.3.3-.4.3s-.3,0-.4-.2l-2.1-3-5.4-8.7c-3.2-5.2-6.8-9.9-11-14.4l-7.9-7.9-3.2-2.7c0,0-.3,0-.3,0l6.9,7c9.2,10.1,17.2,21.6,21.5,34.7l-2.8-4.9-2.9-5.3c-3.8-6.8-8.4-13-13.5-18.8l-3.4-3.9c-3-3.5-6.5-6.5-10.4-9s-3-1.8-4.4-3.1-1.5-1.5-2.4-1.9l-11.4-6.1-4.8-2.4c-.9-.4-1.8-.4-2.7-.4-9.4-3.7-19.1-5.5-29-6.5ZM15.1,71.5c-.1.3,0,.7,0,1.1.3-.3.5-.7.2-.9,5.2-12.9,12.8-24.7,22.3-34.9l4.7-4.7c3.5-3.5,7.3-6.5,11.5-9.4l6.2-4.3c-1.7.3-2.7,1.4-4,2.2-6,3.8-11.6,8.1-16.3,13.4l-3.3,3.5c-5.8,6.1-10.7,12.8-15,20.2s-4.7,9.1-6.4,13.9ZM43.6,41.9l.2.2,3.9-4c0,0-.2-.1-.3,0l-3.8,3.9ZM38.6,47.8c-.7.9-1.3,1.9-1.9,2.9s-.5.4-.5.8.2.2.3,0,.1-.4.2-.5l2.1-2.9c.6-.8,1.3-1.5,1.7-2.5-.9.6-1.4,1.3-1.9,2.1ZM8.8,95.9c-.6.3-.4,1-.5,1.6l-.3,2.7c-.1,1.2-.2,2.2-.2,3.4s-.3,2.3-.2,3.6,0,2.9-.1,4.3.3,2.6,0,3.9c.4,1.1.3,2.2.3,3.4.8,7.4,1.9,14.6,4.3,21.6-1.8-7.4-3.2-14.6-3.8-22.1l-.2-4.7c0-2.3,0-4.5,0-6.8s0-3,.3-4.6l.9-7.3c0-.5.3-1.1-.1-1.4,0,0-.2,0-.2,0l1.7-8.4c-1.3,2.8-1.6,5.8-2.1,8.9s-.4,1.5,0,2ZM4.8,119.1s.1,0,.2-.1v-3c-.1,0-.2,0-.2.1v3ZM5.4,122.2c.2-.7-.1-.9-.3-1.2-.2.5,0,.9.3,1.2ZM49.3,193.7c-.1-.5-.5-.8-.9-.7.2.4.5.7.9.7ZM83.4,209.7c-.6-.4-1.1-.7-1.9-.6.6.3,1.2.7,1.9.6Z"/>
    <path class="st69" d="M7.9,137.3c.2,0,.4.3.6.9.5.1.6.8.2,1,1,3.9,2.4,7.5,4.1,11,0,1,.2,2.2,1.2,2.7,4.9,11,11.1,20.6,19.3,29.6l7,7c5.7,5.3,11.9,9.7,18.5,13.6,1.5.9,3,1.5,4.4,2.7-7.9-3.1-17.9-10.6-23.9-16.5l-5.5-5.4-.2.2,7.9,7.8c13.1,11.5,28.7,19.8,45.5,24.1,1,.6,2,1.4,2.6,2.4l-.3.5c-1.5.2-3,0-4.6-.5,2.5.6,4.9,1.2,7.3,1.9l.9.5c1.2.6,2.2,1.4,3,2.5v.6c-13.6-2.1-26.7-6.5-38.6-13.3s-14.7-9.9-21.3-15.8l-4.8-4.8c-9.1-10.2-16.5-21.7-21.7-34.4-3.1-7.5-5.2-15.2-7-23,.2-.6.5-.5.9,0l3.6,3.6c.6.3.9.7.9,1.3ZM31.2,187c.1,0,.3-.2.1-.3l-2.7-2.8c-3-3.1-5.5-6.6-8.2-10,1.3,2.9,3.2,5.4,5.4,7.6l5.4,5.5ZM36.1,191.5c-.1-.5-.5-.8-.9-.7.2.4.5.7.9.7ZM45.2,199c-.2-.3-.4-.6-.9-.5.2.4.5.6.9.7v-.2ZM45.4,199.2v.2c.2.3.4.6.9.5-.2-.4-.5-.6-.9-.7Z"/>
    <path class="st35" d="M110.3,219.5l.5.2c.7.6,4.9,4.8,5,5.2s-.2.3-.5.4h-7.1c0-.1-3-.3-3-.3-.9-.5-1.6-1.1-2.2-1.9-.3-.3-.3-.5,0-.9,0-.5,1.3-.2,1.8,0,.5.2,1,.2,1.5,0l-.5-.2c-1.3.1-2.5,0-3.6-.4-.6-.9-1.3-1.7-2.1-2.5l.4-.4,3.1.3,3.1.2,3.6.3ZM108.4,222.3c0-.1-.2-.2-.4-.2h-1.6c0,.1,0,.2.1.2.6,0,1.2,0,1.8,0ZM110.3,222.5c-.5-.2-1-.4-1.7-.3.5.4,1,.6,1.7.3Z"/>
    <path class="st59" d="M118.7,219.5c.8.2,2,1.4,1.4,2.2.2,0,.5,0,1,.2,1,.5,2,1.7,2.7,2.6l-.3.5-3.2.2h-4.9c.2-.2,0-.4-.4-.7l-4.2-4.2c-.2-.2-.4-.5-.4-.8h8.4Z"/>
    <path class="st8" d="M125.6,219.2c1,0,2.2,1.5,1.1,2-.2,0,0,.2.4.3.1-.3.7-.3,1,0,.8.3,3,1.9,2,2.7l-6.6.8c-.6-1.5-2.4-2.1-2.4-3.1l-1-.2c-.4-1.1-1.5-1.4-1.4-2.2,1.4,0,2.8,0,4.3-.2l2.6-.2Z"/>
    <path class="st15" d="M101.7,222c.4,0,.8,0,1.2.2,0-.2.1-.2.2,0,.6,1.2,2,1.8,2.2,2.8l-2.8-.2-6.8-.9-2.8-3.1.2-.5c2.8.5,5.7,1,8.5,1.5v.3Z"/>
    <path class="st31" d="M8.8,137.2c.8,3.4,1.9,6.8,3.1,10.3s0,.6,0,.9h-.2c-1.2-3-2.3-6-3.2-9.1,0-.3,0-.6-.2-1-.1-.5-.3-.8-.6-.9l-1.2-.9-3.5-3.5c-.2-.2-.5-.4-.8-.4-.4-1.8-.6-3.5-.9-5.3.2,0,.5.2.7.4l3.7,3.7.9.5.5,1.9.2-.8.4,2.1c.2.7,0,2.1.8,2.2ZM7.5,135.6c.2-.6.3-.9.2-1.3-.5.4-.3,1-.2,1.3Z"/>
    <path class="st20" d="M132.6,218.3c.6.3,1.7,1.1,1.7,1.8l-3.1.6c-.8-.2-1.7,0-2.6.3-.2.3.7.1,1,0-.1-.3.2-.4.5-.3.4.4,1,.2,1.6.1l3.4-.4c.8.3,2.4,1.7,2.1,2.5l-5.2.9-1.9.2c0-1.1-1.9-1.7-2-2.7-.3-.2-.6-.3-.9-.2-.1.2-.3.1-.4,0,.2-.8-.6-1.3-1.1-2l7-.9Z"/>
    <path class="st19" d="M149.5,220l-.7.3-5.8,1.4c-.6.3-2.4-1.7-2.3-1.9s.2-.3.4-.5l6.7-1.5c.8-.1,2.5,1.5,1.7,2.1Z"/>
    <path class="st37" d="M154.9,215.7c.6.2,1.8,1.2,1.4,1.9-2.1,1.1-4.5,2-6.9,2.4-.3-.9-1.2-1.4-1.7-2.1l7.1-2.2Z"/>
    <path class="st57" d="M143,221.8l-5.9,1.3-1.7-1.7c-.3-.2-.4-.5-.4-.8l6-1.1c0,.2,0,.4.3.6l1.7,1.8Z"/>
    <path class="st7" d="M100.5,218.7c0,0,0,.3.1.4l2.1,2.1-.5.4c-.9.2-2.5,0-3.5-.3s0-.1-.1-.3c0-.2,0-.2-.2,0,0,.1-.1.3-.1.3-.7,0-2.5-.3-2.5-1-.8-.5-2.4-1.6-2.1-2.6l6.9,1.1ZM101.7,220.9c-.3-.3-1.1-.2-1.7,0,0,0,0,0,.1.1.5,0,1,0,1.6,0Z"/>
    <path class="st87" d="M93.6,217.5l1.5,1.8c.3.3.5.5.5.8,0,.2-.2.4-.3.4-1.3-.1-3.4-.6-4.7-.9-.9,0-1.4-.3-1.5-.8-.6-1.3-2-1.9-2.4-2.9l6.8,1.6Z"/>
    <path class="st55" d="M156.3,217.6l-1-1.1c-.2-.2-.4-.5-.4-.8l5.3-1.5c.6-.2,1.3-.3,1.9.4l-5.7,3Z"/>
    <path class="st33" d="M152.2,213.7c.6-.3,1.1.7.6,1.1l-7.4,2.4c-.7.1-1.5-.6-1-1.2l7.8-2.2Z"/>
    <path class="st12" d="M138.4,217.3c.7-.1,1.5.9.9,1.5l-3.7.9-1.3.4c-.7-.4-1.5-1-1.7-1.8l5.8-1Z"/>
    <polygon class="st4" points="144.4 215.9 145.4 217.2 139.3 218.8 138.4 217.3 144.4 215.9"/>
    <path class="st86" d="M159.5,211.1c.6-.3,1,.3.6.8l-7.2,2.9-.6-1.1,7.2-2.6Z"/>
    <path class="st3" d="M169,206.8c.6-.3.8,0,.3.5l-9.3,4.6-.6-.8,9.5-4.3Z"/>
    <path class="st13" d="M189.5,194.6l-1.7,1.7c-2.4,1.6-4.5,3.5-7.3,4.6l6.4-5.2,2-1.6c.7-.4.9,0,.5.6Z"/>
    <path class="st38" d="M12.4,146.9c.3-.2.3-.5.4-.8,1.6,5.3,4,10.2,6.4,15.4-2.9-4.6-4.8-9.7-6.7-14.6Z"/>
    <path class="st91" d="M194.3,189.6c0,.5-.4.7-.6,1l-2.5,2.8-1.6,1.3c-.2-.3-.3-.4-.5-.6l1.5-1.4,2.5-2.5,1.2-.9c.3-.1.3,0,0,.3Z"/>
    <path class="st46" d="M155.6,210.2c-.6.2-.8-.3-.2-.6l9.8-4.2c0,.1,0,.3,0,.3l-7.3,3.6-2.3.9Z"/>
    <path class="st81" d="M87.8,202.3c-1-.3-1.3-.8-.9-1.3l8.7,2.1c-2.7.1-5.2-.6-7.7-.9Z"/>
    <path class="st23" d="M211.1,168.9l-4.4,6.2c-.6.3-.5,0-.3-.5l3.2-4.9.8-1.1c.3.1.4.2.6.3Z"/>
    <path class="st65" d="M175.8,203.2c.2-.1.3-.2.3,0l-1.8,1.1-5,2.9-.3-.5,6.8-3.6Z"/>
    <path class="st92" d="M86.8,201l.9,1.3c-1.1-.1-2.4-.5-3.3-1.2-.7-.3-1-.7-.7-1l3.1,1Z"/>
    <path class="st6" d="M25.6,146.4c.9.8,1,2.3,1.5,3.3,0,.3,0,.4-.2.5-.4-.3-.7-.7-1-1.3l-1.3-3.1c-.1-1.2.7,0,1,.5Z"/>
    <path class="st44" d="M147.3,212.5c.8,0,.8.4,0,.7l-5.1,1.4c-.6,0-.5-.3.2-.7l4.8-1.4Z"/>
    <path class="st42" d="M142.5,213.9l-.2.7-6.7,1.4c-.4,0-.3-.3.2-.5l6.6-1.6Z"/>
    <path class="st36" d="M126.4,11.7h-13.9c.2-.1.4-.2.7-.2l13.2.2Z"/>
    <path class="st42" d="M187.6,186.4c-.5.9-1.5,1.6-2.3,2.3l-1.8,1.4c-.6.3-.7.1-.3-.4.6-.4,1-1.1,1.8-1.5.7-.8,1.4-1.7,2.3-2,.3-.3.5-.2.2.2Z"/>
    <path class="st72" d="M29.7,155c-1-.2-1.1-1.3-1.5-2s-1.3-1.6-1.3-2.7,0-.4.2-.5c.9,1.7,1.9,3.4,2.6,5.2Z"/>
    <path class="st14" d="M155.4,209.6l.2.6-4.3,1.6c-.8.1-.8-.4-.1-.7l4.2-1.6Z"/>
    <path class="st25" d="M191.2,183.2c-.5.4-.7.3-.5-.3l1.6-1.7c.5-.5.9-1.7,1.9-1.5-.7,1.6-2,2.5-3,3.5Z"/>
    <path class="st21" d="M191.2,183.2l-2.6,2.7c-.3.3-.7.5-1,.6l-.2-.2,3.3-3.4.5.3Z"/>
    <path class="st78" d="M25.6,146.4l-.6-.6c-.1-.1-.3-.2-.4,0-.2-.4-.6-.9-.6-1.4s0-1.1-.2-1.7c-.1-.6,0-.7.4-.2l1.4,3.9Z"/>
    <polygon class="st5" points="206.8 175.1 202.6 180.2 202.4 180.1 206.5 174.6 206.8 175.1"/>
    <path class="st67" d="M151.3,211.8l-3.9,1.3c0-.2,0-.4,0-.7l3.9-1.3c0,.2,0,.5.1.7Z"/>
    <path class="st43" d="M83.7,200l.7,1c-1.3-.3-3.6-1.2-3.9-1.7-.4-.2-.5-.3-.2-.5l3.4,1.2Z"/>
    <path class="st54" d="M180.6,191.9c.5-.4.6-.2.3.4l-4.5,3.2c-.3.1-.4,0-.3-.2l4.6-3.4Z"/>
    <path class="st48" d="M133.4,215.9c.4,0,.5,0,.1.3l-6.5.9c-.2-.1-.1-.2.2-.3l6.2-1Z"/>
    <path class="st39" d="M176,195.3c0,0,.2,0,.3.2l-4.7,3-.2-.2,4.5-3Z"/>
    <path class="st76" d="M80.4,198.9l.2.5c-.9-.1-1.7-.6-2.6-1l-2.7-1.2c0,0,.1-.1.2-.2l4.9,1.9Z"/>
    <polygon class="st1" points="183.5 190.1 180.8 192.3 180.6 191.9 181.8 190.8 183.2 189.8 183.5 190.1"/>
    <path class="st51" d="M23,139.2c0,.5-.1.5-.3,0-.4-1.6-1.2-3.2-1.3-5.2l1.6,5.2Z"/>
    <path class="st28" d="M194.3,189.6v-.3s3-3.3,3-3.3c0,0,.2.1.1.1,0,.5-.6.7-.9,1.1-.7.9-1.3,1.8-2.2,2.3Z"/>
    <path class="st16" d="M40.6,187l-2.9-2.8c0-.1,0-.3,0-.3l3,2.9c.2.1,0,.3,0,.3Z"/>
    <path class="st89" d="M24.2,142.6l-.4.2c-.2-.8-.5-1.5-.7-2.4l-.3-1.2h.3s1.2,3.3,1.2,3.3Z"/>
    <path class="st90" d="M124.6,204.4c.6,0,.6.3,0,.5l-2.1.3c-.5,0-.7-.1-.4-.5l2.4-.3Z"/>
    <path class="st27" d="M122.2,204.7c0,.1.2.3.4.5-.5,0-.9.3-1.5.2-.7.2-.8-.2-.3-.7h1.5Z"/>
    <path class="st93" d="M127.2,204.1c.4.1.3.2,0,.3l-2.5.5v-.5s2.5-.3,2.5-.3Z"/>
    <polygon class="st33" points="135.8 215.5 135.7 216 133.5 216.3 133.4 215.9 135.8 215.5"/>
    <path class="st34" d="M116.6,215c-.2,0-.2-.1,0-.2h3.6c0,.1,0,.2-.1.2h-3.5Z"/>
    <path class="st13" d="M121,205.4c-.3,0-1,.4-1.2.2-.3-.2,0-.7.2-.7l.7-.2.3.7Z"/>
    <path class="st84" d="M114.6,214.8c.2,0,.2.1,0,.2-.6,0-1.2,0-1.7.2s-.9,0-.9-.4h2.6Z"/>
    <path class="st41" d="M127.2,216.9l-.2.3c-1,.1-2.1.4-3.1,0l3.2-.3Z"/>
    <path class="st10" d="M131.2,220.7h-1.2c-.2,0-.3.1-.5.3-.4.2-.7.2-1,0,.8-.7,2.6-.5,2.6-.6v.3Z"/>
    <path class="st52" d="M187.1,172.5l1.5-1.6c0,0,.2.1.2.1-.4.7-1.2,1.6-1.7,1.5Z"/>
    <path class="st47" d="M153.7,197.1c-.5,0-.3-.3,0-.5.5-.2,1-.7,1.7-.7-.5.6-1.1.8-1.8,1.2Z"/>
    <path class="st2" d="M153.7,197.1c-.3.2-.6.3-1,.4-.6,0-.6-.2,0-.5l1.1-.4v.5Z"/>
    <path class="st83" d="M127.1,204.4v-.3c.7,0,1.3-.4,1.9,0l-1.9.3Z"/>
    <path class="st38" d="M124,217.5h-2.3c0,0-.1,0-.1,0h2c.2,0,.3,0,.4,0Z"/>
    <path class="st53" d="M152.7,197.5l-1.4.5c-.2,0-.2-.2,0-.3l1.3-.7v.5Z"/>
    <polygon class="st74" points="116.6 214.8 116.6 215 114.6 215 114.6 214.8 116.6 214.8"/>
    <path class="st70" d="M201.5,181.3c.1-.5.6-.7.9-1,0,0,.1.1.1.1,0,.4-.5.7-.7.9-.1.2-.3,0-.2,0Z"/>
    <path class="st61" d="M176.1,203.3c0,0-.2,0-.3,0,.3-.3.7-.7,1.3-.7-.2.5-.6.5-1,.7Z"/>
    <path class="st85" d="M200.3,182.8c0-.4.3-.7.7-.9,0,.4-.2.8-.7.9Z"/>
    <path class="st62" d="M25.1,71.9c0-.5,0-.9.5-1.2,0,.4-.1.9-.5,1.2Z"/>
    <path class="st68" d="M151.3,197.6v.3c-.5.1-.9.3-1.2.1l1.2-.4Z"/>
    <path class="st71" d="M121.8,215.9c-.4.4-.9.2-1.4.3.4-.4,1-.3,1.4-.3Z"/>
    <path class="st18" d="M194.3,182.1c0-.4.3-.7.7-.9,0,.4-.2.8-.7.9Z"/>
    <path class="st75" d="M170.2,199.3c-.2.4-.5,0-.3-.1s.3-.3.8-.2c0,.1,0,.3-.5.4Z"/>
    <path class="st64" d="M43.6,41.9l3.8-3.9c.1,0,.3,0,.3,0l-3.9,4-.2-.2Z"/>
    <path class="st40" d="M38.8,48.2l-2.1,2.9c-.1,0-.1-.2,0-.4.6-1,1.2-1.9,1.9-2.9.4-.3.4,0,.2.4Z"/>
    <path class="st30" d="M38.8,48.2l-.2-.4c.6-.8,1.1-1.5,1.9-2.1-.4,1-1.1,1.7-1.7,2.5Z"/>
    <path class="st45" d="M4.8,119.1v-3c0,0,0-.1.1-.1v3c0,0,0,.1-.1.1Z"/>
    <path class="st32" d="M83.4,209.7c-.8,0-1.3-.3-1.9-.6.8-.1,1.3.2,1.9.6Z"/>
    <path class="st63" d="M9.1,94.7c-.1.2-.2.1-.2,0,0-.4.2-.8.3-1.2,0,0,0,0,.2,0,.1.5-.1.9-.2,1.3Z"/>
    <path class="st79" d="M15.1,71.5h.3c.2.4,0,.8-.2,1.1,0-.3-.2-.8,0-1.1Z"/>
    <path class="st73" d="M5.4,122.2c-.2-.3-.5-.7-.3-1.2.2.3.5.5.3,1.2Z"/>
    <path class="st66" d="M36.7,51.1c0,.1-.1.4-.2.5s-.3.1-.3,0c0-.4.4-.6.5-.8v.4Z"/>
    <path class="st82" d="M36.1,191.5c-.4,0-.7-.3-.9-.7.4,0,.8.2.9.7Z"/>
    <path class="st29" d="M110.3,222.5c-.7.3-1.2,0-1.7-.3.7,0,1.2.2,1.7.3Z"/>
    <path class="st26" d="M106.3,222.2c-.3.4-1.1.3-1.5,0h1.5Z"/>
    <path class="st11" d="M120.2,221.7c.3,0,.7,0,1,.2h-3.1c.7-.3,1.5-.1,2.2-.2Z"/>
    <path class="st80" d="M125.1,221.7c-.3,0-.6,0-.6-.1s.4-.5.8-.4.3.5-.2.5Z"/>
    <path class="st50" d="M128.1,221.5h-1c-.2,0-.2-.2,0-.2.1-.1.4-.2.6-.2s.4.3.4.4Z"/>
    <path class="st77" d="M102.8,222.2c-.3,0-.9-.2-1.2-.2.4-.1,1-.2,1.2.2Z"/>
    <path class="st35" d="M101.7,220.9c-.5.2-1.1,0-1.6,0,0,0-.1-.1-.1-.1.6-.2,1.4-.2,1.7,0Z"/>
    <path class="st49" d="M98.6,221c0,0-.2,0-.2,0,0-.2,0-.4.2-.5.5,0,.9-.1,1.2.2-.6,0-.9,0-1.2.3Z"/>
    <path class="st56" d="M8.8,95.9v-1.3c0,0,.3,0,.3,0-.1.3.2,1-.3,1.2Z"/>
  </g>
</svg>