<svg width="535" height="226" viewBox="0 0 535 226" fill="none" xmlns="http://www.w3.org/2000/svg">
<g clip-path="url(#clip0_1655_8779)">
<path d="M190.025 30.9271C193.915 33.8887 200.784 40.182 200.784 40.182C200.724 40.022 199.314 37.4306 199.314 37.4306C209.003 45.2047 218.821 63.3844 219.821 65.2654C201.454 26.985 161.679 0.500977 115.615 0.500977C115.445 0.500977 115.275 0.500977 115.105 0.500977C107.986 0.530992 101.017 1.20135 94.2477 2.44201C89.5483 3.65265 83.5791 5.27351 78.7397 6.91438C69.211 10.1261 58.4924 15.3088 41.9445 28.3858C25.3867 41.4627 14.4381 60.3427 9.28882 72.099C4.35946 83.345 1.90978 95.6315 1.70981 96.662C0.889914 102.155 0.479968 107.768 0.499965 113.481C0.529961 119.384 1.0099 125.187 1.89978 130.85L2.33972 131.11C2.33972 131.11 5.10936 149.86 14.1882 165.439C22.6171 179.906 28.6663 187.44 29.4862 188.441C32.5158 191.763 35.7554 194.914 39.1849 197.846C59.5522 215.285 86.8487 225.61 116.055 225.49C118.645 225.48 121.214 225.38 123.764 225.2C123.974 224.64 130.493 225.13 144.791 221.408C159.179 217.666 161.779 214.875 161.709 214.565C161.649 214.244 159.489 214.815 156.83 215.455C154.17 216.095 140.502 219.897 132.223 221.078C123.944 222.259 113.045 222.009 113.045 222.009C135.102 222.009 153.35 215.075 164.059 210.002C174.767 204.93 179.457 200.867 179.457 200.867C179.457 200.867 168.558 208.351 157.279 212.023C146.001 215.705 129.903 221.408 107.466 219.507C85.0289 217.606 66.3214 211.513 49.1636 198.496C32.0158 185.479 27.4264 176.895 27.4264 176.895C30.866 182.408 45.3241 195.324 52.2932 199.937C59.2623 204.549 64.1816 206.13 64.1816 206.13C45.864 197.886 29.6462 180.006 23.6869 170.931C17.7277 161.867 15.258 156.284 13.5783 152.732C13.7382 153.242 14.9381 156.314 14.9381 156.314C14.9381 156.314 12.9683 152.792 11.0086 147.849C4.0595 130.34 4.66942 111.45 4.66942 111.45C5.5593 139.095 12.8484 150.511 12.8484 150.511C9.85874 144.157 8.15896 135.273 7.65903 132.391C7.62903 132.391 7.59904 132.391 7.57904 132.391C7.33907 132.391 7.1291 132.221 7.0891 131.981C7.02911 131.641 7.00911 131.491 7.00911 131.491C6.97912 131.22 7.16909 130.98 7.43906 130.94C7.45906 130.94 7.47905 130.94 7.50905 130.94C7.74902 130.94 7.96899 131.12 7.99898 131.36L8.06897 131.811C8.10897 132.081 7.93899 132.321 7.66903 132.381C8.02898 134.092 9.15883 138.454 12.5684 147.839C17.2978 160.856 22.957 167.88 22.957 167.88C13.3283 154.103 10.2387 136.803 10.2387 136.803C13.5283 149.49 18.8976 160.946 31.2359 176.164C43.5743 191.382 61.572 201.618 61.572 201.618C51.6833 197.476 37.3251 183.948 37.3251 183.948C48.5637 195.194 64.1116 207.581 85.9088 212.904C107.706 218.227 123.684 215.825 123.684 215.825C118.235 216.336 112.275 215.445 105.686 213.924C108.346 214.054 111.135 213.164 111.135 213.164C87.5586 211.263 73.8304 204.579 67.7412 198.666C74.6703 200.867 82.6092 202.218 82.6092 202.218L82.3593 201.368C49.8935 188.281 37.5551 169.231 34.7355 164.138C30.0761 158.415 23.9069 145.748 23.6369 145.208C23.6169 145.158 23.5969 145.108 23.5869 145.048L23.377 143.397C23.087 142.706 22.787 141.866 22.4971 140.966C21.4772 138.204 20.5673 135.393 19.8074 132.521C19.1675 129.539 17.7477 119.244 17.3378 116.953C17.1878 116.122 17.0178 115.072 16.8578 114.031C16.7778 112.61 16.7178 111.19 16.7078 109.759L17.3478 109.489C17.3478 109.489 17.6377 100.404 18.9975 92.1096C20.3474 83.8252 21.1573 83.5951 21.4672 80.7336C21.5372 80.0632 21.5572 79.5329 21.5372 79.0927C22.0371 77.6219 22.5671 76.1611 23.137 74.7204C25.0268 69.9078 27.9564 65.6155 30.596 61.2032C39.0049 47.1157 50.3734 34.8892 64.7916 26.3347C65.0915 25.8144 65.5315 25.2441 66.7813 24.6138C68.5511 23.7233 69.5609 22.8829 70.8308 23.0229H70.8408C72.1106 22.3826 73.3904 21.7623 74.7003 21.172C76.0001 20.3815 77.5899 19.411 79.5796 18.4005C83.3791 16.4795 87.0886 15.8191 89.2084 15.8391C98.3572 13.2277 108.036 11.797 118.065 11.757C162.059 11.5669 199.654 37.9909 214.022 75.1306C213.682 73.1696 212.372 68.7272 207.593 59.6224C200.374 45.8651 183.346 30.1367 183.346 30.1367C200.584 42.1431 214.572 67.7167 215.162 68.397C215.752 69.0774 216.132 69.3675 216.092 68.397C216.052 67.4265 215.012 63.9347 209.373 54.2995C203.733 44.6644 190.025 30.8971 190.025 30.8971V30.9271Z" fill="url(#paint0_linear_1655_8779)"></path>
<path d="M98.2071 221.618C98.0271 221.538 97.9072 221.348 97.9172 221.138C92.4079 220.388 83.2591 218.577 71.8906 214.184C67.1012 212.333 62.6618 210.222 58.6123 208.021C63.2017 210.552 68.801 213.194 75.7101 215.785C84.7389 219.167 92.3779 220.828 98.2071 221.618V221.618Z" fill="#595A5A"></path>
<path d="M13.0983 150.96C13.0383 151 12.9683 151.01 12.8983 151.02C13.0983 151.451 13.2883 151.871 13.4682 152.261C13.5082 152.251 13.5482 152.241 13.5882 152.241C13.6482 152.241 13.7182 152.251 13.7682 152.271C13.5782 151.821 13.3883 151.351 13.1983 150.88C13.1683 150.91 13.1283 150.93 13.0983 150.96V150.96Z" fill="#595A5A"></path>
<path d="M167.098 200.577C167.178 200.757 167.368 200.867 167.548 200.867C167.608 200.867 167.678 200.857 167.738 200.827C192.715 190.602 210.022 158.054 210.202 157.724C210.332 157.484 210.242 157.194 210.002 157.054C209.923 157.014 209.843 156.984 209.763 156.984C209.593 156.984 209.433 157.074 209.333 157.224C209.243 157.374 200.184 172.322 189.755 183.008C179.716 193.293 167.438 199.847 167.318 199.907C167.088 200.027 166.988 200.317 167.098 200.557V200.577ZM190.115 183.368C200.694 172.522 209.763 157.494 209.763 157.494C209.763 157.494 192.655 190.091 167.558 200.367C167.558 200.367 179.906 193.843 190.115 183.368Z" fill="#595A5A"></path>
<path d="M209.753 157.494C209.753 157.494 200.694 172.522 190.105 183.368C179.886 193.833 167.548 200.367 167.548 200.367C192.645 190.091 209.753 157.494 209.753 157.494Z" fill="#595A5A"></path>
<path d="M146.001 213.474C159.949 208.991 165.608 205.439 165.608 205.439C165.608 205.439 142.121 217.026 121.164 217.696C121.164 217.696 132.063 217.946 146.001 213.474V213.474Z" fill="#595A5A"></path>
<path d="M120.664 217.696C120.664 217.966 120.884 218.186 121.154 218.196H121.494C123.404 218.196 133.563 217.996 146.161 213.944C159.999 209.492 165.648 206.01 165.878 205.86C166.108 205.72 166.178 205.419 166.048 205.189C165.958 205.029 165.788 204.929 165.608 204.929C165.538 204.929 165.458 204.949 165.388 204.979C165.158 205.089 141.751 216.525 121.154 217.186C120.884 217.186 120.664 217.416 120.674 217.686L120.664 217.696ZM165.608 205.439C165.608 205.439 159.949 208.991 146.001 213.474C132.063 217.956 121.164 217.696 121.164 217.696C142.121 217.016 165.608 205.439 165.608 205.439Z" fill="#595A5A"></path>
<path d="M119.804 205.69C125.344 205.35 128.893 203.999 128.893 203.999C125.724 205.06 119.804 205.06 119.804 205.06V205.69Z" fill="#595A5A"></path>
<path d="M129.363 203.829C129.293 203.619 129.093 203.499 128.893 203.499C128.843 203.499 128.783 203.499 128.733 203.529C125.684 204.549 119.864 204.559 119.804 204.559C119.524 204.559 119.304 204.779 119.304 205.059V205.69C119.304 205.83 119.364 205.96 119.464 206.05C119.554 206.14 119.684 206.19 119.804 206.19C119.804 206.19 119.824 206.19 119.834 206.19C125.384 205.85 128.923 204.529 129.063 204.469C129.313 204.369 129.443 204.089 129.353 203.839L129.363 203.829ZM119.804 205.69V205.059C119.804 205.059 125.724 205.059 128.893 203.999C128.893 203.999 125.344 205.35 119.804 205.69Z" fill="#595A5A"></path>
<path d="M149.271 198.656C153.42 197.675 155.64 195.774 155.64 195.774C153.45 196.915 149.271 198.656 149.271 198.656Z" fill="#595A5A"></path>
<path d="M149.26 199.156C149.26 199.156 149.34 199.156 149.38 199.146C153.6 198.145 155.86 196.234 155.96 196.154C156.15 195.984 156.19 195.704 156.05 195.494C155.95 195.354 155.8 195.274 155.64 195.274C155.56 195.274 155.48 195.294 155.41 195.334C153.27 196.455 149.121 198.185 149.081 198.195C148.841 198.296 148.721 198.566 148.801 198.816C148.871 199.026 149.061 199.166 149.28 199.166L149.26 199.156ZM155.63 195.774C155.63 195.774 153.41 197.675 149.26 198.656C149.26 198.656 153.44 196.915 155.63 195.774Z" fill="#595A5A"></path>
<path d="M187.126 173.213L187.635 172.922C187.635 172.922 187.715 172.872 187.745 172.842C187.955 172.632 192.825 167.74 194.245 164.848C194.365 164.608 194.275 164.318 194.045 164.188C193.965 164.148 193.885 164.118 193.805 164.118C193.635 164.118 193.475 164.198 193.385 164.348C192.065 166.409 186.586 172.372 186.526 172.432C186.356 172.612 186.346 172.892 186.506 173.082C186.606 173.203 186.746 173.273 186.896 173.273C186.976 173.273 187.066 173.253 187.136 173.213H187.126ZM193.785 164.628C192.395 167.479 187.385 172.492 187.385 172.492L186.876 172.772C186.876 172.772 192.425 166.749 193.785 164.618V164.628Z" fill="#595A5A"></path>
<path d="M193.785 164.628C192.425 166.749 186.876 172.782 186.876 172.782L187.385 172.502C187.385 172.502 192.395 167.489 193.785 164.638V164.628Z" fill="#595A5A"></path>
<path d="M228.38 112.95C228.36 112.7 228.15 112.5 227.89 112.49H227.88C227.63 112.49 227.42 112.67 227.38 112.92L227.32 113.391C226.38 121.055 224.291 135.412 220.891 145.488C216.752 157.754 213.842 162.577 208.623 170.721C203.343 178.976 196.684 186.129 192.025 190.672C187.365 195.224 181.076 200.077 179.936 200.947C179.916 201.057 179.866 201.167 179.776 201.237C179.756 201.257 179.676 201.327 179.547 201.427C179.527 201.538 179.546 201.648 179.606 201.748C179.696 201.908 179.866 201.988 180.036 201.988C180.106 201.988 180.176 201.968 180.246 201.948C193.685 195.804 216.982 164.318 222.631 147.629C227.8 132.351 228.95 119.394 228.36 112.94L228.38 112.95ZM222.181 147.479C216.732 163.587 193.795 195.234 180.056 201.507C180.056 201.507 187.195 196.115 192.395 191.042C197.594 185.969 203.993 178.926 209.063 171.001C214.132 163.077 217.152 158.174 221.381 145.658C225.6 133.141 227.76 113.911 227.89 113.001C228.4 118.563 227.64 131.37 222.181 147.479V147.479Z" fill="#595A5A"></path>
<path d="M221.371 145.658C217.142 158.174 214.122 163.077 209.053 171.001C203.983 178.925 197.584 185.969 192.385 191.042C187.186 196.115 180.047 201.507 180.047 201.507C193.775 195.234 216.722 163.587 222.171 147.479C227.62 131.37 228.38 118.563 227.88 113C227.75 113.911 225.601 133.151 221.371 145.658V145.658Z" fill="#595A5A"></path>
<path d="M82.7092 201.017C84.9989 202.048 86.6786 202.768 86.9386 202.768C87.2286 202.768 90.4282 203.118 95.0676 203.668C95.0676 203.668 95.4775 203.718 95.4875 203.718C95.7375 203.718 95.9574 203.528 95.9874 203.278C96.0174 203.008 95.8274 202.758 95.5475 202.728L95.1875 202.688C86.8086 201.637 74.4203 196.084 74.3003 196.024C74.2303 195.994 74.1603 195.984 74.0903 195.984C73.9003 195.984 73.7203 196.094 73.6304 196.275C73.5204 196.525 73.6304 196.815 73.8703 196.935C76.41 198.126 79.1796 199.426 81.5193 200.487C81.8693 200.627 82.1992 200.777 82.5492 200.917C82.6092 200.937 82.6492 200.977 82.6992 201.017H82.7092ZM74.0903 196.475C74.0903 196.475 86.5787 202.108 95.1275 203.178C95.3575 203.208 95.4875 203.218 95.4875 203.218C95.3675 203.208 95.2475 203.188 95.1275 203.178C93.5577 202.998 87.4086 202.268 86.9386 202.268C86.3987 202.268 74.0903 196.475 74.0903 196.475Z" fill="#595A5A"></path>
<path d="M95.1276 203.179C86.5787 202.108 74.0903 196.475 74.0903 196.475C74.0903 196.475 86.3987 202.268 86.9386 202.268C87.4086 202.268 93.5578 202.989 95.1276 203.179V203.179Z" fill="#595A5A"></path>
<path d="M95.1276 203.178C95.2475 203.188 95.3675 203.208 95.4875 203.218C95.4875 203.218 95.3575 203.198 95.1276 203.178Z" fill="#595A5A"></path>
<path d="M50.1434 180.997C50.1434 180.997 55.8427 185.939 60.0321 188.821C64.2116 191.692 70.4308 194.784 70.4308 194.784C70.4308 194.784 59.4922 188.781 50.1534 180.997H50.1434Z" fill="#595A5A"></path>
<path d="M70.4208 195.284C70.6008 195.284 70.7708 195.184 70.8608 195.014C70.9907 194.774 70.9007 194.474 70.6608 194.343C70.5508 194.283 59.6522 188.27 50.4634 180.616C50.3734 180.536 50.2534 180.496 50.1435 180.496C50.0035 180.496 49.8635 180.556 49.7635 180.676C49.6735 180.776 49.6335 180.906 49.6435 181.036C54.8628 185.679 61.672 190.651 70.4108 195.274L70.4208 195.284ZM50.1435 180.996C59.4822 188.78 70.4208 194.784 70.4208 194.784C70.4208 194.784 64.2116 191.702 60.0222 188.821C55.8427 185.949 50.1335 180.996 50.1335 180.996H50.1435Z" fill="#595A5A"></path>
<path d="M32.1558 188.16C34.4954 190.221 34.9154 191.362 40.2947 195.734C45.684 200.107 54.5528 208.411 75.5301 216.255C90.9181 222.018 102.367 222.779 107.366 222.779C109.186 222.779 110.156 222.679 110.156 222.679C106.766 222.489 98.3971 221.158 98.3971 221.158C100.487 221.408 103.656 221.158 103.656 221.158C103.656 221.158 91.068 221.078 72.0505 213.714C53.043 206.36 39.1448 194.834 32.2357 187.88C25.3267 180.926 18.3176 171.011 18.3176 171.011C22.267 178.895 29.7961 186.079 32.1458 188.14L32.1558 188.16ZM71.8906 214.194C83.2491 218.586 92.3979 220.397 97.9172 221.148C97.9172 221.358 98.0271 221.548 98.2071 221.628C92.3779 220.838 84.7389 219.177 75.7101 215.795C68.801 213.214 63.2017 210.572 58.6123 208.031C62.6618 210.232 67.1012 212.333 71.8906 214.194V214.194Z" fill="#595A5A"></path>
<path d="M43.8442 30.6665C52.983 22.0119 61.5019 17.5596 61.5019 17.5596C51.0233 21.7018 40.9746 31.3469 29.7361 45.2943C18.4976 59.2417 14.6981 72.2686 14.6981 72.2686C27.1164 47.0252 34.7154 39.3211 43.8542 30.6665H43.8442Z" fill="#595A5A"></path>
<path d="M17.9277 155.783C17.9277 155.783 7.21906 135.682 7.21906 110.569C7.21906 85.4558 14.3781 74.3599 14.3781 74.3599C14.3781 74.3599 10.1287 84.6953 8.98882 94.9008C9.42877 92.2394 10.1887 90.7185 10.1887 90.7185C10.1887 90.7185 8.49889 94.6206 8.22892 108.408C7.95896 122.205 9.44876 134.412 17.9277 155.783V155.783Z" fill="#595A5A"></path>
<path d="M220.281 65.055C201.314 25.534 160.239 0.000488281 115.615 0.000488281H115.105C108.086 0.0305042 101.037 0.690855 94.1276 1.95152C89.7982 3.06211 83.589 4.74301 78.5796 6.4339C70.2407 9.2454 59.3221 14.0179 41.6345 27.9954C22.397 43.2034 11.6584 65.4452 8.82875 71.8987C3.90939 83.1246 1.47971 95.231 1.20975 96.5918C0.389853 102.165 -0.020093 107.848 -9.56222e-05 113.491C0.0199018 119.304 0.499839 125.167 1.39972 130.93C1.41972 131.08 1.50971 131.21 1.63969 131.28L1.87966 131.42C2.23961 133.651 5.27921 151.151 13.7581 165.688C22.267 180.286 28.4262 187.94 29.1261 188.781C32.2057 192.152 35.4853 195.334 38.8748 198.236C59.7821 216.135 87.0185 226 115.555 226H116.075C118.574 225.99 121.184 225.89 123.824 225.71C123.954 225.71 124.064 225.64 124.154 225.56C124.404 225.48 125.224 225.4 126.093 225.32C129.063 225.03 135.252 224.43 144.951 221.908C158.039 218.506 162.459 215.595 162.239 214.474C162.209 214.324 162.079 213.984 161.479 213.984C160.879 213.984 159.569 214.294 157.779 214.724L156.749 214.975C156.219 215.105 155.25 215.355 153.98 215.685C151.01 216.455 146.111 217.736 141.241 218.837C149.03 216.836 156.769 214.024 164.298 210.462C173.817 205.95 178.547 202.288 179.586 201.447C179.606 201.317 179.666 201.197 179.776 201.117C179.776 201.117 179.866 201.047 179.976 200.967C179.996 200.837 179.976 200.697 179.886 200.577C179.786 200.447 179.636 200.377 179.486 200.377C179.386 200.377 179.286 200.407 179.206 200.467C179.096 200.547 168.238 207.951 157.159 211.563L155.63 212.063C146.191 215.155 133.252 219.397 116.365 219.397C113.465 219.397 110.495 219.267 107.546 219.017C88.0684 217.366 72.0305 212.493 57.8723 203.829C61.5818 205.8 63.9315 206.57 64.0715 206.61C64.1215 206.63 64.1715 206.63 64.2215 206.63C64.4215 206.63 64.6114 206.51 64.6914 206.31C64.7914 206.06 64.6714 205.78 64.4315 205.67C46.5538 197.625 30.2359 179.926 24.1467 170.661C23.4868 169.661 22.8669 168.7 22.297 167.78C22.507 168.06 22.6169 168.2 22.6269 168.21C22.7269 168.33 22.8669 168.39 23.0169 168.39C23.1169 168.39 23.2269 168.36 23.3169 168.29C23.5368 168.13 23.5768 167.82 23.4268 167.599C20.4772 163.377 18.1375 158.795 16.3178 154.482C19.8773 161.636 24.5767 168.67 30.9159 176.484C32.9056 178.945 35.0553 181.277 37.255 183.468C37.175 183.488 37.095 183.538 37.0251 183.598C36.8351 183.798 36.8351 184.108 37.0251 184.298C46.7638 194.044 62.4217 207.671 85.8487 213.394C97.6071 216.265 107.656 216.866 114.015 216.866C120.374 216.866 123.774 216.325 123.814 216.315C124.084 216.275 124.274 216.025 124.234 215.765C124.204 215.515 123.984 215.325 123.734 215.325C123.714 215.325 123.704 215.325 123.684 215.325C122.674 215.415 121.624 215.465 120.534 215.465C117.235 215.465 113.645 215.055 109.156 214.154C110.385 213.934 111.265 213.654 111.325 213.634C111.555 213.564 111.695 213.334 111.665 213.104C111.635 212.864 111.445 212.683 111.205 212.663C86.7086 210.682 74.8301 203.849 69.8208 199.797C76.0999 201.598 82.4891 202.688 82.5591 202.708C82.5891 202.708 82.6191 202.708 82.6391 202.708C82.7791 202.708 82.919 202.648 83.009 202.538C83.119 202.408 83.169 202.228 83.109 202.058L82.8591 201.217C82.8291 201.127 82.7791 201.057 82.7191 200.997C82.3391 200.827 81.9492 200.647 81.5392 200.467C77.5298 198.816 73.8202 197.065 70.4207 195.264C70.3507 195.264 70.2807 195.244 70.2107 195.214C70.1507 195.184 63.9215 192.082 59.7521 189.221C55.5926 186.359 49.8834 181.417 49.8234 181.367C49.7234 181.277 49.6634 181.157 49.6534 181.027C41.5445 173.823 37.275 167.439 35.5153 164.448C35.4453 164.488 35.3753 164.518 35.2953 164.518C35.1553 164.518 35.0053 164.458 34.9053 164.338C34.8553 164.278 34.8054 164.208 34.7454 164.148C37.575 169.24 49.9034 188.29 82.3691 201.377L82.6191 202.228C82.6191 202.228 74.6801 200.877 67.751 198.676C73.8402 204.589 87.5684 211.273 111.145 213.174C111.145 213.174 108.356 214.064 105.696 213.934C112.285 215.455 118.244 216.345 123.694 215.835C123.694 215.835 107.726 218.246 85.9187 212.914C64.1215 207.591 48.5735 195.204 37.335 183.958C37.335 183.958 51.7031 197.485 61.5818 201.628C61.5818 201.628 43.5842 191.392 31.2458 176.174C18.9074 160.956 13.5381 149.5 10.2486 136.813C10.2486 136.813 13.3282 154.102 22.9669 167.89C22.9669 167.89 17.3076 160.876 12.5783 147.849C9.1687 138.454 8.03885 134.092 7.6789 132.391C7.6789 132.391 7.6789 132.391 7.6689 132.391C8.16884 135.272 9.86861 144.167 12.8582 150.51C12.8582 150.51 5.56918 139.094 4.67929 111.45C4.67929 111.45 4.05937 130.34 11.0185 147.849C12.9882 152.792 14.9479 156.313 14.9479 156.313C14.9479 156.313 13.7481 153.242 13.5881 152.732C15.2679 156.283 17.7376 161.866 23.6968 170.931C29.656 179.996 45.8739 197.886 64.1915 206.13C64.1915 206.13 59.2721 204.539 52.3031 199.937C45.334 195.334 30.8759 182.407 27.4363 176.894C27.4363 176.894 32.0257 185.479 49.1735 198.496C66.3312 211.513 85.0388 217.606 107.476 219.507C129.913 221.408 146.001 215.705 157.289 212.023C168.568 208.341 179.466 200.867 179.466 200.867C179.466 200.867 174.777 204.929 164.068 210.002C153.36 215.075 135.112 222.008 113.055 222.008C113.055 222.008 123.954 222.258 132.233 221.078C140.512 219.897 154.18 216.085 156.839 215.455C159.499 214.825 161.659 214.254 161.719 214.564C161.779 214.885 159.179 217.666 144.801 221.408C130.503 225.13 123.984 224.64 123.774 225.2C121.224 225.38 118.654 225.48 116.065 225.49C86.8585 225.61 59.5621 215.285 39.1948 197.846C35.7652 194.904 32.5256 191.762 29.496 188.441C28.6662 187.43 22.6269 179.896 14.198 165.438C5.11923 149.85 2.3496 131.11 2.3496 131.11L1.90965 130.85C1.01977 125.187 0.539834 119.384 0.509838 113.481C0.48984 107.768 0.899787 102.145 1.71968 96.6618C1.91965 95.6213 4.35933 83.3347 9.29869 72.0988C14.448 60.3425 25.4066 41.4625 41.9544 28.3856C58.5022 15.3086 69.2308 10.1259 78.7496 6.91416C83.589 5.28329 89.5582 3.65243 94.2576 2.44178C101.017 1.20113 107.986 0.53077 115.115 0.500754C115.285 0.500754 115.455 0.500754 115.625 0.500754C161.689 0.500754 201.464 26.9848 219.831 65.2751C218.831 63.3941 209.013 45.2045 199.324 37.4404C199.324 37.4404 200.734 40.0317 200.794 40.1918C200.794 40.1918 193.915 33.8885 190.035 30.9369C190.035 30.9369 203.743 44.6942 209.383 54.3393C215.022 63.9745 216.062 67.4663 216.102 68.4368C216.142 69.4073 215.762 69.1172 215.172 68.4368C214.582 67.7565 200.594 42.1829 183.356 30.1765C183.356 30.1765 200.384 45.9049 207.603 59.6622C212.382 68.767 213.692 73.2094 214.032 75.1704C199.664 38.0207 162.079 11.6067 118.074 11.7968C108.046 11.8368 98.357 13.2675 89.2182 15.8789C87.0985 15.8689 83.389 16.5193 79.5895 18.4403C77.5997 19.4508 76.01 20.4113 74.7101 21.2118C73.4103 21.8021 72.1205 22.4224 70.8506 23.0627H70.8406C69.5708 22.9227 68.5609 23.7731 66.7912 24.6536C65.5413 25.2839 65.1014 25.8542 64.8014 26.3745C50.3733 34.919 39.0148 47.1555 30.6059 61.243C27.9662 65.6653 25.0466 69.9476 23.1469 74.7602C22.5769 76.2009 22.047 77.6617 21.5471 79.1325C21.5671 79.5727 21.5471 80.103 21.4771 80.7734C21.1571 83.6249 20.3572 83.855 19.0074 92.1494C17.6576 100.434 17.3576 109.529 17.3576 109.529L16.7177 109.799C16.7377 111.23 16.7877 112.65 16.8677 114.071C17.0277 115.112 17.2077 116.162 17.3476 116.993C17.7576 119.294 19.1774 129.579 19.8173 132.561C20.5772 135.432 21.4871 138.244 22.507 141.005C21.0571 136.483 19.7473 130.15 19.6873 129.829C19.6573 129.689 19.6873 129.549 19.7673 129.449C19.4074 127.258 18.9974 124.477 18.6375 122.065C18.2975 119.764 17.9975 117.773 17.8376 116.903C17.6876 116.082 17.5176 115.032 17.3576 114.041C17.2776 112.66 17.2276 111.38 17.2077 110.129L17.5376 109.989C17.7176 109.909 17.8376 109.739 17.8376 109.549C17.8376 109.459 18.1475 100.394 19.4774 92.2395C20.2673 87.3869 20.8672 85.3458 21.2971 83.855C21.5971 82.8145 21.817 82.0541 21.957 80.8434C22.027 80.2531 22.047 79.7228 22.037 79.2225C22.517 77.7918 23.0469 76.361 23.5968 74.9603C25.0666 71.2183 27.2163 67.7264 29.2961 64.3446C29.876 63.4041 30.4559 62.4637 31.0158 61.5131C39.9247 46.5952 51.3732 34.919 65.0414 26.8147C65.1114 26.7747 65.1714 26.7047 65.2214 26.6346C65.4713 26.2044 65.8313 25.6941 67.0011 25.1138C67.4611 24.8837 67.861 24.6636 68.241 24.4535C69.1808 23.9332 69.8508 23.563 70.5607 23.563C70.6307 23.563 70.8506 23.573 70.8506 23.573C70.9306 23.573 71.0006 23.553 71.0706 23.523C72.3404 22.8826 73.6303 22.2623 74.9601 21.652C76.3699 20.7915 77.8997 19.871 79.7995 18.9005C83.459 17.0495 87.0185 16.3892 89.1982 16.3892C89.1982 16.3892 89.2882 16.3892 89.3382 16.3692C98.637 13.7178 108.296 12.347 118.064 12.307H118.524C160.769 12.307 198.964 37.6505 213.552 75.3605C213.632 75.5606 213.822 75.6807 214.022 75.6807C214.062 75.6807 214.112 75.6807 214.152 75.6607C214.402 75.5906 214.552 75.3505 214.512 75.0904C214.122 72.8392 212.682 68.2967 208.033 59.432C204.113 51.9681 197.274 43.8738 191.835 38.0407C197.974 44.1339 205.523 53.3988 213.952 67.4463C214.512 68.3768 214.682 68.6569 214.772 68.767C215.232 69.2973 215.532 69.5574 215.892 69.5574C216.062 69.5574 216.232 69.4874 216.352 69.3573C216.582 69.1172 216.592 68.747 216.582 68.4068C216.542 67.5163 215.802 64.3446 209.792 54.0792C206.573 48.5863 200.704 41.7026 196.254 36.81C198.554 38.8411 200.404 40.522 200.444 40.562C200.544 40.6521 200.664 40.6921 200.784 40.6921C200.884 40.6921 200.984 40.6621 201.064 40.602C201.254 40.472 201.334 40.2218 201.244 40.0017C201.224 39.9617 201.154 39.8216 201.054 39.6315C209.932 48.016 218.371 63.6343 219.371 65.5153C219.461 65.6854 219.631 65.7854 219.811 65.7854C219.891 65.7854 219.961 65.7654 220.031 65.7354C220.271 65.6153 220.371 65.3152 220.261 65.075L220.281 65.055ZM13.5881 152.241C13.5881 152.241 13.5081 152.241 13.4681 152.261C13.2882 151.871 13.0982 151.461 12.8982 151.021C12.9682 151.021 13.0382 151.001 13.0982 150.961C13.1382 150.941 13.1682 150.911 13.1982 150.881C13.3882 151.351 13.5781 151.821 13.7681 152.271C13.7081 152.251 13.6481 152.241 13.5881 152.241V152.241Z" fill="#595A5A"></path>
<path d="M179.946 200.958C179.836 201.038 179.756 201.108 179.746 201.108C179.637 201.188 179.577 201.308 179.557 201.438C179.677 201.338 179.766 201.268 179.786 201.248C179.876 201.168 179.926 201.068 179.946 200.958V200.958Z" fill="#595A5A"></path>
<path d="M82.5592 200.917C82.2093 200.777 81.8793 200.627 81.5294 200.487C81.9393 200.677 82.3293 200.847 82.7092 201.017C82.6692 200.977 82.6192 200.937 82.5592 200.917Z" fill="#595A5A"></path>
<path d="M59.7422 189.231C63.9016 192.092 70.1308 195.194 70.2008 195.224C70.2708 195.254 70.3408 195.274 70.4108 195.274C61.6719 190.652 54.8628 185.669 49.6435 181.037C49.6435 181.167 49.7135 181.287 49.8135 181.377C49.8735 181.427 55.5827 186.369 59.7422 189.231V189.231Z" fill="#595A5A"></path>
<path d="M7.66897 132.401C7.66897 132.401 7.66897 132.401 7.67897 132.401C7.63897 132.211 7.60898 132.041 7.57898 131.911C7.59898 132.051 7.62897 132.211 7.65897 132.401H7.66897Z" fill="#595A5A"></path>
<path d="M7.58897 131.911C7.53898 131.621 7.51898 131.46 7.51898 131.46C7.51898 131.46 7.53898 131.601 7.58897 131.911Z" fill="#595A5A"></path>
<path d="M63.7817 16.0188C65.3015 15.3885 71.7306 12.2168 71.7306 12.2168C67.5512 13.3874 63.7817 16.0188 63.7817 16.0188V16.0188Z" fill="#595A5A"></path>
<path d="M63.7817 16.5196C63.8417 16.5196 63.9116 16.5096 63.9716 16.4796C65.4914 15.8492 71.6906 12.7876 71.9506 12.6575C72.1806 12.5375 72.2905 12.2673 72.2006 12.0272C72.1206 11.8271 71.9406 11.707 71.7306 11.707C71.6906 11.707 71.6406 11.707 71.5906 11.727C67.3712 12.9077 63.6417 15.499 63.4917 15.6091C63.2817 15.7592 63.2117 16.0393 63.3417 16.2594C63.4317 16.4195 63.6017 16.5196 63.7817 16.5196V16.5196ZM71.7306 12.2173C71.7306 12.2173 65.3015 15.389 63.7817 16.0193C63.7817 16.0193 67.5512 13.3879 71.7306 12.2173Z" fill="#595A5A"></path>
<path d="M25.6566 146.719C22.717 139.895 20.1873 129.729 20.1873 129.729C20.1873 129.729 21.5271 136.303 23.0069 140.885C25.5866 147.829 28.9962 154.443 33.1956 160.666C30.9959 157.054 27.6063 151.241 25.6566 146.719V146.719Z" fill="#595A5A"></path>
<path d="M35.2954 164.027C35.2954 164.027 35.2054 163.887 35.0454 163.637C35.0854 163.717 35.1454 163.807 35.1954 163.897C35.2254 163.937 35.2654 163.977 35.2954 164.017V164.027Z" fill="#595A5A"></path>
<path d="M23.007 140.886C21.5272 136.303 20.1874 129.73 20.1874 129.73C20.1874 129.73 22.717 139.905 25.6566 146.719C27.6064 151.241 30.9959 157.054 33.1957 160.666C33.6256 161.297 34.0356 161.937 34.4855 162.567C34.5155 162.607 34.5355 162.647 34.5555 162.697C34.6155 162.817 34.7755 163.147 35.0554 163.648C35.2154 163.898 35.3054 164.038 35.3054 164.038C35.2754 163.998 35.2354 163.958 35.2054 163.918C35.2954 164.088 35.4054 164.268 35.5254 164.468C35.5553 164.458 35.5753 164.468 35.6053 164.438C35.8153 164.278 35.8753 163.988 35.7253 163.768C35.6553 163.668 29.1262 153.472 26.1266 146.529C23.237 139.825 20.7073 129.71 20.6773 129.61C20.6173 129.38 20.4173 129.229 20.1974 129.229C20.1574 129.229 20.1274 129.229 20.0874 129.239C19.9574 129.27 19.8574 129.34 19.7874 129.44C19.9974 130.7 20.1774 131.771 20.3273 132.441C21.0872 135.303 21.9971 138.114 23.017 140.876L23.007 140.886Z" fill="#595A5A"></path>
<path d="M24.2269 145.258C26.8865 151.471 30.1861 157.364 34.0756 162.847C34.0756 162.847 34.2955 163.317 34.7555 164.148C34.8055 164.208 34.8655 164.278 34.9155 164.338C35.0155 164.458 35.1554 164.518 35.3054 164.518C35.3854 164.518 35.4554 164.478 35.5254 164.448C35.4054 164.248 35.3054 164.068 35.2054 163.898C30.896 158.645 25.1367 147.079 24.2469 145.258H24.2269Z" fill="#595A5A"></path>
<path d="M22.517 140.996C23.0169 142.336 23.5369 143.657 24.0968 144.968L23.8768 143.287C23.5869 142.606 23.2969 141.776 23.007 140.876C21.9771 138.114 21.0772 135.293 20.3173 132.441C20.1773 131.761 19.9873 130.7 19.7774 129.439C19.6974 129.55 19.6674 129.69 19.6974 129.82C19.7674 130.14 21.0672 136.473 22.517 140.996V140.996Z" fill="#595A5A"></path>
<path d="M34.0755 162.847C30.186 157.364 26.8865 151.471 24.2268 145.257C24.1468 145.097 24.1068 145.007 24.1068 145.007V144.967C23.5469 143.657 23.017 142.326 22.527 140.995C22.817 141.896 23.107 142.726 23.4069 143.426L23.6169 145.077C23.6169 145.127 23.6369 145.187 23.6669 145.237C23.9269 145.778 30.106 158.444 34.7654 164.167C34.3055 163.337 34.0855 162.867 34.0855 162.867L34.0755 162.847Z" fill="#595A5A"></path>
<path d="M24.2268 145.258C24.1869 145.158 24.1369 145.068 24.0969 144.968V145.008C24.0969 145.008 24.1469 145.098 24.2268 145.258Z" fill="#595A5A"></path>
<path d="M34.5454 162.687C34.5454 162.687 34.5054 162.597 34.4754 162.557C34.0355 161.926 33.6156 161.286 33.1856 160.656C34.0355 162.047 34.6954 163.107 35.0354 163.637C34.7554 163.137 34.5954 162.797 34.5354 162.687H34.5454Z" fill="#595A5A"></path>
<path d="M35.1954 163.907C35.1454 163.817 35.0954 163.727 35.0454 163.647C34.7054 163.117 34.0455 162.056 33.1956 160.666C29.0062 154.442 25.5866 147.829 23.007 140.885C23.2969 141.786 23.5869 142.616 23.8768 143.297L24.0968 144.977C24.1368 145.077 24.1868 145.168 24.2268 145.268C25.1267 147.099 30.8859 158.655 35.1854 163.907H35.1954Z" fill="#595A5A"></path>
<path d="M108.146 100.134H93.9678V129.73C93.9678 131.991 92.8379 133.121 90.6582 133.121C88.4785 133.121 87.3487 133.031 86.8287 132.771C85.6089 132.421 84.999 131.381 84.999 129.73V100.134H81.8694C79.5197 100.134 78.3898 98.9133 78.3898 96.482C78.3898 94.0507 79.5197 92.74 81.8694 92.74H84.999V84.6457C84.999 82.4746 86.1288 81.334 88.3085 81.334C90.4882 81.334 91.6981 81.424 92.218 81.5941C93.3479 82.0244 93.9578 82.9849 93.9578 84.6357V92.73H108.136C110.396 92.73 111.525 94.1208 111.525 96.8222C111.525 99.0834 110.396 100.134 108.136 100.134" fill="white"></path>
<path d="M126.324 88.4779C125.194 89.2583 123.884 89.6085 122.324 89.6085C120.674 89.6085 119.364 89.2583 118.325 88.4779C117.105 87.6074 116.495 86.4768 116.495 85.0861C116.495 83.6053 117.105 82.4747 118.235 81.6042C119.364 80.8238 120.674 80.4736 122.324 80.4736C123.894 80.4736 125.194 80.8238 126.324 81.6042C127.543 82.4747 128.153 83.6053 128.153 85.0861C128.153 86.4768 127.543 87.6074 126.324 88.4779M123.544 133.132C121.454 133.132 120.234 133.042 119.714 132.751C118.585 132.371 117.975 131.231 117.975 129.44V95.9018C117.975 93.5306 119.104 92.2999 121.284 92.2999C123.464 92.2999 124.594 92.4 125.114 92.5801C126.334 93.0503 126.853 94.1909 126.853 95.8918V129.43C126.853 131.891 125.814 133.122 123.544 133.122" fill="white"></path>
<path d="M183.656 130.51C179.477 132.251 174.957 133.122 169.998 133.122H156.25C142.241 133.122 135.112 129.29 134.852 121.636C134.682 117.283 134.762 111.89 134.942 105.357C135.292 96.9125 142.341 92.7303 156.17 92.7303H182.966V84.7161C182.966 82.5449 184.006 81.4043 186.276 81.4043C188.275 81.4043 189.585 81.4943 190.105 81.6644C191.325 82.0146 191.935 83.0552 191.935 84.7061V120.575C191.935 124.927 189.155 128.239 183.676 130.5M182.976 100.204H156.01C147.921 100.204 143.921 101.945 143.921 105.517V119.965C143.921 122.576 145.491 124.317 148.441 125.097C149.831 125.448 152.36 125.528 156.18 125.528H169.058C178.277 125.528 182.976 123.877 182.976 120.395V100.204Z" fill="white"></path>
<path d="M251.677 117.103H207.053C206.793 122.756 211.312 125.638 220.801 125.638H223.241C224.281 125.638 224.981 125.547 225.421 125.547C227.59 125.547 228.73 126.938 228.73 129.73C228.73 131.991 227.6 133.121 225.421 133.121C219.591 133.121 215.682 133.031 213.762 132.771C208.803 132.331 205.153 131.2 202.804 129.289C199.494 126.678 197.844 123.716 197.844 120.235V105.267C197.844 100.564 200.454 97.0823 205.583 94.8211C209.323 93.1703 213.932 92.2998 219.331 92.2998H236.039C240.559 92.2998 244.388 93.0802 247.698 94.6511C252.047 96.6521 254.137 99.6137 254.137 103.616V113.451C254.137 115.892 253.357 117.103 251.697 117.103M245.438 104.306C245.438 101.265 239.349 99.7838 227.17 99.7838C225.691 99.7838 224.131 99.7838 222.471 99.8738C220.901 99.8738 220.211 99.9639 220.381 99.9639C211.332 99.9639 206.813 101.535 206.813 104.666V109.369H245.438V104.316V104.306Z" fill="white"></path>
<path d="M321.268 129.47C320.308 131.381 318.488 132.341 315.869 132.341C313.249 132.341 311.519 131.381 310.559 129.56L297.331 104.757L283.843 129.65C282.883 131.481 281.063 132.431 278.364 132.431C275.664 132.431 273.844 131.471 272.794 129.47L256.527 97.1726C256.177 96.3922 256.007 95.6918 256.007 95.0815C256.007 93.1705 257.396 92.21 260.186 92.21C262.626 92.21 264.276 92.8203 264.975 94.211L278.724 120.765L292.122 96.042C293.252 94.0409 294.901 92.9904 297.341 92.9904C299.781 92.9904 301.341 94.0409 302.391 95.9519L315.869 120.765L329.527 94.211C330.227 92.9003 331.787 92.21 334.316 92.21C337.096 92.21 338.496 93.1705 338.496 95.0815C338.496 95.6918 338.326 96.3922 337.886 97.1726L321.268 129.47V129.47Z" fill="white"></path>
<path d="M385.9 133.122H363.972C359.533 133.122 355.534 132.251 351.794 130.42C347.185 128.249 344.835 125.197 344.835 121.285V116.153C344.835 111.89 347.015 108.669 351.444 106.577C354.834 104.927 358.923 104.056 363.623 104.056H395.288C394.848 101.265 390.849 99.7938 383.2 99.7938C382.33 99.7938 381.37 99.7938 380.15 99.8839C378.931 99.8839 378.241 99.9739 377.981 99.9739C375.801 99.9739 374.671 98.8433 374.671 96.5821V95.7117C374.671 93.5305 375.801 92.3999 377.981 92.3999C385.55 92.3999 390.939 92.8301 394.418 93.7906C400.948 95.6216 404.247 99.3636 404.247 104.937V120.865C404.247 129.049 398.068 133.142 385.89 133.142M363.443 111.64C361.613 111.64 359.703 111.99 357.703 112.681C355.094 113.551 353.784 114.682 353.784 116.072V121.205C353.784 122.686 355.084 123.817 357.783 124.687C359.783 125.297 361.783 125.558 363.702 125.558H385.97C389.889 125.558 392.579 125.037 393.799 123.987C394.838 123.116 395.368 121.375 395.368 118.764C395.368 118.154 395.368 117.113 395.278 115.542V111.62H363.443V111.64Z" fill="white"></path>
<path d="M436.703 100.134H422.525V129.73C422.525 131.991 421.395 133.121 419.215 133.121C417.035 133.121 415.906 133.031 415.386 132.771C414.166 132.421 413.556 131.381 413.556 129.73V100.134H410.426C408.077 100.134 406.947 98.9133 406.947 96.482C406.947 94.0507 408.077 92.74 410.426 92.74H413.556V84.6457C413.556 82.4746 414.686 81.334 416.866 81.334C419.045 81.334 420.255 81.424 420.775 81.5941C421.905 82.0244 422.515 82.9849 422.515 84.6357V92.73H436.693C438.953 92.73 440.082 94.1208 440.082 96.8222C440.082 99.0834 438.953 100.134 436.693 100.134" fill="white"></path>
<path d="M499.855 117.103H455.231C454.971 122.756 459.49 125.638 468.979 125.638H471.418C472.458 125.638 473.158 125.547 473.588 125.547C475.768 125.547 476.898 126.938 476.898 129.73C476.898 131.991 475.768 133.121 473.588 133.121C467.759 133.121 463.849 133.031 461.93 132.771C456.97 132.331 453.321 131.2 450.971 129.289C447.662 126.678 446.012 123.716 446.012 120.235V105.267C446.012 100.564 448.621 97.0823 453.751 94.8211C457.49 93.1703 462.1 92.2998 467.499 92.2998H484.207C488.726 92.2998 492.556 93.0802 495.865 94.6511C500.215 96.6521 502.304 99.6137 502.304 103.616V113.451C502.304 115.892 501.525 117.103 499.875 117.103M493.616 104.306C493.616 101.265 487.526 99.7838 475.348 99.7838C473.868 99.7838 472.308 99.7838 470.649 99.8738C469.079 99.8738 468.389 99.9639 468.559 99.9639C459.51 99.9639 454.991 101.535 454.991 104.666V109.369H493.616V104.316V104.306Z" fill="white"></path>
<path d="M531.691 99.9539C531.431 99.9539 530.821 99.8639 529.951 99.8639H527.861C520.992 99.8639 517.512 101.515 517.512 104.997V129.72C517.512 131.461 516.903 132.421 515.683 132.851C515.163 133.021 513.853 133.111 511.773 133.111C509.513 133.111 508.384 131.981 508.384 129.72L508.554 104.997C508.554 96.5521 516.213 92.3799 531.691 92.3799C533.86 92.3799 535 93.7706 535 96.5621C535 98.8233 533.87 99.9539 531.691 99.9539" fill="white"></path>
<path d="M242.008 168.08C239.659 168.08 237.729 167.52 236.129 166.349C233.829 164.648 232.52 162.007 232.52 159.095C232.52 156.974 233.19 155.103 234.499 153.532C237.029 150.491 240.609 150.161 242.028 150.161C243.208 150.161 246.208 150.401 248.607 152.582C249.377 153.282 249.837 153.963 250.357 154.783L250.497 155.003C250.567 155.123 250.597 155.263 250.557 155.393C250.517 155.523 250.437 155.644 250.317 155.714L248.547 156.684C248.468 156.724 248.388 156.744 248.308 156.744C248.138 156.744 247.968 156.654 247.878 156.504L247.708 156.214C247.548 155.934 247.168 155.293 246.658 154.783C245.128 153.212 242.928 153.042 242.058 153.042C241.188 153.042 238.959 153.222 237.319 154.903C235.829 156.434 235.659 158.415 235.659 159.195C235.659 160.136 235.879 161.947 237.369 163.418C238.919 164.969 240.988 165.209 242.078 165.209C244.158 165.209 245.928 164.448 247.198 163.017C247.498 162.677 247.668 162.477 248.128 161.717L248.248 161.527C248.338 161.377 248.508 161.287 248.677 161.287C248.747 161.287 248.827 161.307 248.887 161.337L250.677 162.187C250.807 162.247 250.897 162.357 250.937 162.487C250.977 162.627 250.957 162.767 250.887 162.887L250.707 163.188C250.307 163.878 249.627 165.029 248.108 166.159C247.458 166.629 245.508 168.07 241.988 168.07" fill="#CCCCCB"></path>
<path d="M279.384 168.11C277.524 168.11 272.944 167.66 270.635 163.518C269.895 162.197 269.525 160.726 269.525 159.145C269.525 157.915 269.765 156.734 270.225 155.654C271.635 152.262 275.164 150.161 279.423 150.161C281.253 150.161 285.593 150.571 288.002 154.403C289.192 156.294 289.372 158.175 289.372 159.115C289.372 160.056 289.182 162.507 287.422 164.638C284.913 167.65 281.313 168.1 279.384 168.1M279.034 153.002C278.314 153.022 276.494 153.202 275.024 154.283C274.304 154.813 272.644 156.334 272.644 159.205C272.644 159.586 272.684 160.576 273.094 161.587C274.454 165.009 278.314 165.279 279.463 165.279C281.203 165.279 282.743 164.818 283.923 163.928C285.783 162.527 286.173 160.486 286.173 159.025V158.925C286.173 158.585 286.173 158.165 286.023 157.535C285.813 156.604 285.173 154.913 283.333 153.923C282.683 153.572 281.293 152.992 279.393 152.992C279.273 152.992 279.154 152.992 279.034 152.992" fill="#CCCCCB"></path>
<path d="M325.527 167.69C325.247 167.69 325.027 167.47 325.027 167.19V156.574L320.058 167.4C319.978 167.58 319.798 167.69 319.608 167.69H317.748C317.558 167.69 317.378 167.58 317.298 167.4L312.279 156.684V167.18C312.279 167.46 312.059 167.68 311.779 167.68H309.869C309.589 167.68 309.37 167.46 309.37 167.18V151.141C309.37 150.861 309.589 150.641 309.869 150.641H312.259C312.449 150.641 312.629 150.751 312.709 150.931C312.709 150.931 318.708 163.738 318.728 163.778L324.618 150.931C324.698 150.751 324.877 150.641 325.067 150.641H327.417C327.697 150.641 327.917 150.861 327.917 151.141V167.18C327.917 167.46 327.697 167.68 327.417 167.68H325.527V167.69Z" fill="#CCCCCB"></path>
<path d="M349.284 167.69C349.004 167.69 348.784 167.47 348.784 167.19V151.152C348.784 150.871 349.004 150.651 349.284 150.651H359.853C361.343 150.651 362.783 150.731 364.112 151.722C364.532 152.062 364.872 152.442 365.012 152.652C365.282 153.003 365.952 154.053 365.952 155.644C365.952 156.575 365.702 158.315 364.072 159.566C362.693 160.647 360.983 160.737 359.503 160.737H351.824V167.19C351.824 167.47 351.604 167.69 351.324 167.69H349.284V167.69ZM358.973 157.955C360.183 157.955 361.443 157.955 362.243 157.195C362.653 156.815 362.843 156.304 362.843 155.644C362.843 155.594 362.843 154.413 362.043 153.863C361.523 153.503 360.853 153.423 360.013 153.423H351.834V157.955H358.983H358.973Z" fill="#CCCCCB"></path>
<path d="M398.278 167.69C398.088 167.69 397.918 167.58 397.828 167.41L395.968 163.658H386.889L385.05 167.41C384.97 167.58 384.79 167.69 384.6 167.69H382.48C382.31 167.69 382.15 167.6 382.06 167.45C381.97 167.3 381.96 167.12 382.04 166.97L389.939 150.932C390.019 150.761 390.199 150.651 390.389 150.651H392.369C392.559 150.651 392.729 150.761 392.819 150.921L400.908 166.96C400.988 167.11 400.978 167.3 400.888 167.45C400.798 167.6 400.638 167.69 400.458 167.69H398.288H398.278ZM394.598 160.927L391.369 154.473L388.209 160.927H394.598V160.927Z" fill="#CCCCCB"></path>
<path d="M435.373 167.69C435.243 167.69 435.113 167.64 435.013 167.54L422.915 155.214V167.19C422.915 167.47 422.695 167.69 422.415 167.69H420.525C420.245 167.69 420.025 167.47 420.025 167.19V151.152C420.025 150.871 420.245 150.651 420.525 150.651H422.265C422.405 150.651 422.525 150.701 422.625 150.801L434.723 163.188V151.152C434.723 150.871 434.943 150.651 435.223 150.651H437.113C437.393 150.651 437.613 150.871 437.613 151.152V167.19C437.613 167.47 437.393 167.69 437.113 167.69H435.373Z" fill="#CCCCCB"></path>
<path d="M460.97 150.641H459C458.724 150.641 458.5 150.865 458.5 151.141V167.18C458.5 167.456 458.724 167.68 459 167.68H460.97C461.246 167.68 461.47 167.456 461.47 167.18V151.141C461.47 150.865 461.246 150.641 460.97 150.641Z" fill="#CCCCCB"></path>
<path d="M482.847 167.69C482.567 167.69 482.347 167.47 482.347 167.19V151.152C482.347 150.871 482.567 150.651 482.847 150.651H498.215C498.495 150.651 498.715 150.871 498.715 151.152V152.933C498.715 153.213 498.495 153.433 498.215 153.433H485.366V157.395H497.205C497.485 157.395 497.705 157.615 497.705 157.895V159.716C497.705 159.996 497.485 160.216 497.205 160.216H485.366V164.899H498.855C499.135 164.899 499.355 165.119 499.355 165.399V167.2C499.355 167.48 499.135 167.7 498.855 167.7H482.847V167.69Z" fill="#CCCCCB"></path>
<path d="M526.631 168.08C526.201 168.08 525.761 168.06 525.311 168.04C521.712 167.81 519.842 166.549 518.882 165.539C518.262 164.898 517.912 164.238 517.532 163.548L517.322 163.147C517.252 163.017 517.242 162.867 517.292 162.737C517.342 162.607 517.452 162.497 517.582 162.447L519.712 161.637C519.772 161.617 519.832 161.607 519.892 161.607C520.092 161.607 520.282 161.727 520.362 161.927L520.452 162.157C520.622 162.597 520.982 163.508 522.022 164.208C522.722 164.668 524.081 165.228 526.531 165.228C528.201 165.228 529.571 164.918 530.591 164.318C531.451 163.798 531.87 163.167 531.87 162.407C531.87 161.967 531.72 161.607 531.411 161.356C530.671 160.746 528.401 160.456 527.321 160.306L527.021 160.266C526.591 160.206 526.171 160.146 525.751 160.096C525.191 160.026 524.691 159.956 524.202 159.886L523.912 159.846C522.902 159.695 521.762 159.515 520.842 159.045C520.162 158.705 518.582 157.684 518.582 155.493C518.582 153.832 519.552 152.302 521.192 151.381C522.492 150.661 524.471 150.23 526.491 150.23C529.161 150.23 531.481 150.971 533.19 152.382C533.77 152.872 534.14 153.292 534.36 153.572L534.55 153.812C534.64 153.932 534.68 154.083 534.65 154.223C534.62 154.363 534.53 154.493 534.39 154.563L532.53 155.553C532.46 155.593 532.38 155.613 532.29 155.613C532.14 155.613 531.99 155.543 531.891 155.413L531.761 155.243C531.641 155.083 531.481 154.873 531.331 154.713C530.001 153.362 527.901 153.072 526.371 153.072C524.841 153.072 523.602 153.352 522.722 153.872C522.332 154.103 522.022 154.403 521.852 154.693C521.832 154.723 521.662 155.033 521.662 155.423C521.662 155.984 522.062 156.224 522.432 156.414C523.002 156.684 523.702 156.784 525.101 156.974L526.661 157.194C529.261 157.554 530.971 157.794 532.21 158.335C533.96 159.085 534.97 160.546 534.97 162.327C534.97 162.877 534.86 163.958 534.11 165.058C533.33 166.199 531.321 168.1 526.631 168.1" fill="#CCCCCB"></path>
<path d="M64.6016 82.4741H59.9122V81.3335H70.5308V82.4741H65.8414V93.2998H64.6016V82.4741V82.4741Z" fill="#CCCCCB"></path>
<path d="M59.6622 101.444H60.9021V106.507H69.5509V101.444H70.7908V113.411H69.5509V107.648H60.9021V113.411H59.6622V101.444V101.444Z" fill="#CCCCCB"></path>
<path d="M60.7921 121.555H70.3109V122.696H62.032V126.748H70.0009V127.889H62.032V132.381H70.4408V133.522H60.7921V121.555V121.555Z" fill="#CCCCCB"></path>
</g>
<defs>
<linearGradient id="paint0_linear_1655_8779" x1="0.499965" y1="113.001" x2="219.831" y2="113.001" gradientUnits="userSpaceOnUse">
<stop stop-color="#717275"></stop>
<stop offset="0.16" stop-color="#717275"></stop>
<stop offset="1" stop-color="#E5E4E5"></stop>
</linearGradient>
<clipPath id="clip0_1655_8779">
<rect width="535" height="226" fill="white"></rect>
</clipPath>
</defs>
</svg>