<svg width="166" height="70" viewBox="0 0 166 70" fill="none" xmlns="http://www.w3.org/2000/svg">
<g clip-path="url(#clip0_1655_10011)">
<path d="M58.9624 9.5793C60.1693 10.4966 62.3006 12.4459 62.3006 12.4459C62.282 12.3963 61.8445 11.5936 61.8445 11.5936C64.8508 14.0016 67.8973 19.6324 68.2076 20.215C62.5085 8.3583 50.1671 0.155273 35.8744 0.155273C35.8216 0.155273 35.7689 0.155273 35.7162 0.155273C33.5072 0.16457 31.3449 0.372203 29.2445 0.756478C27.7864 1.13146 25.9343 1.63349 24.4327 2.14173C21.4761 3.1365 18.1504 4.74178 13.0159 8.79216C7.87834 12.8425 4.48121 18.6903 2.88347 22.3316C1.35399 25.8149 0.593905 29.6205 0.531857 29.9397C0.27746 31.641 0.150262 33.3795 0.156467 35.1491C0.165774 36.9775 0.314689 38.7749 0.590802 40.5289L0.727308 40.6095C0.727308 40.6095 1.58667 46.417 4.40365 51.2421C7.01897 55.7233 8.89592 58.0568 9.15032 58.3667C10.0903 59.3956 11.0955 60.3718 12.1596 61.2798C18.4792 66.6813 26.9488 69.8795 36.0109 69.8423C36.8144 69.8392 37.6117 69.8082 38.4028 69.7524C38.468 69.5789 40.4907 69.7307 44.9272 68.5779C49.3915 67.4189 50.1981 66.5542 50.1764 66.4582C50.1578 66.359 49.4877 66.5356 48.6625 66.734C47.8372 66.9323 43.5962 68.1099 41.0275 68.4756C38.4587 68.8413 35.0771 68.7638 35.0771 68.7638C41.9209 68.7638 47.5828 66.6162 50.9055 65.045C54.2282 63.4738 55.6832 62.2157 55.6832 62.2157C55.6832 62.2157 52.3016 64.5337 48.8021 65.671C45.3026 66.8115 40.3077 68.5779 33.3459 67.9891C26.3841 67.4003 20.5796 65.513 15.2558 61.4812C9.93522 57.4494 8.51122 54.7905 8.51122 54.7905C9.57845 56.498 14.0645 60.4988 16.2269 61.9274C18.3893 63.3561 19.9156 63.8457 19.9156 63.8457C14.232 61.2922 9.19996 55.7543 7.35093 52.9435C5.5019 50.1358 4.73561 48.4066 4.2144 47.3064C4.26404 47.4645 4.63633 48.4158 4.63633 48.4158C4.63633 48.4158 4.02516 47.325 3.41709 45.7941C1.26092 40.3709 1.45017 34.52 1.45017 34.52C1.72628 43.0825 3.98793 46.6184 3.98793 46.6184C3.06031 44.6506 2.5329 41.8987 2.37778 41.0062C2.36848 41.0062 2.35917 41.0062 2.35296 41.0062C2.27851 41.0062 2.21336 40.9535 2.20095 40.8791C2.18233 40.7737 2.17613 40.7273 2.17613 40.7273C2.16682 40.6436 2.22577 40.5692 2.30953 40.5568C2.31574 40.5568 2.32194 40.5568 2.33125 40.5568C2.40571 40.5568 2.47396 40.6126 2.48326 40.687L2.50498 40.8264C2.51739 40.9101 2.46465 40.9845 2.38089 41.0031C2.49257 41.533 2.84314 42.8842 3.90106 45.791C5.36849 49.8228 7.12445 51.9983 7.12445 51.9983C4.13684 47.731 3.1782 42.3728 3.1782 42.3728C4.19889 46.3023 5.86488 49.8507 9.69324 54.5642C13.5216 59.2778 19.1059 62.4481 19.1059 62.4481C16.0376 61.1651 11.5826 56.9753 11.5826 56.9753C15.0697 60.4585 19.8939 64.2951 26.6571 65.9437C33.4204 67.5924 38.378 66.8486 38.378 66.8486C36.6872 67.0067 34.8382 66.7309 32.7937 66.2598C33.6189 66.3001 34.4845 66.0243 34.4845 66.0243C27.169 65.4355 22.9095 63.3654 21.0201 61.5339C23.1701 62.2157 25.6334 62.634 25.6334 62.634L25.5558 62.3706C15.4823 58.3171 11.654 52.4166 10.7791 50.8393C9.33336 49.0666 7.41918 45.1433 7.33542 44.976C7.32921 44.9605 7.32301 44.945 7.3199 44.9264L7.25475 44.4151C7.16478 44.2012 7.07171 43.9409 6.98174 43.662C6.6653 42.8067 6.38298 41.9359 6.1472 41.0465C5.94864 40.123 5.5081 36.9341 5.3809 36.2244C5.33437 35.9672 5.28163 35.6418 5.23199 35.3195C5.20717 34.8795 5.18856 34.4394 5.18545 33.9962L5.38401 33.9126C5.38401 33.9126 5.47398 31.0987 5.8959 28.5296C6.31473 25.9637 6.56602 25.8924 6.66219 25.0061C6.68391 24.7984 6.69012 24.6342 6.68391 24.4978C6.83903 24.0423 7.00346 23.5898 7.1803 23.1436C7.76665 21.653 8.67565 20.3235 9.49468 18.9568C12.1038 14.5935 15.6312 10.8065 20.1049 8.15687C20.198 7.99572 20.3345 7.81908 20.7223 7.62384C21.2714 7.34803 21.5847 7.08771 21.9787 7.1311H21.9818C22.3758 6.93277 22.7729 6.74063 23.1794 6.55779C23.5827 6.31297 24.076 6.01236 24.6933 5.69937C25.8722 5.10436 27.0232 4.89983 27.6809 4.90603C30.5196 4.09719 33.5228 3.65403 36.6345 3.64164C50.285 3.58276 61.95 11.7672 66.4082 23.2706C66.3027 22.6632 65.8963 21.2873 64.4133 18.4672C62.1734 14.2061 56.89 9.33448 56.89 9.33448C62.2386 13.0533 66.5788 20.9743 66.7618 21.185C66.9449 21.3958 67.0628 21.4856 67.0504 21.185C67.038 20.8844 66.7153 19.8029 64.9656 16.8185C63.2158 13.8342 58.9624 9.57001 58.9624 9.57001V9.5793Z" fill="url(#paint0_linear_1655_10011)"></path>
<path d="M30.473 68.6422C30.4172 68.6174 30.3799 68.5585 30.383 68.4934C28.6736 68.261 25.8349 67.7001 22.3075 66.3396C20.8214 65.7663 19.444 65.1124 18.1875 64.4307C19.6115 65.2147 21.3488 66.0328 23.4926 66.8355C26.2941 67.8829 28.6643 68.3974 30.473 68.6422Z" fill="url(#paint1_linear_1655_10011)"></path>
<path d="M4.064 46.7572C4.04539 46.7696 4.02367 46.7727 4.00195 46.7758C4.064 46.9091 4.12295 47.0392 4.17879 47.1601C4.1912 47.157 4.20361 47.1539 4.21602 47.1539C4.23463 47.1539 4.25635 47.157 4.27186 47.1632C4.21292 47.0237 4.15397 46.8781 4.09503 46.7324C4.08572 46.7417 4.07331 46.7479 4.064 46.7572Z" fill="url(#paint2_linear_1655_10011)"></path>
<path d="M51.8479 62.1254C51.8727 62.1811 51.9316 62.2152 51.9875 62.2152C52.0061 62.2152 52.0278 62.2121 52.0464 62.2028C59.7962 59.0357 65.1665 48.9546 65.2223 48.8524C65.2626 48.778 65.2347 48.6881 65.1603 48.6447C65.1354 48.6323 65.1106 48.623 65.0858 48.623C65.0331 48.623 64.9834 48.6509 64.9524 48.6974C64.9245 48.7439 62.1137 53.3738 58.8779 56.6835C55.7631 59.8693 51.9534 61.8991 51.9161 61.9177C51.8448 61.9549 51.8137 62.0448 51.8479 62.1192V62.1254ZM58.9896 56.7951C62.2719 53.4358 65.0858 48.7811 65.0858 48.7811C65.0858 48.7811 59.7776 58.8776 51.9906 62.0603C51.9906 62.0603 55.822 60.0397 58.9896 56.7951Z" fill="url(#paint3_linear_1655_10011)"></path>
<path d="M65.0835 48.7812C65.0835 48.7812 62.2727 53.4359 58.9873 56.7952C55.8166 60.0368 51.9883 62.0604 51.9883 62.0604C59.7753 58.8778 65.0835 48.7812 65.0835 48.7812Z" fill="url(#paint4_linear_1655_10011)"></path>
<path d="M45.3021 66.1203C49.6299 64.732 51.3859 63.6318 51.3859 63.6318C51.3859 63.6318 44.0983 67.2205 37.5957 67.4281C37.5957 67.4281 40.9773 67.5056 45.3021 66.1203Z" fill="url(#paint5_linear_1655_10011)"></path>
<path d="M37.4395 67.4279C37.4395 67.5116 37.5077 67.5798 37.5915 67.5829H37.697C38.2895 67.5829 41.4415 67.5209 45.3506 66.2658C49.6443 64.8868 51.3971 63.8083 51.4685 63.7618C51.5398 63.7185 51.5616 63.6255 51.5212 63.5542C51.4933 63.5046 51.4406 63.4736 51.3847 63.4736C51.363 63.4736 51.3382 63.4798 51.3165 63.4891C51.2451 63.5232 43.9824 67.0654 37.5915 67.2699C37.5077 67.2699 37.4395 67.3412 37.4426 67.4248L37.4395 67.4279ZM51.3847 63.6317C51.3847 63.6317 49.6288 64.7318 45.3009 66.1202C40.9762 67.5085 37.5946 67.4279 37.5946 67.4279C44.0972 67.2172 51.3847 63.6317 51.3847 63.6317Z" fill="url(#paint6_linear_1655_10011)"></path>
<path d="M37.1738 63.7093C38.8926 63.6039 39.9939 63.1855 39.9939 63.1855C39.0104 63.514 37.1738 63.514 37.1738 63.514V63.7093Z" fill="url(#paint7_linear_1655_10011)"></path>
<path d="M40.1386 63.1325C40.1169 63.0675 40.0548 63.0303 39.9928 63.0303C39.9773 63.0303 39.9587 63.0303 39.9431 63.0396C38.9969 63.3557 37.1913 63.3588 37.1727 63.3588C37.0858 63.3588 37.0176 63.4269 37.0176 63.5137V63.709C37.0176 63.7523 37.0362 63.7926 37.0672 63.8205C37.0951 63.8484 37.1355 63.8639 37.1727 63.8639C37.1727 63.8639 37.1789 63.8639 37.182 63.8639C38.9038 63.7585 40.0021 63.3495 40.0455 63.3309C40.1231 63.2999 40.1634 63.2131 40.1355 63.1356L40.1386 63.1325ZM37.1727 63.709V63.5137C37.1727 63.5137 39.0093 63.5137 39.9928 63.1852C39.9928 63.1852 38.8914 63.6036 37.1727 63.709Z" fill="url(#paint8_linear_1655_10011)"></path>
<path d="M46.3164 61.5302C47.6039 61.2265 48.2926 60.6377 48.2926 60.6377C47.6132 60.991 46.3164 61.5302 46.3164 61.5302Z" fill="url(#paint9_linear_1655_10011)"></path>
<path d="M46.3125 61.6858C46.3125 61.6858 46.3373 61.6858 46.3497 61.6827C47.6589 61.3728 48.3601 60.7809 48.3911 60.7561C48.45 60.7034 48.4624 60.6167 48.419 60.5516C48.388 60.5082 48.3414 60.4834 48.2918 60.4834C48.267 60.4834 48.2422 60.4896 48.2204 60.502C47.5565 60.8491 46.269 61.3852 46.2566 61.3883C46.1822 61.4193 46.1449 61.503 46.1698 61.5804C46.1915 61.6455 46.2504 61.6889 46.3187 61.6889L46.3125 61.6858ZM48.2887 60.6383C48.2887 60.6383 47.6 61.2272 46.3125 61.5309C46.3125 61.5309 47.6093 60.9916 48.2887 60.6383Z" fill="url(#paint10_linear_1655_10011)"></path>
<path d="M58.0617 53.65L58.2199 53.5601C58.2199 53.5601 58.2447 53.5446 58.2541 53.5353C58.3192 53.4702 59.8301 51.9548 60.2706 51.0592C60.3078 50.9849 60.2799 50.895 60.2086 50.8547C60.1837 50.8423 60.1589 50.833 60.1341 50.833C60.0814 50.833 60.0317 50.8578 60.0038 50.9043C59.5943 51.5427 57.8942 53.3897 57.8756 53.4083C57.8228 53.464 57.8197 53.5508 57.8694 53.6097C57.9004 53.6469 57.9438 53.6686 57.9903 53.6686C58.0152 53.6686 58.0431 53.6624 58.0648 53.65H58.0617ZM60.1279 50.9911C59.6967 51.8743 58.1424 53.4269 58.1424 53.4269L57.9841 53.5136C57.9841 53.5136 59.706 51.648 60.1279 50.988V50.9911Z" fill="url(#paint11_linear_1655_10011)"></path>
<path d="M60.1281 50.9912C59.7062 51.6482 57.9844 53.5169 57.9844 53.5169L58.1426 53.4301C58.1426 53.4301 59.6969 51.8775 60.1281 50.9943V50.9912Z" fill="url(#paint12_linear_1655_10011)"></path>
<path d="M70.8615 34.9844C70.8553 34.9069 70.7901 34.8449 70.7094 34.8418H70.7063C70.6288 34.8418 70.5636 34.8976 70.5512 34.9751L70.5326 35.1207C70.241 37.4945 69.5926 41.9416 68.5378 45.0623C67.2534 48.8616 66.3506 50.3553 64.7311 52.8779C63.0931 55.4346 61.0269 57.6504 59.5811 59.0573C58.1354 60.4674 56.184 61.9704 55.8304 62.24C55.8241 62.2741 55.8086 62.3082 55.7807 62.3298C55.7745 62.336 55.7497 62.3577 55.7094 62.3887C55.7032 62.4228 55.7094 62.4569 55.728 62.4879C55.7559 62.5375 55.8086 62.5623 55.8614 62.5623C55.8831 62.5623 55.9048 62.5561 55.9265 62.5499C60.0961 60.6471 67.3247 50.8946 69.0776 45.7255C70.6815 40.9933 71.0383 36.9801 70.8553 34.9813L70.8615 34.9844ZM68.938 45.679C67.2472 50.6683 60.1303 60.4704 55.8676 62.4135C55.8676 62.4135 58.0827 60.7432 59.6959 59.172C61.3092 57.6008 63.2947 55.4191 64.8676 52.9647C66.4405 50.5103 67.3775 48.9918 68.6898 45.115C69.999 41.2381 70.6691 35.2819 70.7094 34.9998C70.8677 36.7229 70.6319 40.6896 68.938 45.679Z" fill="url(#paint13_linear_1655_10011)"></path>
<path d="M68.6874 45.1151C67.3751 48.9919 66.4382 50.5104 64.8653 52.9648C63.2924 55.4193 61.3068 57.6009 59.6936 59.1721C58.0803 60.7433 55.8652 62.4137 55.8652 62.4137C60.1248 60.4706 67.2448 50.6685 68.9356 45.6791C70.6264 40.6897 70.8622 36.723 70.7071 35C70.6668 35.282 69.9998 41.2414 68.6874 45.1151Z" fill="url(#paint14_linear_1655_10011)"></path>
<path d="M25.6642 62.2619C26.3747 62.5811 26.8959 62.8042 26.9765 62.8042C27.0665 62.8042 28.0593 62.9127 29.4988 63.0831C29.4988 63.0831 29.626 63.0986 29.6291 63.0986C29.7067 63.0986 29.7749 63.0398 29.7842 62.9623C29.7935 62.8786 29.7346 62.8011 29.6477 62.7918L29.536 62.7794C26.9362 62.4541 23.0923 60.7341 23.0551 60.7155C23.0334 60.7062 23.0117 60.7031 22.99 60.7031C22.931 60.7031 22.8752 60.7372 22.8473 60.793C22.8131 60.8705 22.8473 60.9603 22.9217 60.9975C23.7097 61.3663 24.5691 61.7692 25.295 62.0977C25.4036 62.1411 25.506 62.1875 25.6146 62.2309C25.6332 62.2371 25.6456 62.2495 25.6611 62.2619H25.6642ZM22.99 60.855C22.99 60.855 26.8649 62.5997 29.5174 62.9313C29.5888 62.9406 29.6291 62.9437 29.6291 62.9437C29.5919 62.9406 29.5546 62.9344 29.5174 62.9313C29.0303 62.8755 27.1224 62.6493 26.9765 62.6493C26.809 62.6493 22.99 60.855 22.99 60.855Z" fill="url(#paint15_linear_1655_10011)"></path>
<path d="M29.5157 62.9308C26.8632 62.5992 22.9883 60.8545 22.9883 60.8545C22.9883 60.8545 26.8073 62.6488 26.9749 62.6488C27.1207 62.6488 29.0287 62.8719 29.5157 62.9308Z" fill="url(#paint16_linear_1655_10011)"></path>
<path d="M29.5176 62.9316C29.5548 62.9347 29.592 62.9409 29.6293 62.944C29.6293 62.944 29.5889 62.9378 29.5176 62.9316Z" fill="url(#paint17_linear_1655_10011)"></path>
<path d="M15.5586 56.0605C15.5586 56.0605 17.327 57.5915 18.6269 58.484C19.9237 59.3734 21.8534 60.331 21.8534 60.331C21.8534 60.331 18.4593 58.4716 15.5617 56.0605H15.5586Z" fill="url(#paint18_linear_1655_10011)"></path>
<path d="M21.8515 60.4866C21.9074 60.4866 21.9601 60.4556 21.988 60.4029C22.0284 60.3285 22.0005 60.2355 21.926 60.1953C21.8919 60.1767 18.5103 58.3142 15.6592 55.9434C15.6312 55.9186 15.594 55.9062 15.5599 55.9062C15.5164 55.9062 15.473 55.9248 15.442 55.962C15.4141 55.993 15.4017 56.0333 15.4048 56.0736C17.0242 57.5115 19.1369 59.0517 21.8484 60.4835L21.8515 60.4866ZM15.5599 56.0612C18.4575 58.4722 21.8515 60.3316 21.8515 60.3316C21.8515 60.3316 19.925 59.3771 18.6251 58.4846C17.3282 57.5952 15.5568 56.0612 15.5568 56.0612H15.5599Z" fill="url(#paint19_linear_1655_10011)"></path>
<path d="M9.97731 58.2794C10.7033 58.9178 10.8336 59.2711 12.5027 60.6254C14.1749 61.9796 16.9267 64.5518 23.4355 66.9814C28.2101 68.7664 31.7624 69.002 33.3135 69.002C33.8782 69.002 34.1791 68.971 34.1791 68.971C33.1274 68.9121 30.5307 68.4999 30.5307 68.4999C31.1791 68.5774 32.1626 68.4999 32.1626 68.4999C32.1626 68.4999 28.2566 68.4751 22.3559 66.1943C16.4582 63.9165 12.1459 60.3465 10.0021 58.1927C7.85838 56.0389 5.68359 52.9678 5.68359 52.9678C6.90904 55.4098 9.24515 57.6349 9.97421 58.2732L9.97731 58.2794ZM22.3062 66.343C25.8306 67.7035 28.6693 68.2644 30.3818 68.4968C30.3818 68.5619 30.4159 68.6208 30.4718 68.6456C28.6631 68.4007 26.2928 67.8863 23.4914 66.8389C21.3476 66.0393 19.6103 65.2212 18.1863 64.434C19.4427 65.1158 20.8202 65.7666 22.3062 66.343Z" fill="url(#paint20_linear_1655_10011)"></path>
<path d="M13.604 9.49815C16.4396 6.81753 19.0829 5.43848 19.0829 5.43848C15.8316 6.72146 12.7136 9.70889 9.22655 14.0289C5.73946 18.3489 4.56055 22.3838 4.56055 22.3838C8.41373 14.565 10.7715 12.1788 13.6071 9.49815H13.604Z" fill="url(#paint21_linear_1655_10011)"></path>
<path d="M5.5629 48.2508C5.5629 48.2508 2.24023 42.025 2.24023 34.2465C2.24023 26.468 4.46155 23.0312 4.46155 23.0312C4.46155 23.0312 3.14303 26.2325 2.78936 29.3935C2.92586 28.5691 3.16165 28.0981 3.16165 28.0981C3.16165 28.0981 2.63734 29.3067 2.55358 33.5771C2.46981 37.8506 2.93207 41.6314 5.5629 48.2508Z" fill="url(#paint22_linear_1655_10011)"></path>
<path d="M68.3491 20.1496C62.4639 7.90862 49.7192 0 35.8732 0H35.715C33.5371 0.00929697 31.3499 0.21383 29.2062 0.604303C27.8628 0.948291 25.9363 1.46892 24.382 1.99265C21.7946 2.86347 18.4067 4.34169 12.9186 8.67098C6.94959 13.3814 3.61761 20.2705 2.73963 22.2693C1.21325 25.7464 0.459371 29.4962 0.375607 29.9177C0.12121 31.6438 -0.00598827 33.404 0.000216524 35.1519C0.00642132 36.9524 0.155336 38.7684 0.434552 40.5534C0.440757 40.5999 0.468679 40.6402 0.50901 40.6619L0.583467 40.7052C0.695154 41.3963 1.63828 46.8165 4.26912 51.3193C6.90926 55.8407 8.82033 58.2114 9.0375 58.4718C9.99304 59.5161 11.0106 60.5016 12.0623 61.4003C18.5495 66.9444 27.0004 70 35.8546 70H36.0159C36.7915 69.9969 37.6013 69.9659 38.4203 69.9101C38.4606 69.9101 38.4948 69.8884 38.5227 69.8636C38.6002 69.8389 38.8546 69.8141 39.1246 69.7893C40.046 69.6994 41.9664 69.5135 44.9757 68.7325C49.0367 67.6789 50.408 66.7771 50.3397 66.43C50.3304 66.3835 50.2901 66.2781 50.1039 66.2781C49.9178 66.2781 49.5114 66.3742 48.9561 66.5074L48.6365 66.5849C48.4721 66.6252 48.1711 66.7027 47.7771 66.8049C46.8557 67.0436 45.3356 67.4402 43.8247 67.7811C46.2415 67.1613 48.6427 66.2905 50.9788 65.1873C53.9323 63.7896 55.3997 62.6554 55.7224 62.3951C55.7286 62.3548 55.7472 62.3176 55.7813 62.2928C55.7813 62.2928 55.8092 62.2711 55.8434 62.2463C55.8496 62.206 55.8434 62.1627 55.8155 62.1255C55.7844 62.0852 55.7379 62.0635 55.6914 62.0635C55.6603 62.0635 55.6293 62.0728 55.6045 62.0914C55.5704 62.1162 52.2012 64.4094 48.7637 65.5282L48.289 65.6831C45.3604 66.6407 41.3459 67.9547 36.1059 67.9547C35.2062 67.9547 34.2848 67.9144 33.3696 67.8369C27.3261 67.3256 22.3499 65.8164 17.9569 63.1326C19.1079 63.7431 19.8369 63.9818 19.8804 63.9942C19.8959 64.0004 19.9114 64.0004 19.9269 64.0004C19.989 64.0004 20.0479 63.9632 20.0727 63.9012C20.1038 63.8237 20.0665 63.7369 19.9921 63.7029C14.445 61.2113 9.38187 55.7291 7.49251 52.8595C7.28775 52.5496 7.0954 52.2521 6.91856 51.967C6.98371 52.0537 7.01784 52.0971 7.02094 52.1002C7.05197 52.1374 7.0954 52.156 7.14194 52.156C7.17296 52.156 7.20709 52.1467 7.23501 52.125C7.30326 52.0754 7.31567 51.9794 7.26913 51.9112C6.35393 50.6034 5.62797 49.1841 5.06333 47.8484C6.16778 50.0642 7.62591 52.2428 9.59283 54.6631C10.2102 55.4254 10.8772 56.1475 11.5597 56.8262C11.5349 56.8324 11.5101 56.8479 11.4884 56.8665C11.4294 56.9285 11.4294 57.0245 11.4884 57.0834C14.5101 60.1018 19.3685 64.3226 26.6374 66.0953C30.2858 66.9847 33.4037 67.1706 35.3769 67.1706C37.35 67.1706 38.4048 67.0033 38.4172 67.0002C38.501 66.9878 38.5599 66.9103 38.5475 66.8297C38.5382 66.7523 38.4699 66.6934 38.3924 66.6934C38.3862 66.6934 38.3831 66.6934 38.3769 66.6934C38.0635 66.7213 37.7378 66.7368 37.3996 66.7368C36.3758 66.7368 35.2621 66.6097 33.8691 66.3308C34.2507 66.2626 34.5237 66.1758 34.5423 66.1696C34.6137 66.148 34.6571 66.0767 34.6478 66.0054C34.6385 65.931 34.5795 65.8752 34.5051 65.869C26.9042 65.2554 23.2186 63.1388 21.6643 61.8837C23.6126 62.4416 25.595 62.7794 25.6167 62.7856C25.626 62.7856 25.6353 62.7856 25.6415 62.7856C25.685 62.7856 25.7284 62.767 25.7563 62.7329C25.7904 62.6926 25.806 62.6368 25.7873 62.5841L25.7098 62.3238C25.7005 62.2959 25.685 62.2742 25.6664 62.2556C25.5485 62.2029 25.4275 62.1472 25.3003 62.0914C24.0562 61.58 22.9052 61.0377 21.8504 60.4799C21.8287 60.4799 21.807 60.4737 21.7853 60.4644C21.7666 60.4551 19.8338 59.4944 18.5401 58.6081C17.2495 57.7218 15.4781 56.1909 15.4595 56.1754C15.4284 56.1475 15.4098 56.1103 15.4067 56.07C12.8907 53.8388 11.566 51.8616 11.0199 50.935C10.9982 50.9474 10.9765 50.9567 10.9517 50.9567C10.9082 50.9567 10.8617 50.9381 10.8307 50.9009C10.8152 50.8823 10.7997 50.8606 10.781 50.842C11.659 52.4194 15.4843 58.3199 25.5578 62.3734L25.6353 62.6368C25.6353 62.6368 23.172 62.2184 21.0221 61.5367C22.9114 63.3682 27.171 65.4383 34.4865 66.0271C34.4865 66.0271 33.6209 66.3029 32.7957 66.2626C34.8401 66.7337 36.6892 67.0095 38.38 66.8514C38.38 66.8514 33.4254 67.5983 26.6591 65.9465C19.8959 64.2979 15.0717 60.4613 11.5846 56.978C11.5846 56.978 16.0427 61.1679 19.1079 62.4509C19.1079 62.4509 13.5236 59.2806 9.69521 54.567C5.86685 49.8535 4.20086 46.3051 3.18017 42.3756C3.18017 42.3756 4.13571 47.7307 7.12642 52.0011C7.12642 52.0011 5.37047 49.8287 3.90303 45.7938C2.84512 42.8838 2.49454 41.5327 2.38286 41.0058C2.38286 41.0058 2.38286 41.0058 2.37976 41.0058C2.53488 41.8984 3.06228 44.6534 3.9899 46.6181C3.9899 46.6181 1.72825 43.0822 1.45214 34.5197C1.45214 34.5197 1.25979 40.3706 3.41906 45.7938C4.03023 47.3247 4.6383 48.4155 4.6383 48.4155C4.6383 48.4155 4.26601 47.4641 4.21637 47.3061C4.73758 48.4062 5.50387 50.1355 7.3529 52.9432C9.20193 55.7508 14.234 61.2918 19.9176 63.8454C19.9176 63.8454 18.3912 63.3527 16.2289 61.9271C14.0665 60.5016 9.58042 56.4977 8.5132 54.7902C8.5132 54.7902 9.9372 57.4491 15.2578 61.4809C20.5815 65.5127 26.3861 67.3999 33.3479 67.9888C40.3097 68.5776 45.3014 66.8111 48.804 65.6707C52.3035 64.5303 55.6852 62.2153 55.6852 62.2153C55.6852 62.2153 54.2301 63.4735 50.9075 65.0447C47.5848 66.6159 41.9229 68.7635 35.079 68.7635C35.079 68.7635 38.4606 68.841 41.0294 68.4753C43.5982 68.1096 47.8392 66.9289 48.6644 66.7337C49.4897 66.5384 50.1598 66.3618 50.1784 66.4579C50.197 66.557 49.3904 67.4185 44.9291 68.5776C40.4927 69.7304 38.4699 69.5785 38.4048 69.7521C37.6137 69.8079 36.8164 69.8389 36.0128 69.8419C26.9507 69.8791 18.4812 66.681 12.1616 61.2794C11.0975 60.3683 10.0923 59.3953 9.15229 58.3664C8.89479 58.0534 7.02094 55.7199 4.40562 51.2418C1.58864 46.4136 0.72928 40.6092 0.72928 40.6092L0.592774 40.5286C0.316661 38.7746 0.167746 36.9772 0.158439 35.1488C0.152234 33.3792 0.279432 31.6376 0.533829 29.9393C0.595877 29.6171 1.35286 25.8115 2.88545 22.3313C4.48318 18.69 7.88341 12.8422 13.0179 8.79184C18.1523 4.74146 21.4812 3.13618 24.4347 2.1414C25.9363 1.63627 27.7884 1.13113 29.2465 0.756154C31.3437 0.371879 33.5061 0.164246 35.7181 0.15495C35.7709 0.15495 35.8236 0.15495 35.8763 0.15495C50.1691 0.15495 62.5104 8.35798 68.2095 20.2178C67.8993 19.6352 64.8527 14.0012 61.8465 11.5964C61.8465 11.5964 62.284 12.3991 62.3026 12.4486C62.3026 12.4486 60.1681 10.4963 58.9644 9.58208C58.9644 9.58208 63.2178 13.8432 64.9675 16.8306C66.7173 19.8149 67.0399 20.8965 67.0523 21.1971C67.0648 21.4977 66.9469 21.4078 66.7638 21.1971C66.5808 20.9864 62.2405 13.0653 56.892 9.34656C56.892 9.34656 62.1754 14.2182 64.4153 18.4793C65.8982 21.2994 66.3047 22.6753 66.4101 23.2827C61.952 11.7762 50.2901 3.59483 36.6364 3.65371C33.5247 3.66611 30.5185 4.10926 27.6829 4.9181C27.0252 4.915 25.8742 5.11643 24.6953 5.71144C24.0779 6.02444 23.5846 6.32194 23.1813 6.56986C22.778 6.7527 22.3778 6.94484 21.9838 7.14317H21.9807C21.5867 7.09979 21.2734 7.3632 20.7242 7.63591C20.3364 7.83115 20.1999 8.00779 20.1069 8.16894C15.6301 10.8155 12.1058 14.6055 9.49666 18.9689C8.67762 20.3387 7.77172 21.665 7.18227 23.1557C7.00543 23.6019 6.841 24.0544 6.68588 24.5099C6.69209 24.6463 6.68588 24.8105 6.66417 25.0182C6.56489 25.9014 6.3167 25.9726 5.89787 28.5417C5.47905 31.1077 5.38598 33.9247 5.38598 33.9247L5.18743 34.0083C5.19363 34.4515 5.20914 34.8915 5.23396 35.3316C5.2836 35.6539 5.33944 35.9793 5.38288 36.2365C5.51008 36.9493 5.95061 40.135 6.14917 41.0585C6.38495 41.9479 6.66727 42.8188 6.98371 43.6741C6.53387 42.2733 6.12745 40.3117 6.10884 40.2125C6.09953 40.1691 6.10884 40.1257 6.13366 40.0947C6.02197 39.4161 5.89477 38.5545 5.78309 37.8077C5.6776 37.0949 5.58453 36.4782 5.53489 36.2086C5.48836 35.9545 5.43562 35.6291 5.38598 35.3223C5.36116 34.8946 5.34565 34.498 5.33944 34.1106L5.44182 34.0672C5.49767 34.0424 5.53489 33.9897 5.53489 33.9308C5.53489 33.903 5.63107 31.0953 6.04369 28.5696C6.28878 27.0666 6.47492 26.4344 6.60832 25.9726C6.7014 25.6503 6.76965 25.4148 6.81308 25.0398C6.8348 24.857 6.841 24.6928 6.8379 24.5378C6.98682 24.0947 7.15124 23.6515 7.32188 23.2176C7.77793 22.0586 8.44494 20.9771 9.09024 19.9296C9.27018 19.6383 9.45012 19.347 9.62385 19.0526C12.3881 14.432 15.9403 10.8155 20.1813 8.30529C20.203 8.2929 20.2216 8.27121 20.2372 8.24951C20.3147 8.11626 20.4264 7.95821 20.7894 7.77847C20.9321 7.70719 21.0562 7.63901 21.1741 7.57393C21.4657 7.41279 21.6736 7.29812 21.8938 7.29812C21.9156 7.29812 21.9838 7.30122 21.9838 7.30122C22.0086 7.30122 22.0303 7.29502 22.0521 7.28573C22.4461 7.08739 22.8463 6.89525 23.2589 6.70622C23.6963 6.4397 24.171 6.1546 24.7605 5.85399C25.8959 5.28068 27.0004 5.07615 27.6767 5.07615C27.6767 5.07615 27.7046 5.07615 27.7201 5.06995C30.6054 4.24872 33.6023 3.82415 36.6333 3.81176H36.776C49.8837 3.81176 61.7348 11.6615 66.2612 23.3416C66.286 23.4036 66.345 23.4408 66.407 23.4408C66.4194 23.4408 66.435 23.4408 66.4474 23.4346C66.5249 23.4129 66.5715 23.3385 66.5591 23.2579C66.4381 22.5607 65.9913 21.1537 64.5487 18.408C63.3326 16.0962 61.2105 13.5891 59.5228 11.7824C61.4277 13.6696 63.77 16.5393 66.3853 20.8903C66.5591 21.1785 66.6118 21.2653 66.6397 21.2994C66.7824 21.4636 66.8755 21.5442 66.9872 21.5442C67.0399 21.5442 67.0927 21.5225 67.1299 21.4822C67.2013 21.4078 67.2044 21.2932 67.2013 21.1878C67.1888 20.912 66.9593 19.9296 65.0947 16.75C64.0958 15.0487 62.2746 12.9166 60.8941 11.4012C61.6076 12.0303 62.1816 12.5509 62.194 12.5633C62.225 12.5912 62.2622 12.6036 62.2995 12.6036C62.3305 12.6036 62.3615 12.5943 62.3863 12.5757C62.4453 12.5354 62.4701 12.4579 62.4422 12.3898C62.436 12.3774 62.4143 12.334 62.3832 12.2751C65.1382 14.8721 67.7566 19.7096 68.0668 20.2922C68.0947 20.3449 68.1475 20.3759 68.2033 20.3759C68.2281 20.3759 68.2499 20.3697 68.2716 20.3604C68.346 20.3232 68.3771 20.2302 68.3429 20.1558L68.3491 20.1496ZM4.21637 47.1542C4.21637 47.1542 4.19156 47.1542 4.17915 47.1604C4.1233 47.0396 4.06436 46.9125 4.00231 46.7762C4.02403 46.7762 4.04574 46.77 4.06436 46.7576C4.07677 46.7514 4.08607 46.7421 4.09538 46.7328C4.15433 46.8784 4.21327 47.0241 4.27222 47.1635C4.2536 47.1573 4.23499 47.1542 4.21637 47.1542Z" fill="url(#paint23_linear_1655_10011)"></path>
<path d="M55.8339 62.2432C55.7998 62.268 55.7749 62.2896 55.7718 62.2896C55.7377 62.3144 55.7191 62.3516 55.7129 62.3919C55.7501 62.3609 55.778 62.3392 55.7842 62.333C55.8122 62.3082 55.8277 62.2773 55.8339 62.2432Z" fill="url(#paint24_linear_1655_10011)"></path>
<path d="M25.6164 62.2309C25.5078 62.1875 25.4055 62.141 25.2969 62.0977C25.4241 62.1565 25.5451 62.2092 25.663 62.2619C25.6505 62.2495 25.635 62.2371 25.6164 62.2309Z" fill="url(#paint25_linear_1655_10011)"></path>
<path d="M18.5377 58.6113C19.8283 59.4976 21.7611 60.4583 21.7828 60.4676C21.8045 60.4769 21.8263 60.4831 21.848 60.4831C19.1365 59.0514 17.0237 57.5081 15.4043 56.0732C15.4043 56.1135 15.426 56.1507 15.457 56.1786C15.4757 56.1941 17.2471 57.725 18.5377 58.6113Z" fill="url(#paint26_linear_1655_10011)"></path>
<path d="M2.37948 41.0093C2.37948 41.0093 2.37948 41.0093 2.38259 41.0093C2.37018 40.9504 2.36087 40.8977 2.35156 40.8574C2.35777 40.9008 2.36707 40.9504 2.37638 41.0093H2.37948Z" fill="url(#paint27_linear_1655_10011)"></path>
<path d="M2.3557 40.8572C2.34019 40.7674 2.33398 40.7178 2.33398 40.7178C2.33398 40.7178 2.34019 40.7612 2.3557 40.8572Z" fill="url(#paint28_linear_1655_10011)"></path>
<path d="M19.791 4.9618C20.2626 4.76656 22.2574 3.78418 22.2574 3.78418C20.9606 4.14676 19.791 4.9618 19.791 4.9618Z" fill="url(#paint29_linear_1655_10011)"></path>
<path d="M19.7897 5.11659C19.8083 5.11659 19.83 5.11349 19.8486 5.10419C20.3202 4.90896 22.2437 3.96067 22.3243 3.92038C22.3957 3.88319 22.4298 3.79952 22.4019 3.72514C22.3771 3.66316 22.3212 3.62598 22.2561 3.62598C22.2437 3.62598 22.2282 3.62598 22.2126 3.63217C20.9034 3.99786 19.7462 4.80049 19.6997 4.83458C19.6346 4.88107 19.6128 4.96784 19.6532 5.03602C19.6811 5.0856 19.7338 5.11659 19.7897 5.11659ZM22.2561 3.78403C22.2561 3.78403 20.2612 4.76641 19.7897 4.96164C19.7897 4.96164 20.9593 4.14661 22.2561 3.78403Z" fill="url(#paint30_linear_1655_10011)"></path>
<path d="M7.96068 45.4437C7.04858 43.3302 6.26367 40.1816 6.26367 40.1816C6.26367 40.1816 6.67939 42.2177 7.13855 43.637C7.93897 45.7877 8.99688 47.8361 10.2999 49.7637C9.61736 48.645 8.56565 46.8445 7.96068 45.4437Z" fill="url(#paint31_linear_1655_10011)"></path>
<path d="M10.9526 50.8045C10.9526 50.8045 10.9246 50.7611 10.875 50.6836C10.8874 50.7084 10.906 50.7363 10.9215 50.7642C10.9308 50.7766 10.9433 50.789 10.9526 50.8014V50.8045Z" fill="url(#paint32_linear_1655_10011)"></path>
<path d="M7.1396 43.6367C6.68044 42.2174 6.26472 40.1813 6.26472 40.1813C6.26472 40.1813 7.04963 43.333 7.96173 45.4434C8.5667 46.8441 9.61841 48.6447 10.3009 49.7634C10.4343 49.9586 10.5615 50.157 10.7011 50.3522C10.7105 50.3646 10.7167 50.377 10.7229 50.3925C10.7415 50.4297 10.7911 50.5319 10.878 50.6869C10.9276 50.7644 10.9555 50.8078 10.9555 50.8078C10.9462 50.7954 10.9338 50.783 10.9245 50.7706C10.9524 50.8232 10.9866 50.879 11.0238 50.941C11.0331 50.9379 11.0393 50.941 11.0486 50.9317C11.1138 50.8821 11.1324 50.7923 11.0858 50.7241C11.0641 50.6931 9.03826 47.5352 8.10754 45.3845C7.21095 43.3082 6.42605 40.1751 6.41674 40.1441C6.39812 40.0728 6.33608 40.0264 6.26782 40.0264C6.25541 40.0264 6.24611 40.0264 6.2337 40.0295C6.19337 40.0388 6.16234 40.0605 6.14062 40.0914C6.20578 40.4819 6.26162 40.8135 6.30815 41.0211C6.54394 41.9075 6.82625 42.7783 7.1427 43.6336L7.1396 43.6367Z" fill="url(#paint33_linear_1655_10011)"></path>
<path d="M7.51758 44.9912C8.34282 46.9157 9.36661 48.741 10.5734 50.4392C10.5734 50.4392 10.6417 50.5849 10.7844 50.8421C10.7999 50.8607 10.8185 50.8824 10.834 50.901C10.8651 50.9382 10.9085 50.9568 10.955 50.9568C10.9799 50.9568 11.0016 50.9444 11.0233 50.9351C10.9861 50.8731 10.955 50.8173 10.924 50.7646C9.58688 49.1377 7.7999 45.5552 7.52378 44.9912H7.51758Z" fill="url(#paint34_linear_1655_10011)"></path>
<path d="M6.98779 43.6711C7.14291 44.0864 7.30424 44.4955 7.47797 44.9014L7.40972 44.3808C7.31975 44.1701 7.22978 43.9129 7.13981 43.6339C6.82026 42.7786 6.54105 41.9047 6.30526 41.0215C6.26183 40.8108 6.20288 40.4823 6.13773 40.0918C6.11292 40.1259 6.10361 40.1693 6.11292 40.2096C6.13463 40.3087 6.53794 42.2704 6.98779 43.6711Z" fill="url(#paint35_linear_1655_10011)"></path>
<path d="M10.5735 50.4391C9.36667 48.7408 8.34288 46.9155 7.51764 44.9911C7.49282 44.9415 7.48041 44.9136 7.48041 44.9136V44.9012C7.30668 44.4952 7.14225 44.0831 6.99023 43.6709C7.0802 43.9498 7.17017 44.207 7.26325 44.424L7.3284 44.9353C7.3284 44.9508 7.3346 44.9694 7.34391 44.9849C7.42457 45.1522 9.34185 49.0755 10.7876 50.8482C10.6449 50.5909 10.5766 50.4453 10.5766 50.4453L10.5735 50.4391Z" fill="url(#paint36_linear_1655_10011)"></path>
<path d="M7.51689 44.9912C7.50448 44.9602 7.48897 44.9324 7.47656 44.9014V44.9138C7.47656 44.9138 7.49207 44.9417 7.51689 44.9912Z" fill="url(#paint37_linear_1655_10011)"></path>
<path d="M10.7188 50.3898C10.7188 50.3898 10.7064 50.3619 10.6971 50.3495C10.5606 50.1543 10.4303 49.956 10.2969 49.7607C10.5606 50.1915 10.7653 50.52 10.8708 50.6842C10.784 50.5293 10.7343 50.4239 10.7157 50.3898H10.7188Z" fill="url(#paint38_linear_1655_10011)"></path>
<path d="M10.9205 50.7675C10.905 50.7396 10.8895 50.7117 10.874 50.6869C10.7685 50.5227 10.5637 50.1942 10.3 49.7634C9.00011 47.8359 7.93909 45.7874 7.13867 43.6367C7.22864 43.9156 7.31861 44.1728 7.40858 44.3836L7.47683 44.9042C7.48924 44.9352 7.50475 44.9631 7.51716 44.9941C7.79638 45.5612 9.58336 49.1405 10.9174 50.7675H10.9205Z" fill="url(#paint39_linear_1655_10011)"></path>
<path d="M33.555 31.0144H29.1558V40.1812C29.1558 40.8816 28.8052 41.2318 28.1289 41.2318C27.4526 41.2318 27.102 41.2039 26.9407 41.1233C26.5622 41.0149 26.373 40.6926 26.373 40.1812V31.0144H25.4019C24.6728 31.0144 24.3223 30.6363 24.3223 29.8833C24.3223 29.1302 24.6728 28.7243 25.4019 28.7243H26.373V26.2172C26.373 25.5447 26.7235 25.1914 27.3998 25.1914C28.0762 25.1914 28.4516 25.2193 28.6129 25.272C28.9635 25.4052 29.1527 25.7027 29.1527 26.2141V28.7212H33.5519C34.253 28.7212 34.6036 29.1519 34.6036 29.9886C34.6036 30.689 34.253 31.0144 33.5519 31.0144" fill="black"></path>
<path d="M39.1942 27.404C38.8436 27.6457 38.4372 27.7542 37.9532 27.7542C37.4413 27.7542 37.0349 27.6457 36.7123 27.404C36.3338 27.1344 36.1445 26.7842 36.1445 26.3534C36.1445 25.8948 36.3338 25.5446 36.6843 25.275C37.0349 25.0333 37.4413 24.9248 37.9532 24.9248C38.4403 24.9248 38.8436 25.0333 39.1942 25.275C39.5727 25.5446 39.7619 25.8948 39.7619 26.3534C39.7619 26.7842 39.5727 27.1344 39.1942 27.404ZM38.3317 41.2348C37.6833 41.2348 37.3048 41.2069 37.1435 41.117C36.7929 40.9993 36.6037 40.646 36.6037 40.0913V29.7034C36.6037 28.969 36.9543 28.5878 37.6306 28.5878C38.3069 28.5878 38.6575 28.6188 38.8188 28.6746C39.1973 28.8202 39.3586 29.1735 39.3586 29.7003V40.0882C39.3586 40.8505 39.036 41.2317 38.3317 41.2317" fill="black"></path>
<path d="M56.9844 40.4227C55.6876 40.962 54.2853 41.2316 52.7465 41.2316H48.4807C44.1343 41.2316 41.9222 40.0447 41.8416 37.6739C41.7888 36.3259 41.8137 34.6555 41.8695 32.6319C41.9781 30.0163 44.1653 28.7209 48.4559 28.7209H56.7703V26.2387C56.7703 25.5662 57.093 25.2129 57.7972 25.2129C58.4177 25.2129 58.8241 25.2408 58.9854 25.2935C59.3639 25.4019 59.5532 25.7242 59.5532 26.2356V37.3454C59.5532 38.6935 58.6907 39.7193 56.9906 40.4196M56.7734 31.0359H48.4063C45.8964 31.0359 44.6555 31.5751 44.6555 32.6815V37.1564C44.6555 37.9652 45.1425 38.5045 46.0577 38.7462C46.489 38.8546 47.2739 38.8794 48.459 38.8794H52.4549C55.3153 38.8794 56.7734 38.3681 56.7734 37.2897V31.0359Z" fill="black"></path>
<path d="M78.09 36.2703H64.244C64.1634 38.0212 65.5657 38.9137 68.5098 38.9137H69.2668C69.5895 38.9137 69.8066 38.8858 69.9431 38.8858C70.6164 38.8858 70.97 39.3166 70.97 40.1812C70.97 40.8816 70.6195 41.2318 69.9431 41.2318C68.1344 41.2318 66.9214 41.2039 66.3257 41.1233C64.7869 40.987 63.6546 40.6368 62.9255 40.0449C61.8986 39.236 61.3867 38.3187 61.3867 37.2403V32.6042C61.3867 31.1477 62.1964 30.0692 63.788 29.3688C64.9483 28.8575 66.3785 28.5879 68.0538 28.5879H73.2379C74.6402 28.5879 75.8284 28.8296 76.8553 29.3162C78.2048 29.936 78.8532 30.8533 78.8532 32.0928V35.1392C78.8532 35.8953 78.6112 36.2703 78.0962 36.2703M76.1541 32.3067C76.1541 31.3646 74.2648 30.9059 70.4861 30.9059C70.0269 30.9059 69.5429 30.9059 69.0279 30.9338C68.5408 30.9338 68.3268 30.9617 68.3795 30.9617C65.5719 30.9617 64.1696 31.4483 64.1696 32.4182V33.8748H76.1541V32.3098V32.3067Z" fill="black"></path>
<path d="M99.6829 40.1002C99.3851 40.6921 98.8205 40.9896 98.0076 40.9896C97.1948 40.9896 96.6581 40.6921 96.3603 40.1281L92.2558 32.4457L88.0707 40.156C87.7728 40.7231 87.2082 41.0175 86.3706 41.0175C85.5329 41.0175 84.9683 40.72 84.6425 40.1002L79.5949 30.0967C79.4863 29.8549 79.4336 29.638 79.4336 29.449C79.4336 28.8571 79.8648 28.5596 80.7304 28.5596C81.4874 28.5596 81.9993 28.7486 82.2164 29.1794L86.4822 37.4041L90.6395 29.7465C90.99 29.1267 91.5019 28.8013 92.2589 28.8013C93.0159 28.8013 93.4999 29.1267 93.8256 29.7186L98.0076 37.4041L102.246 29.1794C102.463 28.7734 102.947 28.5596 103.732 28.5596C104.594 28.5596 105.028 28.8571 105.028 29.449C105.028 29.638 104.976 29.8549 104.839 30.0967L99.6829 40.1002Z" fill="black"></path>
<path d="M119.736 41.232H112.932C111.555 41.232 110.314 40.9624 109.153 40.3953C107.723 39.7228 106.994 38.7776 106.994 37.5659V35.9761C106.994 34.656 107.67 33.6581 109.045 33.0104C110.097 32.4991 111.365 32.2295 112.824 32.2295H122.649C122.512 31.3648 121.271 30.9093 118.898 30.9093C118.628 30.9093 118.33 30.9093 117.952 30.9372C117.573 30.9372 117.359 30.9651 117.279 30.9651C116.602 30.9651 116.252 30.6149 116.252 29.9145V29.6449C116.252 28.9693 116.602 28.6191 117.279 28.6191C119.627 28.6191 121.299 28.7524 122.379 29.0499C124.405 29.617 125.429 30.776 125.429 32.5022V37.4358C125.429 39.9707 123.511 41.2382 119.733 41.2382M112.768 34.5785C112.2 34.5785 111.607 34.687 110.987 34.9008C110.177 35.1704 109.771 35.5206 109.771 35.9514V37.5411C109.771 37.9998 110.174 38.35 111.012 38.6196C111.632 38.8086 112.253 38.8892 112.848 38.8892H119.757C120.974 38.8892 121.808 38.728 122.187 38.4027C122.509 38.133 122.674 37.5938 122.674 36.785C122.674 36.5959 122.674 36.2736 122.646 35.7871V34.5723H112.768V34.5785Z" fill="black"></path>
<path d="M135.5 31.0144H131.101V40.1812C131.101 40.8816 130.751 41.2318 130.074 41.2318C129.398 41.2318 129.047 41.2039 128.886 41.1233C128.508 41.0149 128.318 40.6926 128.318 40.1812V31.0144H127.347C126.618 31.0144 126.268 30.6363 126.268 29.8833C126.268 29.1302 126.618 28.7243 127.347 28.7243H128.318V26.2172C128.318 25.5447 128.669 25.1914 129.345 25.1914C130.021 25.1914 130.397 25.2193 130.558 25.272C130.909 25.4052 131.098 25.7027 131.098 26.2141V28.7212H135.497C136.198 28.7212 136.549 29.1519 136.549 29.9886C136.549 30.689 136.198 31.0144 135.497 31.0144" fill="black"></path>
<path d="M155.095 36.2703H141.249C141.168 38.0212 142.571 38.9137 145.515 38.9137H146.272C146.595 38.9137 146.812 38.8858 146.945 38.8858C147.621 38.8858 147.972 39.3166 147.972 40.1812C147.972 40.8816 147.621 41.2318 146.945 41.2318C145.136 41.2318 143.923 41.2039 143.328 41.1233C141.789 40.987 140.657 40.6368 139.927 40.0449C138.901 39.236 138.389 38.3187 138.389 37.2403V32.6042C138.389 31.1477 139.198 30.0692 140.79 29.3688C141.95 28.8575 143.38 28.5879 145.056 28.5879H150.24C151.642 28.5879 152.83 28.8296 153.857 29.3162C155.207 29.936 155.855 30.8533 155.855 32.0928V35.1392C155.855 35.8953 155.613 36.2703 155.101 36.2703M153.159 32.3067C153.159 31.3646 151.27 30.9059 147.491 30.9059C147.032 30.9059 146.548 30.9059 146.033 30.9338C145.546 30.9338 145.332 30.9617 145.385 30.9617C142.577 30.9617 141.175 31.4483 141.175 32.4182V33.8748H153.159V32.3098V32.3067Z" fill="black"></path>
<path d="M164.972 30.9582C164.891 30.9582 164.702 30.9303 164.432 30.9303H163.784C161.652 30.9303 160.573 31.4417 160.573 32.5201V40.1777C160.573 40.717 160.383 41.0145 160.005 41.1477C159.844 41.2004 159.437 41.2283 158.792 41.2283C158.091 41.2283 157.74 40.8781 157.74 40.1777L157.793 32.5201C157.793 29.9046 160.169 28.6123 164.972 28.6123C165.645 28.6123 165.999 29.0431 165.999 29.9077C165.999 30.6081 165.648 30.9582 164.972 30.9582Z" fill="black"></path>
<path d="M27.8627 48.1327C27.4469 48.4519 26.9971 48.4612 26.4976 48.4612H24.1832V50.3918H23.4883V45.5791H26.4356C26.5597 45.5791 26.6806 45.5853 26.8047 45.5915C27.0157 45.6132 27.7137 45.638 28.1233 46.2268C28.2877 46.4654 28.3684 46.7598 28.3684 47.0511C28.3684 47.2433 28.3342 47.7794 27.8627 48.1358M27.4531 46.4933C27.1801 46.1524 26.7148 46.1524 26.327 46.1524H24.177V47.8909H26.4014C26.7768 47.8909 27.1863 47.8786 27.4469 47.5563C27.5214 47.4664 27.6238 47.2959 27.6238 47.0108C27.6238 46.921 27.6176 46.6978 27.4531 46.4933Z" fill="#0E723B"></path>
<path d="M35.4579 50.3889L33.8261 48.4582H31.4993V50.3889H30.8105V45.5762H34.0929C34.5024 45.5762 34.6513 45.5979 34.8561 45.6505C35.5045 45.821 35.8737 46.3261 35.8737 46.9862C35.8737 47.2465 35.8178 47.919 35.095 48.2196C34.9709 48.2661 34.8437 48.3095 34.5707 48.3498L36.3514 50.3889H35.4579ZM35.0422 46.5431C34.8375 46.1805 34.5179 46.1495 34.1425 46.1495H31.4931V47.8942H33.8757C34.2635 47.8942 34.7227 47.8818 34.9895 47.5409C35.0577 47.4604 35.1663 47.2961 35.1663 47.0172C35.1663 46.9273 35.1601 46.7445 35.0422 46.5462" fill="#0E723B"></path>
<path d="M43.6818 49.685C43.3468 50.0321 42.6084 50.5187 41.4016 50.5187C41.2775 50.5187 40.9982 50.5125 40.6632 50.4567C40.3343 50.4102 39.3602 50.2336 38.7986 49.3317C38.4698 48.7987 38.4512 48.2533 38.4512 48.0364C38.4512 47.4847 38.5939 46.9331 38.9351 46.5024C39.0034 46.4125 39.0934 46.3102 39.2826 46.1553C39.6115 45.8826 40.2723 45.458 41.3581 45.458C41.5753 45.458 42.233 45.4797 42.8535 45.7648C43.2506 45.9476 43.6322 46.2483 43.8835 46.6108C44.2806 47.1841 44.3054 47.8163 44.3054 48.0488C44.3054 48.3277 44.2651 49.0776 43.6787 49.685M43.4398 47.1408C42.9217 46.0282 41.5474 46.0375 41.2744 46.0437C41.0696 46.0499 40.2009 46.0995 39.6425 46.6573C39.5463 46.7534 39.3571 46.9641 39.2392 47.305C39.1647 47.5219 39.1306 47.7761 39.1306 48.0085C39.1306 48.1851 39.1523 48.7026 39.4781 49.1458C39.5463 49.2357 39.6487 49.3565 39.8597 49.5084C40.1389 49.7067 40.6104 49.9237 41.4109 49.9237C41.5412 49.9237 41.8607 49.9237 42.2237 49.8276C42.9 49.6509 43.3902 49.2016 43.5546 48.5167C43.5763 48.4206 43.6167 48.2254 43.6167 47.9775C43.6167 47.5684 43.5081 47.2833 43.4398 47.1377" fill="#0E723B"></path>
<path d="M51.3822 48.1327C50.9665 48.4519 50.5166 48.4612 50.0171 48.4612H47.7027V50.3918H47.0078V45.5791H49.9582C50.0823 45.5791 50.2033 45.5853 50.3274 45.5915C50.5383 45.6132 51.2364 45.638 51.6459 46.2268C51.8103 46.4654 51.891 46.7598 51.891 47.0511C51.891 47.2433 51.8569 47.7794 51.3853 48.1358M50.9758 46.4933C50.7028 46.1524 50.2374 46.1524 49.8496 46.1524H47.6996V47.8909H49.9241C50.2995 47.8909 50.709 47.8786 50.9696 47.5563C51.044 47.4664 51.1464 47.2959 51.1464 47.0108C51.1464 46.921 51.1402 46.6978 50.9758 46.4933Z" fill="#0E723B"></path>
<path d="M54.3359 50.3889V45.5762H58.7817V46.1681H55.0185V47.5998H58.6855V48.1731H55.0185V49.797H58.9585V50.3889H54.3359Z" fill="#0E723B"></path>
<path d="M66.1591 50.3889L64.5272 48.4582H62.2005V50.3889H61.5117V45.5762H64.7941C65.2036 45.5762 65.3525 45.5979 65.5572 45.6505C66.2056 45.821 66.5748 46.3261 66.5748 46.9862C66.5748 47.2465 66.519 47.919 65.7961 48.2196C65.672 48.2661 65.5448 48.3095 65.2687 48.3498L67.0495 50.3889H66.156H66.1591ZM65.7434 46.5431C65.5386 46.1805 65.2191 46.1495 64.8437 46.1495H62.1942V47.8942H64.5769C64.9647 47.8942 65.4238 47.8818 65.6906 47.5409C65.7589 47.4604 65.8675 47.2961 65.8675 47.0172C65.8675 46.9273 65.8613 46.7445 65.7434 46.5462" fill="#0E723B"></path>
<path d="M71.5702 46.1464V50.3889H70.8876V46.1464H68.9238V45.5762H73.5433V46.1464H71.5702Z" fill="#0E723B"></path>
<path d="M78.5248 48.5264V50.3889H77.8485V48.514L75.4473 45.5762H76.3283L78.1898 47.9345L80.0947 45.5762H80.9695L78.5248 48.5264Z" fill="#0E723B"></path>
<path d="M92.5222 50.3889L92.5563 46.2579L90.5832 50.3889H89.9441L87.9772 46.2579L88.0113 50.3889H87.3691V45.5762H88.3123L90.2761 49.6513L92.243 45.5762H93.1706V50.3889H92.5222Z" fill="#0E723B"></path>
<path d="M100.297 50.3889L99.7103 49.202H96.7475L96.1612 50.3889H95.3887L97.8861 45.5762H98.6152L101.085 50.3889H100.294H100.297ZM98.2367 46.2641L97.036 48.6504H99.4187L98.2367 46.2641Z" fill="#0E723B"></path>
<path d="M104.127 45.5762H103.432V50.3889H104.127V45.5762Z" fill="#0E723B"></path>
<path d="M111.469 50.3889L107.697 46.4067L107.709 50.3889H107.055V45.5762H107.756L111.504 49.5491L111.485 45.5762H112.14V50.3889H111.469Z" fill="#0E723B"></path>
<path d="M117.259 46.1464V50.3889H116.576V46.1464H114.609V45.5762H119.232V46.1464H117.259Z" fill="#0E723B"></path>
<path d="M121.701 50.3889V45.5762H126.144V46.1681H122.384V47.5998H126.051V48.1731H122.384V49.797H126.324V50.3889H121.701Z" fill="#0E723B"></path>
<path d="M133.291 50.3889L129.515 46.4067L129.528 50.3889H128.873V45.5762H129.577L133.325 49.5491L133.303 45.5762H133.958V50.3889H133.291Z" fill="#0E723B"></path>
<path d="M141.236 50.3889L140.65 49.202H137.687L137.101 50.3889H136.328L138.826 45.5762H139.555L142.024 50.3889H141.233H141.236ZM139.176 46.2641L137.975 48.6504H140.358L139.176 46.2641Z" fill="#0E723B"></path>
<path d="M148.785 50.3889L145.009 46.4067L145.022 50.3889H144.367V45.5762H145.071L148.819 49.5491L148.797 45.5762H149.452V50.3889H148.785Z" fill="#0E723B"></path>
<path d="M157.541 49.5924C156.756 50.5128 155.363 50.5128 155.083 50.5128C154.128 50.5128 153.569 50.2463 153.228 50.0294C153.104 49.9488 153.011 49.8713 152.899 49.7784C152.831 49.7102 152.682 49.5614 152.546 49.3414C152.375 49.0811 152.164 48.6658 152.164 47.95C152.164 47.7175 152.176 47.0823 152.586 46.5182C152.654 46.416 152.744 46.3075 152.933 46.1371C153.104 45.9945 153.303 45.8582 153.492 45.7621C154.112 45.4491 154.885 45.4336 155.068 45.4336C155.294 45.4336 156.188 45.4553 156.883 45.8767C156.979 45.9387 157.178 46.0689 157.382 46.2796C157.599 46.512 157.717 46.7228 157.779 46.8312L157.05 46.9893C157.01 46.9149 156.97 46.8467 156.92 46.7786C156.811 46.6298 156.647 46.478 156.489 46.3819C156.262 46.2393 155.778 46.0348 155.096 46.0348C154.907 46.0348 154.162 46.041 153.6 46.4377C153.545 46.4718 153.442 46.5554 153.327 46.6825C153.144 46.8808 152.884 47.262 152.884 47.9438C152.884 48.1421 152.906 48.6875 153.265 49.1586C153.697 49.7164 154.404 49.8466 154.612 49.8806C154.845 49.9147 155.09 49.9147 155.164 49.9147C155.381 49.9147 156.318 49.9209 156.892 49.2949C157.007 49.171 157.075 49.0718 157.159 48.9262L157.882 49.0749C157.724 49.3538 157.637 49.4778 157.541 49.5924Z" fill="#0E723B"></path>
<path d="M160.441 50.3889V45.5762H164.887V46.1681H161.124V47.5998H164.791V48.1731H161.124V49.797H165.064V50.3889H160.441Z" fill="#0E723B"></path>
</g>
<defs>
<linearGradient id="paint0_linear_1655_10011" x1="34.1836" y1="69.8454" x2="34.1836" y2="0.155273" gradientUnits="userSpaceOnUse">
<stop stop-color="#0F9146"></stop>
<stop offset="0.55" stop-color="#51A35B"></stop>
<stop offset="1" stop-color="#A0D19B"></stop>
</linearGradient>
<linearGradient id="paint1_linear_1655_10011" x1="18.1875" y1="66.538" x2="30.473" y2="66.538" gradientUnits="userSpaceOnUse">
<stop stop-color="#019949"></stop>
<stop offset="0.16" stop-color="#019949"></stop>
<stop offset="1" stop-color="#AAD7A5"></stop>
</linearGradient>
<linearGradient id="paint2_linear_1655_10011" x1="4.00195" y1="46.9494" x2="4.27186" y2="46.9494" gradientUnits="userSpaceOnUse">
<stop stop-color="#019949"></stop>
<stop offset="0.16" stop-color="#019949"></stop>
<stop offset="1" stop-color="#AAD7A5"></stop>
</linearGradient>
<linearGradient id="paint3_linear_1655_10011" x1="51.8324" y1="55.4191" x2="65.2378" y2="55.4191" gradientUnits="userSpaceOnUse">
<stop stop-color="#019949"></stop>
<stop offset="0.16" stop-color="#019949"></stop>
<stop offset="1" stop-color="#AAD7A5"></stop>
</linearGradient>
<linearGradient id="paint4_linear_1655_10011" x1="51.9883" y1="55.4193" x2="65.0835" y2="55.4193" gradientUnits="userSpaceOnUse">
<stop stop-color="#019949"></stop>
<stop offset="0.16" stop-color="#019949"></stop>
<stop offset="1" stop-color="#AAD7A5"></stop>
</linearGradient>
<linearGradient id="paint5_linear_1655_10011" x1="37.5957" y1="65.5315" x2="51.3859" y2="65.5315" gradientUnits="userSpaceOnUse">
<stop stop-color="#019949"></stop>
<stop offset="0.16" stop-color="#019949"></stop>
<stop offset="1" stop-color="#AAD7A5"></stop>
</linearGradient>
<linearGradient id="paint6_linear_1655_10011" x1="37.4395" y1="65.5314" x2="51.5399" y2="65.5314" gradientUnits="userSpaceOnUse">
<stop stop-color="#019949"></stop>
<stop offset="0.16" stop-color="#019949"></stop>
<stop offset="1" stop-color="#AAD7A5"></stop>
</linearGradient>
<linearGradient id="paint7_linear_1655_10011" x1="37.1738" y1="63.449" x2="39.9939" y2="63.449" gradientUnits="userSpaceOnUse">
<stop stop-color="#019949"></stop>
<stop offset="0.16" stop-color="#019949"></stop>
<stop offset="1" stop-color="#AAD7A5"></stop>
</linearGradient>
<linearGradient id="paint8_linear_1655_10011" x1="37.0176" y1="63.4486" x2="40.1479" y2="63.4486" gradientUnits="userSpaceOnUse">
<stop stop-color="#019949"></stop>
<stop offset="0.16" stop-color="#019949"></stop>
<stop offset="1" stop-color="#AAD7A5"></stop>
</linearGradient>
<linearGradient id="paint9_linear_1655_10011" x1="46.3164" y1="61.0809" x2="48.2926" y2="61.0809" gradientUnits="userSpaceOnUse">
<stop stop-color="#019949"></stop>
<stop offset="0.16" stop-color="#019949"></stop>
<stop offset="1" stop-color="#AAD7A5"></stop>
</linearGradient>
<linearGradient id="paint10_linear_1655_10011" x1="46.1574" y1="61.0815" x2="48.4469" y2="61.0815" gradientUnits="userSpaceOnUse">
<stop stop-color="#019949"></stop>
<stop offset="0.16" stop-color="#019949"></stop>
<stop offset="1" stop-color="#AAD7A5"></stop>
</linearGradient>
<linearGradient id="paint11_linear_1655_10011" x1="57.829" y1="52.2523" x2="60.283" y2="52.2523" gradientUnits="userSpaceOnUse">
<stop stop-color="#019949"></stop>
<stop offset="0.16" stop-color="#019949"></stop>
<stop offset="1" stop-color="#AAD7A5"></stop>
</linearGradient>
<linearGradient id="paint12_linear_1655_10011" x1="57.9844" y1="52.2525" x2="60.1281" y2="52.2525" gradientUnits="userSpaceOnUse">
<stop stop-color="#019949"></stop>
<stop offset="0.16" stop-color="#019949"></stop>
<stop offset="1" stop-color="#AAD7A5"></stop>
</linearGradient>
<linearGradient id="paint13_linear_1655_10011" x1="55.7125" y1="48.7067" x2="70.9049" y2="48.7067" gradientUnits="userSpaceOnUse">
<stop stop-color="#019949"></stop>
<stop offset="0.16" stop-color="#019949"></stop>
<stop offset="1" stop-color="#AAD7A5"></stop>
</linearGradient>
<linearGradient id="paint14_linear_1655_10011" x1="55.8683" y1="48.7068" x2="70.7474" y2="48.7068" gradientUnits="userSpaceOnUse">
<stop stop-color="#019949"></stop>
<stop offset="0.16" stop-color="#019949"></stop>
<stop offset="1" stop-color="#AAD7A5"></stop>
</linearGradient>
<linearGradient id="paint15_linear_1655_10011" x1="22.8379" y1="61.8993" x2="29.7873" y2="61.8993" gradientUnits="userSpaceOnUse">
<stop stop-color="#019949"></stop>
<stop offset="0.16" stop-color="#019949"></stop>
<stop offset="1" stop-color="#AAD7A5"></stop>
</linearGradient>
<linearGradient id="paint16_linear_1655_10011" x1="22.9914" y1="61.8927" x2="29.5157" y2="61.8927" gradientUnits="userSpaceOnUse">
<stop stop-color="#019949"></stop>
<stop offset="0.16" stop-color="#019949"></stop>
<stop offset="1" stop-color="#AAD7A5"></stop>
</linearGradient>
<linearGradient id="paint17_linear_1655_10011" x1="29.5176" y1="62.9378" x2="29.6324" y2="62.9378" gradientUnits="userSpaceOnUse">
<stop stop-color="#019949"></stop>
<stop offset="0.16" stop-color="#019949"></stop>
<stop offset="1" stop-color="#AAD7A5"></stop>
</linearGradient>
<linearGradient id="paint18_linear_1655_10011" x1="15.5586" y1="58.1958" x2="21.8503" y2="58.1958" gradientUnits="userSpaceOnUse">
<stop stop-color="#019949"></stop>
<stop offset="0.16" stop-color="#019949"></stop>
<stop offset="1" stop-color="#AAD7A5"></stop>
</linearGradient>
<linearGradient id="paint19_linear_1655_10011" x1="15.4048" y1="58.1964" x2="22.0067" y2="58.1964" gradientUnits="userSpaceOnUse">
<stop stop-color="#019949"></stop>
<stop offset="0.16" stop-color="#019949"></stop>
<stop offset="1" stop-color="#AAD7A5"></stop>
</linearGradient>
<linearGradient id="paint20_linear_1655_10011" x1="5.6867" y1="60.988" x2="34.1822" y2="60.988" gradientUnits="userSpaceOnUse">
<stop stop-color="#019949"></stop>
<stop offset="0.16" stop-color="#019949"></stop>
<stop offset="1" stop-color="#AAD7A5"></stop>
</linearGradient>
<linearGradient id="paint21_linear_1655_10011" x1="4.56055" y1="13.9111" x2="19.0829" y2="13.9111" gradientUnits="userSpaceOnUse">
<stop stop-color="#019949"></stop>
<stop offset="0.16" stop-color="#019949"></stop>
<stop offset="1" stop-color="#AAD7A5"></stop>
</linearGradient>
<linearGradient id="paint22_linear_1655_10011" x1="2.24023" y1="35.641" x2="5.5629" y2="35.641" gradientUnits="userSpaceOnUse">
<stop stop-color="#019949"></stop>
<stop offset="0.16" stop-color="#019949"></stop>
<stop offset="1" stop-color="#AAD7A5"></stop>
</linearGradient>
<linearGradient id="paint23_linear_1655_10011" x1="0.000216524" y1="35" x2="68.3615" y2="35" gradientUnits="userSpaceOnUse">
<stop stop-color="#019949"></stop>
<stop offset="0.16" stop-color="#019949"></stop>
<stop offset="1" stop-color="#AAD7A5"></stop>
</linearGradient>
<linearGradient id="paint24_linear_1655_10011" x1="55.716" y1="62.3175" x2="55.8339" y2="62.3175" gradientUnits="userSpaceOnUse">
<stop stop-color="#019949"></stop>
<stop offset="0.16" stop-color="#019949"></stop>
<stop offset="1" stop-color="#AAD7A5"></stop>
</linearGradient>
<linearGradient id="paint25_linear_1655_10011" x1="25.2969" y1="62.1782" x2="25.663" y2="62.1782" gradientUnits="userSpaceOnUse">
<stop stop-color="#019949"></stop>
<stop offset="0.16" stop-color="#019949"></stop>
<stop offset="1" stop-color="#AAD7A5"></stop>
</linearGradient>
<linearGradient id="paint26_linear_1655_10011" x1="15.4043" y1="58.2797" x2="21.848" y2="58.2797" gradientUnits="userSpaceOnUse">
<stop stop-color="#019949"></stop>
<stop offset="0.16" stop-color="#019949"></stop>
<stop offset="1" stop-color="#AAD7A5"></stop>
</linearGradient>
<linearGradient id="paint27_linear_1655_10011" x1="2.35466" y1="40.9318" x2="2.38569" y2="40.9318" gradientUnits="userSpaceOnUse">
<stop stop-color="#019949"></stop>
<stop offset="0.16" stop-color="#019949"></stop>
<stop offset="1" stop-color="#AAD7A5"></stop>
</linearGradient>
<linearGradient id="paint28_linear_1655_10011" x1="2.33088" y1="40.786" x2="2.3557" y2="40.786" gradientUnits="userSpaceOnUse">
<stop stop-color="#019949"></stop>
<stop offset="0.16" stop-color="#019949"></stop>
<stop offset="1" stop-color="#AAD7A5"></stop>
</linearGradient>
<linearGradient id="paint29_linear_1655_10011" x1="19.791" y1="4.37299" x2="22.2574" y2="4.37299" gradientUnits="userSpaceOnUse">
<stop stop-color="#019949"></stop>
<stop offset="0.16" stop-color="#019949"></stop>
<stop offset="1" stop-color="#AAD7A5"></stop>
</linearGradient>
<linearGradient id="paint30_linear_1655_10011" x1="19.6346" y1="4.37283" x2="22.4112" y2="4.37283" gradientUnits="userSpaceOnUse">
<stop stop-color="#019949"></stop>
<stop offset="0.16" stop-color="#019949"></stop>
<stop offset="1" stop-color="#AAD7A5"></stop>
</linearGradient>
<linearGradient id="paint31_linear_1655_10011" x1="6.26367" y1="44.9696" x2="10.2999" y2="44.9696" gradientUnits="userSpaceOnUse">
<stop stop-color="#019949"></stop>
<stop offset="0.16" stop-color="#019949"></stop>
<stop offset="1" stop-color="#AAD7A5"></stop>
</linearGradient>
<linearGradient id="paint32_linear_1655_10011" x1="10.875" y1="50.7456" x2="10.9526" y2="50.7456" gradientUnits="userSpaceOnUse">
<stop stop-color="#019949"></stop>
<stop offset="0.16" stop-color="#019949"></stop>
<stop offset="1" stop-color="#AAD7A5"></stop>
</linearGradient>
<linearGradient id="paint33_linear_1655_10011" x1="6.13752" y1="45.4806" x2="11.1076" y2="45.4806" gradientUnits="userSpaceOnUse">
<stop stop-color="#019949"></stop>
<stop offset="0.16" stop-color="#019949"></stop>
<stop offset="1" stop-color="#AAD7A5"></stop>
</linearGradient>
<linearGradient id="paint34_linear_1655_10011" x1="7.51758" y1="47.9755" x2="11.0171" y2="47.9755" gradientUnits="userSpaceOnUse">
<stop stop-color="#019949"></stop>
<stop offset="0.16" stop-color="#019949"></stop>
<stop offset="1" stop-color="#AAD7A5"></stop>
</linearGradient>
<linearGradient id="paint35_linear_1655_10011" x1="6.10981" y1="42.4966" x2="7.47797" y2="42.4966" gradientUnits="userSpaceOnUse">
<stop stop-color="#019949"></stop>
<stop offset="0.16" stop-color="#019949"></stop>
<stop offset="1" stop-color="#AAD7A5"></stop>
</linearGradient>
<linearGradient id="paint36_linear_1655_10011" x1="6.98713" y1="47.2564" x2="10.7814" y2="47.2564" gradientUnits="userSpaceOnUse">
<stop stop-color="#019949"></stop>
<stop offset="0.16" stop-color="#019949"></stop>
<stop offset="1" stop-color="#AAD7A5"></stop>
</linearGradient>
<linearGradient id="paint37_linear_1655_10011" x1="7.47656" y1="44.9479" x2="7.51689" y2="44.9479" gradientUnits="userSpaceOnUse">
<stop stop-color="#019949"></stop>
<stop offset="0.16" stop-color="#019949"></stop>
<stop offset="1" stop-color="#AAD7A5"></stop>
</linearGradient>
<linearGradient id="paint38_linear_1655_10011" x1="10.3" y1="50.2225" x2="10.8739" y2="50.2225" gradientUnits="userSpaceOnUse">
<stop stop-color="#019949"></stop>
<stop offset="0.16" stop-color="#019949"></stop>
<stop offset="1" stop-color="#AAD7A5"></stop>
</linearGradient>
<linearGradient id="paint39_linear_1655_10011" x1="7.13867" y1="47.2006" x2="10.9205" y2="47.2006" gradientUnits="userSpaceOnUse">
<stop stop-color="#019949"></stop>
<stop offset="0.16" stop-color="#019949"></stop>
<stop offset="1" stop-color="#AAD7A5"></stop>
</linearGradient>
<clipPath id="clip0_1655_10011">
<rect width="166" height="70" fill="white"></rect>
</clipPath>
</defs>
</svg>